<svg width="273" height="134" viewBox="0 0 273 134" fill="none" xmlns="http://www.w3.org/2000/svg">
<rect opacity="0.75" x="33.5" y="0.5" width="207" height="97" rx="23.5" fill="#FDFDFD" stroke="#E1D8ED"/>
<rect y="98" width="273" height="36" rx="16" fill="white"/>
<rect y="98" width="273" height="36" rx="16" fill="url(#paint0_linear_23_36)"/>
<path d="M23.76 121C23.6427 121 23.552 120.968 23.488 120.904C23.424 120.829 23.392 120.739 23.392 120.632V110.184C23.392 110.067 23.424 109.976 23.488 109.912C23.552 109.837 23.6427 109.8 23.76 109.8H27.824C28.6133 109.8 29.296 109.928 29.872 110.184C30.4587 110.44 30.912 110.824 31.232 111.336C31.552 111.837 31.712 112.467 31.712 113.224C31.712 113.981 31.552 114.611 31.232 115.112C30.912 115.613 30.4587 115.992 29.872 116.248C29.296 116.504 28.6133 116.632 27.824 116.632H24.992V120.632C24.992 120.739 24.9547 120.829 24.88 120.904C24.816 120.968 24.7253 121 24.608 121H23.76ZM24.976 115.288H27.744C28.5333 115.288 29.1253 115.112 29.52 114.76C29.9147 114.408 30.112 113.896 30.112 113.224C30.112 112.563 29.92 112.051 29.536 111.688C29.152 111.325 28.5547 111.144 27.744 111.144H24.976V115.288ZM34.0256 121C33.9083 121 33.8176 120.968 33.7536 120.904C33.6896 120.829 33.6576 120.739 33.6576 120.632V110.184C33.6576 110.067 33.6896 109.976 33.7536 109.912C33.8176 109.837 33.9083 109.8 34.0256 109.8H34.8416C34.959 109.8 35.0496 109.837 35.1136 109.912C35.1883 109.976 35.2256 110.067 35.2256 110.184V114.6H40.7296V110.184C40.7296 110.067 40.7616 109.976 40.8256 109.912C40.9003 109.837 40.991 109.8 41.0976 109.8H41.9136C42.031 109.8 42.1216 109.837 42.1856 109.912C42.2603 109.976 42.2976 110.067 42.2976 110.184V120.632C42.2976 120.739 42.2603 120.829 42.1856 120.904C42.1216 120.968 42.031 121 41.9136 121H41.0976C40.991 121 40.9003 120.968 40.8256 120.904C40.7616 120.829 40.7296 120.739 40.7296 120.632V116.04H35.2256V120.632C35.2256 120.739 35.1883 120.829 35.1136 120.904C35.0496 120.968 34.959 121 34.8416 121H34.0256ZM45.4319 121C45.3145 121 45.2239 120.968 45.1599 120.904C45.0959 120.829 45.0639 120.739 45.0639 120.632V110.184C45.0639 110.067 45.0959 109.976 45.1599 109.912C45.2239 109.837 45.3145 109.8 45.4319 109.8H49.4959C50.2852 109.8 50.9679 109.928 51.5439 110.184C52.1305 110.44 52.5839 110.824 52.9039 111.336C53.2239 111.837 53.3839 112.467 53.3839 113.224C53.3839 113.981 53.2239 114.611 52.9039 115.112C52.5839 115.613 52.1305 115.992 51.5439 116.248C50.9679 116.504 50.2852 116.632 49.4959 116.632H46.6639V120.632C46.6639 120.739 46.6265 120.829 46.5519 120.904C46.4879 120.968 46.3972 121 46.2799 121H45.4319ZM46.6479 115.288H49.4159C50.2052 115.288 50.7972 115.112 51.1919 114.76C51.5865 114.408 51.7839 113.896 51.7839 113.224C51.7839 112.563 51.5919 112.051 51.2079 111.688C50.8239 111.325 50.2265 111.144 49.4159 111.144H46.6479V115.288ZM59.052 124.328C58.9453 124.328 58.8547 124.291 58.78 124.216C58.716 124.152 58.684 124.067 58.684 123.96V107.032C58.684 106.925 58.716 106.84 58.78 106.776C58.8547 106.701 58.9453 106.664 59.052 106.664H59.676C59.7827 106.664 59.868 106.701 59.932 106.776C60.0067 106.84 60.044 106.925 60.044 107.032V123.96C60.044 124.067 60.0067 124.152 59.932 124.216C59.868 124.291 59.7827 124.328 59.676 124.328H59.052ZM66.9163 121C66.7989 121 66.7083 120.968 66.6443 120.904C66.5803 120.829 66.5483 120.739 66.5483 120.632V110.168C66.5483 110.061 66.5803 109.976 66.6443 109.912C66.7083 109.837 66.7989 109.8 66.9163 109.8H67.7643C67.8709 109.8 67.9563 109.837 68.0203 109.912C68.0843 109.976 68.1163 110.061 68.1163 110.168V119.608H73.4443C73.5616 119.608 73.6523 119.645 73.7163 119.72C73.7803 119.784 73.8123 119.875 73.8123 119.992V120.632C73.8123 120.739 73.7803 120.829 73.7163 120.904C73.6523 120.968 73.5616 121 73.4443 121H66.9163ZM77.6759 121.16C77.1425 121.16 76.6572 121.053 76.2199 120.84C75.7825 120.627 75.4305 120.339 75.1639 119.976C74.8972 119.613 74.7639 119.203 74.7639 118.744C74.7639 118.008 75.0625 117.421 75.6599 116.984C76.2572 116.547 77.0359 116.259 77.9959 116.12L80.3799 115.784V115.32C80.3799 114.808 80.2305 114.408 79.9319 114.12C79.6439 113.832 79.1692 113.688 78.5079 113.688C78.0279 113.688 77.6385 113.784 77.3399 113.976C77.0519 114.168 76.8492 114.413 76.7319 114.712C76.6679 114.872 76.5559 114.952 76.3959 114.952H75.6759C75.5585 114.952 75.4679 114.92 75.4039 114.856C75.3505 114.781 75.3239 114.696 75.3239 114.6C75.3239 114.44 75.3825 114.243 75.4999 114.008C75.6279 113.773 75.8199 113.544 76.0759 113.32C76.3319 113.096 76.6572 112.909 77.0519 112.76C77.4572 112.6 77.9479 112.52 78.5239 112.52C79.1639 112.52 79.7025 112.605 80.1399 112.776C80.5772 112.936 80.9185 113.155 81.1639 113.432C81.4199 113.709 81.6012 114.024 81.7079 114.376C81.8252 114.728 81.8839 115.085 81.8839 115.448V120.632C81.8839 120.739 81.8465 120.829 81.7719 120.904C81.7079 120.968 81.6225 121 81.5159 121H80.7799C80.6625 121 80.5719 120.968 80.5079 120.904C80.4439 120.829 80.4119 120.739 80.4119 120.632V119.944C80.2732 120.136 80.0865 120.328 79.8519 120.52C79.6172 120.701 79.3239 120.856 78.9719 120.984C78.6199 121.101 78.1879 121.16 77.6759 121.16ZM78.0119 119.96C78.4492 119.96 78.8492 119.869 79.2119 119.688C79.5745 119.496 79.8572 119.203 80.0599 118.808C80.2732 118.413 80.3799 117.917 80.3799 117.32V116.872L78.5239 117.144C77.7665 117.251 77.1959 117.432 76.8119 117.688C76.4279 117.933 76.2359 118.248 76.2359 118.632C76.2359 118.931 76.3212 119.181 76.4919 119.384C76.6732 119.576 76.8972 119.72 77.1639 119.816C77.4412 119.912 77.7239 119.96 78.0119 119.96ZM84.552 121C84.4453 121 84.3547 120.968 84.28 120.904C84.216 120.829 84.184 120.739 84.184 120.632V113.064C84.184 112.957 84.216 112.867 84.28 112.792C84.3547 112.717 84.4453 112.68 84.552 112.68H85.288C85.3947 112.68 85.4853 112.717 85.56 112.792C85.6347 112.867 85.672 112.957 85.672 113.064V113.768C85.8853 113.405 86.1787 113.133 86.552 112.952C86.9253 112.771 87.3733 112.68 87.896 112.68H88.536C88.6427 112.68 88.728 112.717 88.792 112.792C88.856 112.856 88.888 112.941 88.888 113.048V113.704C88.888 113.811 88.856 113.896 88.792 113.96C88.728 114.024 88.6427 114.056 88.536 114.056H87.576C87 114.056 86.5467 114.227 86.216 114.568C85.8853 114.899 85.72 115.352 85.72 115.928V120.632C85.72 120.739 85.6827 120.829 85.608 120.904C85.5333 120.968 85.4427 121 85.336 121H84.552ZM92.4571 121.16C91.9238 121.16 91.4385 121.053 91.0011 120.84C90.5638 120.627 90.2118 120.339 89.9451 119.976C89.6785 119.613 89.5451 119.203 89.5451 118.744C89.5451 118.008 89.8438 117.421 90.4411 116.984C91.0385 116.547 91.8171 116.259 92.7771 116.12L95.1611 115.784V115.32C95.1611 114.808 95.0118 114.408 94.7131 114.12C94.4251 113.832 93.9505 113.688 93.2891 113.688C92.8091 113.688 92.4198 113.784 92.1211 113.976C91.8331 114.168 91.6305 114.413 91.5131 114.712C91.4491 114.872 91.3371 114.952 91.1771 114.952H90.4571C90.3398 114.952 90.2491 114.92 90.1851 114.856C90.1318 114.781 90.1051 114.696 90.1051 114.6C90.1051 114.44 90.1638 114.243 90.2811 114.008C90.4091 113.773 90.6011 113.544 90.8571 113.32C91.1131 113.096 91.4385 112.909 91.8331 112.76C92.2385 112.6 92.7291 112.52 93.3051 112.52C93.9451 112.52 94.4838 112.605 94.9211 112.776C95.3585 112.936 95.6998 113.155 95.9451 113.432C96.2011 113.709 96.3825 114.024 96.4891 114.376C96.6065 114.728 96.6651 115.085 96.6651 115.448V120.632C96.6651 120.739 96.6278 120.829 96.5531 120.904C96.4891 120.968 96.4038 121 96.2971 121H95.5611C95.4438 121 95.3531 120.968 95.2891 120.904C95.2251 120.829 95.1931 120.739 95.1931 120.632V119.944C95.0545 120.136 94.8678 120.328 94.6331 120.52C94.3985 120.701 94.1051 120.856 93.7531 120.984C93.4011 121.101 92.9691 121.16 92.4571 121.16ZM92.7931 119.96C93.2305 119.96 93.6305 119.869 93.9931 119.688C94.3558 119.496 94.6385 119.203 94.8411 118.808C95.0545 118.413 95.1611 117.917 95.1611 117.32V116.872L93.3051 117.144C92.5478 117.251 91.9771 117.432 91.5931 117.688C91.2091 117.933 91.0171 118.248 91.0171 118.632C91.0171 118.931 91.1025 119.181 91.2731 119.384C91.4545 119.576 91.6785 119.72 91.9451 119.816C92.2225 119.912 92.5051 119.96 92.7931 119.96ZM101.705 121C101.545 121 101.417 120.963 101.321 120.888C101.236 120.813 101.166 120.717 101.113 120.6L98.153 113.176C98.1317 113.123 98.121 113.069 98.121 113.016C98.121 112.92 98.153 112.84 98.217 112.776C98.281 112.712 98.361 112.68 98.457 112.68H99.225C99.3423 112.68 99.433 112.712 99.497 112.776C99.561 112.84 99.5983 112.899 99.609 112.952L102.057 119.256L104.489 112.952C104.51 112.899 104.548 112.84 104.601 112.776C104.665 112.712 104.756 112.68 104.873 112.68H105.657C105.742 112.68 105.817 112.712 105.881 112.776C105.956 112.84 105.993 112.92 105.993 113.016C105.993 113.069 105.982 113.123 105.961 113.176L102.985 120.6C102.942 120.717 102.873 120.813 102.777 120.888C102.692 120.963 102.564 121 102.393 121H101.705ZM110.684 121.16C109.585 121.16 108.71 120.824 108.06 120.152C107.409 119.469 107.052 118.541 106.988 117.368C106.977 117.229 106.972 117.053 106.972 116.84C106.972 116.616 106.977 116.435 106.988 116.296C107.03 115.539 107.206 114.877 107.516 114.312C107.825 113.736 108.246 113.293 108.78 112.984C109.324 112.675 109.958 112.52 110.684 112.52C111.494 112.52 112.172 112.691 112.716 113.032C113.27 113.373 113.692 113.859 113.98 114.488C114.268 115.117 114.411 115.853 114.411 116.696V116.968C114.411 117.085 114.374 117.176 114.3 117.24C114.236 117.304 114.15 117.336 114.044 117.336H108.508C108.508 117.347 108.508 117.368 108.508 117.4C108.508 117.432 108.508 117.459 108.508 117.48C108.529 117.917 108.625 118.328 108.796 118.712C108.966 119.085 109.212 119.389 109.532 119.624C109.852 119.859 110.236 119.976 110.684 119.976C111.068 119.976 111.388 119.917 111.644 119.8C111.9 119.683 112.108 119.555 112.268 119.416C112.428 119.267 112.534 119.155 112.588 119.08C112.684 118.941 112.758 118.861 112.812 118.84C112.865 118.808 112.95 118.792 113.068 118.792H113.836C113.942 118.792 114.028 118.824 114.092 118.888C114.166 118.941 114.198 119.021 114.188 119.128C114.177 119.288 114.092 119.485 113.932 119.72C113.772 119.944 113.542 120.168 113.244 120.392C112.945 120.616 112.582 120.803 112.156 120.952C111.729 121.091 111.238 121.16 110.684 121.16ZM108.508 116.232H112.892V116.184C112.892 115.704 112.801 115.277 112.62 114.904C112.449 114.531 112.198 114.237 111.868 114.024C111.537 113.8 111.142 113.688 110.684 113.688C110.225 113.688 109.83 113.8 109.5 114.024C109.18 114.237 108.934 114.531 108.764 114.904C108.593 115.277 108.508 115.704 108.508 116.184V116.232ZM116.709 121C116.602 121 116.511 120.968 116.437 120.904C116.373 120.829 116.341 120.739 116.341 120.632V110.008C116.341 109.901 116.373 109.816 116.437 109.752C116.511 109.677 116.602 109.64 116.709 109.64H117.461C117.578 109.64 117.669 109.677 117.733 109.752C117.797 109.816 117.829 109.901 117.829 110.008V120.632C117.829 120.739 117.797 120.829 117.733 120.904C117.669 120.968 117.578 121 117.461 121H116.709ZM124.505 124.328C124.398 124.328 124.308 124.291 124.233 124.216C124.169 124.152 124.137 124.067 124.137 123.96V107.032C124.137 106.925 124.169 106.84 124.233 106.776C124.308 106.701 124.398 106.664 124.505 106.664H125.129C125.236 106.664 125.321 106.701 125.385 106.776C125.46 106.84 125.497 106.925 125.497 107.032V123.96C125.497 124.067 125.46 124.152 125.385 124.216C125.321 124.291 125.236 124.328 125.129 124.328H124.505ZM132.369 121C132.252 121 132.161 120.968 132.097 120.904C132.033 120.829 132.001 120.739 132.001 120.632V110.184C132.001 110.067 132.033 109.976 132.097 109.912C132.161 109.837 132.252 109.8 132.369 109.8H133.105C133.233 109.8 133.329 109.832 133.393 109.896C133.457 109.949 133.495 109.992 133.505 110.024L138.817 118.184V110.184C138.817 110.067 138.849 109.976 138.913 109.912C138.977 109.837 139.068 109.8 139.185 109.8H139.953C140.071 109.8 140.161 109.837 140.225 109.912C140.3 109.976 140.337 110.067 140.337 110.184V120.616C140.337 120.723 140.3 120.813 140.225 120.888C140.161 120.963 140.076 121 139.969 121H139.201C139.084 121 138.993 120.968 138.929 120.904C138.876 120.84 138.839 120.797 138.817 120.776L133.521 112.696V120.632C133.521 120.739 133.484 120.829 133.409 120.904C133.345 120.968 133.255 121 133.137 121H132.369ZM146.311 121.16C145.5 121.16 144.823 121.005 144.279 120.696C143.735 120.387 143.319 119.96 143.031 119.416C142.743 118.861 142.583 118.232 142.551 117.528C142.54 117.347 142.535 117.117 142.535 116.84C142.535 116.552 142.54 116.323 142.551 116.152C142.583 115.437 142.743 114.808 143.031 114.264C143.329 113.72 143.751 113.293 144.295 112.984C144.839 112.675 145.511 112.52 146.311 112.52C147.111 112.52 147.783 112.675 148.327 112.984C148.871 113.293 149.287 113.72 149.575 114.264C149.873 114.808 150.039 115.437 150.071 116.152C150.081 116.323 150.087 116.552 150.087 116.84C150.087 117.117 150.081 117.347 150.071 117.528C150.039 118.232 149.879 118.861 149.591 119.416C149.303 119.96 148.887 120.387 148.343 120.696C147.799 121.005 147.121 121.16 146.311 121.16ZM146.311 119.928C146.972 119.928 147.5 119.72 147.895 119.304C148.289 118.877 148.503 118.259 148.535 117.448C148.545 117.288 148.551 117.085 148.551 116.84C148.551 116.595 148.545 116.392 148.535 116.232C148.503 115.421 148.289 114.808 147.895 114.392C147.5 113.965 146.972 113.752 146.311 113.752C145.649 113.752 145.116 113.965 144.711 114.392C144.316 114.808 144.108 115.421 144.087 116.232C144.076 116.392 144.071 116.595 144.071 116.84C144.071 117.085 144.076 117.288 144.087 117.448C144.108 118.259 144.316 118.877 144.711 119.304C145.116 119.72 145.649 119.928 146.311 119.928ZM155.13 121.16C154.544 121.16 154.037 121.059 153.61 120.856C153.184 120.643 152.832 120.36 152.554 120.008C152.288 119.645 152.085 119.235 151.946 118.776C151.818 118.317 151.744 117.832 151.722 117.32C151.712 117.149 151.706 116.989 151.706 116.84C151.706 116.691 151.712 116.531 151.722 116.36C151.744 115.859 151.818 115.379 151.946 114.92C152.085 114.461 152.288 114.051 152.554 113.688C152.832 113.325 153.184 113.043 153.61 112.84C154.037 112.627 154.544 112.52 155.13 112.52C155.76 112.52 156.282 112.632 156.698 112.856C157.114 113.08 157.456 113.357 157.722 113.688V110.008C157.722 109.901 157.754 109.816 157.818 109.752C157.893 109.677 157.984 109.64 158.09 109.64H158.858C158.965 109.64 159.05 109.677 159.114 109.752C159.189 109.816 159.226 109.901 159.226 110.008V120.632C159.226 120.739 159.189 120.829 159.114 120.904C159.05 120.968 158.965 121 158.858 121H158.138C158.021 121 157.93 120.968 157.866 120.904C157.802 120.829 157.77 120.739 157.77 120.632V119.96C157.504 120.301 157.157 120.589 156.73 120.824C156.304 121.048 155.77 121.16 155.13 121.16ZM155.466 119.864C156 119.864 156.426 119.741 156.746 119.496C157.066 119.251 157.306 118.941 157.466 118.568C157.626 118.184 157.712 117.795 157.722 117.4C157.733 117.229 157.738 117.027 157.738 116.792C157.738 116.547 157.733 116.339 157.722 116.168C157.712 115.795 157.621 115.427 157.45 115.064C157.29 114.701 157.045 114.403 156.714 114.168C156.394 113.933 155.978 113.816 155.466 113.816C154.922 113.816 154.49 113.939 154.17 114.184C153.85 114.419 153.621 114.733 153.482 115.128C153.344 115.512 153.264 115.928 153.242 116.376C153.232 116.685 153.232 116.995 153.242 117.304C153.264 117.752 153.344 118.173 153.482 118.568C153.621 118.952 153.85 119.267 154.17 119.512C154.49 119.747 154.922 119.864 155.466 119.864ZM164.918 121.16C163.819 121.16 162.945 120.824 162.294 120.152C161.643 119.469 161.286 118.541 161.222 117.368C161.211 117.229 161.206 117.053 161.206 116.84C161.206 116.616 161.211 116.435 161.222 116.296C161.265 115.539 161.441 114.877 161.75 114.312C162.059 113.736 162.481 113.293 163.014 112.984C163.558 112.675 164.193 112.52 164.918 112.52C165.729 112.52 166.406 112.691 166.95 113.032C167.505 113.373 167.926 113.859 168.214 114.488C168.502 115.117 168.646 115.853 168.646 116.696V116.968C168.646 117.085 168.609 117.176 168.534 117.24C168.47 117.304 168.385 117.336 168.278 117.336H162.742C162.742 117.347 162.742 117.368 162.742 117.4C162.742 117.432 162.742 117.459 162.742 117.48C162.763 117.917 162.859 118.328 163.03 118.712C163.201 119.085 163.446 119.389 163.766 119.624C164.086 119.859 164.47 119.976 164.918 119.976C165.302 119.976 165.622 119.917 165.878 119.8C166.134 119.683 166.342 119.555 166.502 119.416C166.662 119.267 166.769 119.155 166.822 119.08C166.918 118.941 166.993 118.861 167.046 118.84C167.099 118.808 167.185 118.792 167.302 118.792H168.07C168.177 118.792 168.262 118.824 168.326 118.888C168.401 118.941 168.433 119.021 168.422 119.128C168.411 119.288 168.326 119.485 168.166 119.72C168.006 119.944 167.777 120.168 167.478 120.392C167.179 120.616 166.817 120.803 166.39 120.952C165.963 121.091 165.473 121.16 164.918 121.16ZM162.742 116.232H167.126V116.184C167.126 115.704 167.035 115.277 166.854 114.904C166.683 114.531 166.433 114.237 166.102 114.024C165.771 113.8 165.377 113.688 164.918 113.688C164.459 113.688 164.065 113.8 163.734 114.024C163.414 114.237 163.169 114.531 162.998 114.904C162.827 115.277 162.742 115.704 162.742 116.184V116.232ZM170.815 121C170.708 121 170.618 120.968 170.543 120.904C170.479 120.829 170.447 120.739 170.447 120.632V119.48C170.447 119.373 170.479 119.288 170.543 119.224C170.618 119.149 170.708 119.112 170.815 119.112H171.967C172.074 119.112 172.159 119.149 172.223 119.224C172.298 119.288 172.335 119.373 172.335 119.48V120.632C172.335 120.739 172.298 120.829 172.223 120.904C172.159 120.968 172.074 121 171.967 121H170.815ZM173.058 124.04C172.952 124.04 172.866 124.003 172.802 123.928C172.728 123.864 172.69 123.779 172.69 123.672V123.128C172.69 123.021 172.728 122.931 172.802 122.856C172.866 122.792 172.952 122.76 173.058 122.76H173.282C173.666 122.76 173.949 122.685 174.13 122.536C174.312 122.397 174.429 122.211 174.482 121.976C174.546 121.741 174.578 121.475 174.578 121.176V113.048C174.578 112.941 174.61 112.856 174.674 112.792C174.749 112.717 174.84 112.68 174.946 112.68H175.73C175.837 112.68 175.922 112.717 175.986 112.792C176.061 112.856 176.098 112.941 176.098 113.048V121.192C176.098 121.757 176.008 122.253 175.826 122.68C175.656 123.107 175.373 123.437 174.978 123.672C174.584 123.917 174.045 124.04 173.362 124.04H173.058ZM174.818 111.128C174.712 111.128 174.621 111.096 174.546 111.032C174.482 110.957 174.45 110.867 174.45 110.76V109.896C174.45 109.789 174.482 109.704 174.546 109.64C174.621 109.565 174.712 109.528 174.818 109.528H175.842C175.949 109.528 176.04 109.565 176.114 109.64C176.189 109.704 176.226 109.789 176.226 109.896V110.76C176.226 110.867 176.189 110.957 176.114 111.032C176.04 111.096 175.949 111.128 175.842 111.128H174.818ZM181.361 121.16C180.764 121.16 180.252 121.085 179.825 120.936C179.398 120.787 179.052 120.605 178.785 120.392C178.518 120.179 178.316 119.965 178.177 119.752C178.049 119.539 177.98 119.368 177.969 119.24C177.958 119.123 177.996 119.032 178.081 118.968C178.166 118.904 178.252 118.872 178.337 118.872H179.041C179.105 118.872 179.153 118.883 179.185 118.904C179.228 118.915 179.281 118.957 179.345 119.032C179.484 119.181 179.638 119.331 179.809 119.48C179.98 119.629 180.188 119.752 180.433 119.848C180.689 119.944 181.004 119.992 181.377 119.992C181.921 119.992 182.369 119.891 182.721 119.688C183.073 119.475 183.249 119.165 183.249 118.76C183.249 118.493 183.174 118.28 183.025 118.12C182.886 117.96 182.63 117.816 182.257 117.688C181.894 117.56 181.393 117.427 180.753 117.288C180.113 117.139 179.606 116.957 179.233 116.744C178.86 116.52 178.593 116.259 178.433 115.96C178.273 115.651 178.193 115.304 178.193 114.92C178.193 114.525 178.31 114.147 178.545 113.784C178.78 113.411 179.121 113.107 179.569 112.872C180.028 112.637 180.598 112.52 181.281 112.52C181.836 112.52 182.31 112.589 182.705 112.728C183.1 112.867 183.425 113.043 183.681 113.256C183.937 113.459 184.129 113.661 184.257 113.864C184.385 114.067 184.454 114.237 184.465 114.376C184.476 114.483 184.444 114.573 184.369 114.648C184.294 114.712 184.209 114.744 184.113 114.744H183.441C183.366 114.744 183.302 114.728 183.249 114.696C183.206 114.664 183.164 114.627 183.121 114.584C183.014 114.445 182.886 114.307 182.737 114.168C182.598 114.029 182.412 113.917 182.177 113.832C181.953 113.736 181.654 113.688 181.281 113.688C180.748 113.688 180.348 113.8 180.081 114.024C179.814 114.248 179.681 114.531 179.681 114.872C179.681 115.075 179.74 115.256 179.857 115.416C179.974 115.576 180.198 115.72 180.529 115.848C180.86 115.976 181.35 116.115 182.001 116.264C182.705 116.403 183.26 116.589 183.665 116.824C184.07 117.059 184.358 117.331 184.529 117.64C184.7 117.949 184.785 118.307 184.785 118.712C184.785 119.16 184.652 119.571 184.385 119.944C184.129 120.317 183.745 120.616 183.233 120.84C182.732 121.053 182.108 121.16 181.361 121.16ZM190.927 124.328C190.82 124.328 190.73 124.291 190.655 124.216C190.591 124.152 190.559 124.067 190.559 123.96V107.032C190.559 106.925 190.591 106.84 190.655 106.776C190.73 106.701 190.82 106.664 190.927 106.664H191.551C191.658 106.664 191.743 106.701 191.807 106.776C191.882 106.84 191.919 106.925 191.919 107.032V123.96C191.919 124.067 191.882 124.152 191.807 124.216C191.743 124.291 191.658 124.328 191.551 124.328H190.927ZM198.791 121C198.674 121 198.583 120.968 198.519 120.904C198.455 120.829 198.423 120.739 198.423 120.632V110.184C198.423 110.067 198.455 109.976 198.519 109.912C198.583 109.837 198.674 109.8 198.791 109.8H202.855C203.645 109.8 204.327 109.928 204.903 110.184C205.49 110.44 205.943 110.824 206.263 111.336C206.583 111.837 206.743 112.467 206.743 113.224C206.743 113.981 206.583 114.611 206.263 115.112C205.943 115.613 205.49 115.992 204.903 116.248C204.327 116.504 203.645 116.632 202.855 116.632H200.023V120.632C200.023 120.739 199.986 120.829 199.911 120.904C199.847 120.968 199.757 121 199.639 121H198.791ZM200.007 115.288H202.775C203.565 115.288 204.157 115.112 204.551 114.76C204.946 114.408 205.143 113.896 205.143 113.224C205.143 112.563 204.951 112.051 204.567 111.688C204.183 111.325 203.586 111.144 202.775 111.144H200.007V115.288ZM209.937 124.04C209.852 124.04 209.777 124.008 209.713 123.944C209.649 123.88 209.617 123.805 209.617 123.72C209.617 123.677 209.622 123.635 209.633 123.592C209.644 123.549 209.665 123.496 209.697 123.432L210.929 120.504L207.873 113.288C207.82 113.16 207.793 113.069 207.793 113.016C207.793 112.92 207.825 112.84 207.889 112.776C207.953 112.712 208.033 112.68 208.129 112.68H208.913C209.02 112.68 209.105 112.707 209.169 112.76C209.233 112.813 209.276 112.877 209.297 112.952L211.729 118.776L214.225 112.952C214.257 112.877 214.3 112.813 214.353 112.76C214.417 112.707 214.508 112.68 214.625 112.68H215.377C215.473 112.68 215.553 112.712 215.617 112.776C215.681 112.84 215.713 112.915 215.713 113C215.713 113.053 215.686 113.149 215.633 113.288L211.089 123.768C211.057 123.843 211.009 123.907 210.945 123.96C210.892 124.013 210.806 124.04 210.689 124.04H209.937ZM220.541 121C219.944 121 219.459 120.888 219.085 120.664C218.712 120.429 218.44 120.104 218.269 119.688C218.099 119.261 218.013 118.76 218.013 118.184V113.96H216.765C216.659 113.96 216.568 113.928 216.493 113.864C216.429 113.789 216.397 113.699 216.397 113.592V113.048C216.397 112.941 216.429 112.856 216.493 112.792C216.568 112.717 216.659 112.68 216.765 112.68H218.013V110.008C218.013 109.901 218.045 109.816 218.109 109.752C218.184 109.677 218.275 109.64 218.381 109.64H219.133C219.24 109.64 219.325 109.677 219.389 109.752C219.464 109.816 219.501 109.901 219.501 110.008V112.68H221.485C221.592 112.68 221.677 112.717 221.741 112.792C221.816 112.856 221.853 112.941 221.853 113.048V113.592C221.853 113.699 221.816 113.789 221.741 113.864C221.677 113.928 221.592 113.96 221.485 113.96H219.501V118.072C219.501 118.573 219.587 118.968 219.757 119.256C219.928 119.544 220.232 119.688 220.669 119.688H221.645C221.752 119.688 221.837 119.725 221.901 119.8C221.976 119.864 222.013 119.949 222.013 120.056V120.632C222.013 120.739 221.976 120.829 221.901 120.904C221.837 120.968 221.752 121 221.645 121H220.541ZM223.927 121C223.821 121 223.73 120.968 223.655 120.904C223.591 120.829 223.559 120.739 223.559 120.632V110.008C223.559 109.901 223.591 109.816 223.655 109.752C223.73 109.677 223.821 109.64 223.927 109.64H224.727C224.845 109.64 224.935 109.677 224.999 109.752C225.063 109.816 225.095 109.901 225.095 110.008V113.736C225.383 113.373 225.735 113.08 226.151 112.856C226.567 112.632 227.095 112.52 227.735 112.52C228.429 112.52 229.015 112.675 229.495 112.984C229.986 113.283 230.354 113.704 230.599 114.248C230.855 114.781 230.983 115.405 230.983 116.12V120.632C230.983 120.739 230.951 120.829 230.887 120.904C230.823 120.968 230.733 121 230.615 121H229.815C229.709 121 229.618 120.968 229.543 120.904C229.479 120.829 229.447 120.739 229.447 120.632V116.2C229.447 115.453 229.266 114.872 228.903 114.456C228.541 114.029 228.007 113.816 227.303 113.816C226.642 113.816 226.109 114.029 225.703 114.456C225.298 114.872 225.095 115.453 225.095 116.2V120.632C225.095 120.739 225.063 120.829 224.999 120.904C224.935 120.968 224.845 121 224.727 121H223.927ZM236.701 121.16C235.891 121.16 235.213 121.005 234.669 120.696C234.125 120.387 233.709 119.96 233.421 119.416C233.133 118.861 232.973 118.232 232.941 117.528C232.931 117.347 232.925 117.117 232.925 116.84C232.925 116.552 232.931 116.323 232.941 116.152C232.973 115.437 233.133 114.808 233.421 114.264C233.72 113.72 234.141 113.293 234.685 112.984C235.229 112.675 235.901 112.52 236.701 112.52C237.501 112.52 238.173 112.675 238.717 112.984C239.261 113.293 239.677 113.72 239.965 114.264C240.264 114.808 240.429 115.437 240.461 116.152C240.472 116.323 240.477 116.552 240.477 116.84C240.477 117.117 240.472 117.347 240.461 117.528C240.429 118.232 240.269 118.861 239.981 119.416C239.693 119.96 239.277 120.387 238.733 120.696C238.189 121.005 237.512 121.16 236.701 121.16ZM236.701 119.928C237.363 119.928 237.891 119.72 238.285 119.304C238.68 118.877 238.893 118.259 238.925 117.448C238.936 117.288 238.941 117.085 238.941 116.84C238.941 116.595 238.936 116.392 238.925 116.232C238.893 115.421 238.68 114.808 238.285 114.392C237.891 113.965 237.363 113.752 236.701 113.752C236.04 113.752 235.507 113.965 235.101 114.392C234.707 114.808 234.499 115.421 234.477 116.232C234.467 116.392 234.461 116.595 234.461 116.84C234.461 117.085 234.467 117.288 234.477 117.448C234.499 118.259 234.707 118.877 235.101 119.304C235.507 119.72 236.04 119.928 236.701 119.928ZM242.849 121C242.742 121 242.652 120.968 242.577 120.904C242.513 120.829 242.481 120.739 242.481 120.632V113.048C242.481 112.941 242.513 112.856 242.577 112.792C242.652 112.717 242.742 112.68 242.849 112.68H243.601C243.708 112.68 243.793 112.717 243.857 112.792C243.932 112.856 243.969 112.941 243.969 113.048V113.752C244.246 113.389 244.593 113.096 245.009 112.872C245.436 112.637 245.98 112.52 246.641 112.52C247.334 112.52 247.921 112.675 248.401 112.984C248.892 113.283 249.26 113.704 249.505 114.248C249.75 114.781 249.873 115.405 249.873 116.12V120.632C249.873 120.739 249.841 120.829 249.777 120.904C249.713 120.968 249.628 121 249.521 121H248.721C248.614 121 248.524 120.968 248.449 120.904C248.385 120.829 248.353 120.739 248.353 120.632V116.2C248.353 115.453 248.172 114.872 247.809 114.456C247.446 114.029 246.913 113.816 246.209 113.816C245.548 113.816 245.014 114.029 244.609 114.456C244.214 114.872 244.017 115.453 244.017 116.2V120.632C244.017 120.739 243.98 120.829 243.905 120.904C243.841 120.968 243.756 121 243.649 121H242.849Z" fill="white"/>
<path d="M98.2 62C98.0533 62 97.94 61.96 97.86 61.88C97.78 61.7867 97.74 61.6733 97.74 61.54V48.48C97.74 48.3333 97.78 48.22 97.86 48.14C97.94 48.0467 98.0533 48 98.2 48H103.68C104.68 48 105.493 48.1667 106.12 48.5C106.76 48.82 107.227 49.26 107.52 49.82C107.827 50.38 107.98 51.0067 107.98 51.7C107.98 52.2467 107.887 52.72 107.7 53.12C107.527 53.5067 107.307 53.8267 107.04 54.08C106.773 54.32 106.513 54.5067 106.26 54.64C106.78 54.8933 107.24 55.3067 107.64 55.88C108.053 56.4533 108.26 57.1467 108.26 57.96C108.26 58.6933 108.093 59.3667 107.76 59.98C107.427 60.5933 106.927 61.0867 106.26 61.46C105.607 61.82 104.793 62 103.82 62H98.2ZM99.7 60.38H103.56C104.427 60.38 105.093 60.1467 105.56 59.68C106.027 59.2133 106.26 58.64 106.26 57.96C106.26 57.2533 106.027 56.6733 105.56 56.22C105.093 55.7533 104.427 55.52 103.56 55.52H99.7V60.38ZM99.7 53.92H103.38C104.233 53.92 104.88 53.7267 105.32 53.34C105.76 52.94 105.98 52.4 105.98 51.72C105.98 51.04 105.76 50.52 105.32 50.16C104.88 49.8 104.233 49.62 103.38 49.62H99.7V53.92ZM113.739 62.2C113.073 62.2 112.466 62.0667 111.919 61.8C111.373 61.5333 110.933 61.1733 110.599 60.72C110.266 60.2667 110.099 59.7533 110.099 59.18C110.099 58.26 110.473 57.5267 111.219 56.98C111.966 56.4333 112.939 56.0733 114.139 55.9L117.119 55.48V54.9C117.119 54.26 116.933 53.76 116.559 53.4C116.199 53.04 115.606 52.86 114.779 52.86C114.179 52.86 113.693 52.98 113.319 53.22C112.959 53.46 112.706 53.7667 112.559 54.14C112.479 54.34 112.339 54.44 112.139 54.44H111.239C111.093 54.44 110.979 54.4 110.899 54.32C110.833 54.2267 110.799 54.12 110.799 54C110.799 53.8 110.873 53.5533 111.019 53.26C111.179 52.9667 111.419 52.68 111.739 52.4C112.059 52.12 112.466 51.8867 112.959 51.7C113.466 51.5 114.079 51.4 114.799 51.4C115.599 51.4 116.273 51.5067 116.819 51.72C117.366 51.92 117.793 52.1933 118.099 52.54C118.419 52.8867 118.646 53.28 118.779 53.72C118.926 54.16 118.999 54.6067 118.999 55.06V61.54C118.999 61.6733 118.953 61.7867 118.859 61.88C118.779 61.96 118.673 62 118.539 62H117.619C117.473 62 117.359 61.96 117.279 61.88C117.199 61.7867 117.159 61.6733 117.159 61.54V60.68C116.986 60.92 116.753 61.16 116.459 61.4C116.166 61.6267 115.799 61.82 115.359 61.98C114.919 62.1267 114.379 62.2 113.739 62.2ZM114.159 60.7C114.706 60.7 115.206 60.5867 115.659 60.36C116.113 60.12 116.466 59.7533 116.719 59.26C116.986 58.7667 117.119 58.1467 117.119 57.4V56.84L114.799 57.18C113.853 57.3133 113.139 57.54 112.659 57.86C112.179 58.1667 111.939 58.56 111.939 59.04C111.939 59.4133 112.046 59.7267 112.259 59.98C112.486 60.22 112.766 60.4 113.099 60.52C113.446 60.64 113.799 60.7 114.159 60.7ZM126.075 62.2C125.128 62.2 124.308 62.02 123.615 61.66C122.935 61.2867 122.408 60.76 122.035 60.08C121.661 59.3867 121.461 58.56 121.435 57.6C121.421 57.4 121.415 57.1333 121.415 56.8C121.415 56.4667 121.421 56.2 121.435 56C121.461 55.04 121.661 54.22 122.035 53.54C122.408 52.8467 122.935 52.32 123.615 51.96C124.308 51.5867 125.128 51.4 126.075 51.4C126.848 51.4 127.508 51.5067 128.055 51.72C128.615 51.9333 129.075 52.2067 129.435 52.54C129.795 52.8733 130.061 53.2333 130.235 53.62C130.421 54.0067 130.521 54.3733 130.535 54.72C130.548 54.8533 130.508 54.96 130.415 55.04C130.321 55.12 130.208 55.16 130.075 55.16H129.115C128.981 55.16 128.881 55.1333 128.815 55.08C128.748 55.0133 128.681 54.9067 128.615 54.76C128.375 54.1067 128.048 53.6467 127.635 53.38C127.221 53.1133 126.708 52.98 126.095 52.98C125.295 52.98 124.641 53.2267 124.135 53.72C123.641 54.2133 123.375 55.0067 123.335 56.1C123.321 56.58 123.321 57.0467 123.335 57.5C123.375 58.6067 123.641 59.4067 124.135 59.9C124.641 60.38 125.295 60.62 126.095 60.62C126.708 60.62 127.221 60.4867 127.635 60.22C128.048 59.9533 128.375 59.4933 128.615 58.84C128.681 58.6933 128.748 58.5933 128.815 58.54C128.881 58.4733 128.981 58.44 129.115 58.44H130.075C130.208 58.44 130.321 58.48 130.415 58.56C130.508 58.64 130.548 58.7467 130.535 58.88C130.521 59.16 130.461 59.4467 130.355 59.74C130.248 60.0333 130.075 60.3333 129.835 60.64C129.608 60.9333 129.321 61.2 128.975 61.44C128.628 61.6667 128.208 61.8533 127.715 62C127.235 62.1333 126.688 62.2 126.075 62.2ZM133.39 62C133.256 62 133.143 61.96 133.05 61.88C132.97 61.7867 132.93 61.6733 132.93 61.54V48.26C132.93 48.1267 132.97 48.02 133.05 47.94C133.143 47.8467 133.256 47.8 133.39 47.8H134.33C134.463 47.8 134.57 47.8467 134.65 47.94C134.743 48.02 134.79 48.1267 134.79 48.26V55.22L138.73 51.94C138.89 51.8067 139.01 51.72 139.09 51.68C139.183 51.6267 139.33 51.6 139.53 51.6H140.59C140.71 51.6 140.81 51.64 140.89 51.72C140.97 51.8 141.01 51.9 141.01 52.02C141.01 52.0733 140.99 52.1333 140.95 52.2C140.923 52.2667 140.863 52.3333 140.77 52.4L136.15 56.24L141.27 61.22C141.43 61.3533 141.51 61.4733 141.51 61.58C141.51 61.7 141.47 61.8 141.39 61.88C141.31 61.96 141.21 62 141.09 62H140.05C139.85 62 139.703 61.98 139.61 61.94C139.516 61.8867 139.396 61.7933 139.25 61.66L134.79 57.4V61.54C134.79 61.6733 134.743 61.7867 134.65 61.88C134.57 61.96 134.463 62 134.33 62H133.39ZM143.942 62C143.796 62 143.682 61.96 143.602 61.88C143.522 61.7867 143.482 61.6733 143.482 61.54V48.48C143.482 48.3333 143.522 48.22 143.602 48.14C143.682 48.0467 143.796 48 143.942 48H152.202C152.349 48 152.462 48.0467 152.542 48.14C152.622 48.22 152.662 48.3333 152.662 48.48V49.24C152.662 49.3867 152.622 49.5 152.542 49.58C152.462 49.66 152.349 49.7 152.202 49.7H145.402V54.08H151.762C151.909 54.08 152.022 54.1267 152.102 54.22C152.182 54.3 152.222 54.4133 152.222 54.56V55.3C152.222 55.4333 152.182 55.5467 152.102 55.64C152.022 55.72 151.909 55.76 151.762 55.76H145.402V60.3H152.362C152.509 60.3 152.622 60.34 152.702 60.42C152.782 60.5 152.822 60.6133 152.822 60.76V61.54C152.822 61.6733 152.782 61.7867 152.702 61.88C152.622 61.96 152.509 62 152.362 62H143.942ZM155.811 62C155.678 62 155.564 61.96 155.471 61.88C155.391 61.7867 155.351 61.6733 155.351 61.54V52.06C155.351 51.9267 155.391 51.82 155.471 51.74C155.564 51.6467 155.678 51.6 155.811 51.6H156.751C156.884 51.6 156.991 51.6467 157.071 51.74C157.164 51.82 157.211 51.9267 157.211 52.06V52.94C157.558 52.4867 157.991 52.12 158.511 51.84C159.044 51.5467 159.724 51.4 160.551 51.4C161.418 51.4 162.151 51.5933 162.751 51.98C163.364 52.3533 163.824 52.88 164.131 53.56C164.438 54.2267 164.591 55.0067 164.591 55.9V61.54C164.591 61.6733 164.551 61.7867 164.471 61.88C164.391 61.96 164.284 62 164.151 62H163.151C163.018 62 162.904 61.96 162.811 61.88C162.731 61.7867 162.691 61.6733 162.691 61.54V56C162.691 55.0667 162.464 54.34 162.011 53.82C161.558 53.2867 160.891 53.02 160.011 53.02C159.184 53.02 158.518 53.2867 158.011 53.82C157.518 54.34 157.271 55.0667 157.271 56V61.54C157.271 61.6733 157.224 61.7867 157.131 61.88C157.051 61.96 156.944 62 156.811 62H155.811ZM171.28 62.2C170.547 62.2 169.913 62.0733 169.38 61.82C168.847 61.5533 168.407 61.2 168.06 60.76C167.727 60.3067 167.473 59.7933 167.3 59.22C167.14 58.6467 167.047 58.04 167.02 57.4C167.007 57.1867 167 56.9867 167 56.8C167 56.6133 167.007 56.4133 167.02 56.2C167.047 55.5733 167.14 54.9733 167.3 54.4C167.473 53.8267 167.727 53.3133 168.06 52.86C168.407 52.4067 168.847 52.0533 169.38 51.8C169.913 51.5333 170.547 51.4 171.28 51.4C172.067 51.4 172.72 51.54 173.24 51.82C173.76 52.1 174.187 52.4467 174.52 52.86V48.26C174.52 48.1267 174.56 48.02 174.64 47.94C174.733 47.8467 174.847 47.8 174.98 47.8H175.94C176.073 47.8 176.18 47.8467 176.26 47.94C176.353 48.02 176.4 48.1267 176.4 48.26V61.54C176.4 61.6733 176.353 61.7867 176.26 61.88C176.18 61.96 176.073 62 175.94 62H175.04C174.893 62 174.78 61.96 174.7 61.88C174.62 61.7867 174.58 61.6733 174.58 61.54V60.7C174.247 61.1267 173.813 61.4867 173.28 61.78C172.747 62.06 172.08 62.2 171.28 62.2ZM171.7 60.58C172.367 60.58 172.9 60.4267 173.3 60.12C173.7 59.8133 174 59.4267 174.2 58.96C174.4 58.48 174.507 57.9933 174.52 57.5C174.533 57.2867 174.54 57.0333 174.54 56.74C174.54 56.4333 174.533 56.1733 174.52 55.96C174.507 55.4933 174.393 55.0333 174.18 54.58C173.98 54.1267 173.673 53.7533 173.26 53.46C172.86 53.1667 172.34 53.02 171.7 53.02C171.02 53.02 170.48 53.1733 170.08 53.48C169.68 53.7733 169.393 54.1667 169.22 54.66C169.047 55.14 168.947 55.66 168.92 56.22C168.907 56.6067 168.907 56.9933 168.92 57.38C168.947 57.94 169.047 58.4667 169.22 58.96C169.393 59.44 169.68 59.8333 170.08 60.14C170.48 60.4333 171.02 60.58 171.7 60.58Z" fill="#3C3842"/>
<defs>
<linearGradient id="paint0_linear_23_36" x1="0" y1="116" x2="273" y2="116" gradientUnits="userSpaceOnUse">
<stop stop-color="#3603BC" stop-opacity="0.5"/>
<stop offset="1" stop-color="#8B5CF6"/>
</linearGradient>
</defs>
</svg>
