<svg width="216" height="84" viewBox="0 0 216 84" fill="none" xmlns="http://www.w3.org/2000/svg">
<path d="M89.1301 39.6603C90.0175 41.2834 90.0175 43.2453 89.1301 44.8684L69.4877 80.7959C68.5331 82.5419 66.6993 83.6283 64.7063 83.6283L25.9428 83.6283C23.9499 83.6283 22.116 82.5419 21.1614 80.7959L1.51901 44.8684C0.631644 43.2453 0.631644 41.2834 1.51901 39.6603L21.1614 3.7328C22.116 1.98672 23.9499 0.900391 25.9428 0.900391L64.7063 0.900392C66.6993 0.900392 68.5331 1.98672 69.4877 3.7328L89.1301 39.6603Z" fill="url(#paint0_linear_1_38)"/>
<path d="M45.252 16.6299C50.9648 16.6299 55.622 21.2609 55.6222 26.9736V31.9912H60.6241C66.3322 31.9914 70.9591 36.619 70.9591 42.3271C70.959 48.0352 66.3322 52.6629 60.6241 52.6631H55.6222V57.5537C55.6222 63.2666 50.9649 67.8974 45.252 67.8975C39.5391 67.8975 34.8819 63.2666 34.8819 57.5537V52.6631H30.0274C24.3192 52.6631 19.6916 48.0354 19.6915 42.3271C19.6915 36.6189 24.3192 31.9912 30.0274 31.9912H34.8819V26.9736C34.8821 21.2609 39.5393 16.6299 45.252 16.6299ZM53.4649 43.6074C52.4811 43.3363 51.4832 43.9351 50.9522 44.8066C50.5249 45.5084 49.9682 46.1301 49.3067 46.6357C48.1515 47.5188 46.7389 48.0007 45.2843 48.0078C43.8296 48.0149 42.4119 47.5475 41.2481 46.6758C40.5816 46.1765 40.0193 45.56 39.5851 44.8623C39.0458 43.9959 38.0428 43.407 37.0616 43.6875C36.0794 43.9684 35.4966 45.0036 35.9483 45.9199C36.6651 47.3737 37.7177 48.6472 39.0294 49.6299C40.8381 50.9848 43.0409 51.7121 45.3018 51.7012C47.5628 51.6902 49.7583 50.9417 51.5538 49.5693C52.8561 48.5739 53.8971 47.29 54.5997 45.8291C55.0424 44.9085 54.4496 43.8789 53.4649 43.6074Z" fill="white"/>
<path d="M108.101 63.2231C106.768 63.2231 105.476 63.0465 104.224 62.6933C102.988 62.324 101.992 61.8504 101.238 61.2725L102.562 58.3347C103.285 58.8644 104.144 59.2899 105.139 59.6109C106.134 59.932 107.13 60.0926 108.125 60.0926C109.233 60.0926 110.051 59.932 110.581 59.6109C111.111 59.2738 111.376 58.8323 111.376 58.2865C111.376 57.8852 111.215 57.5561 110.894 57.2992C110.589 57.0263 110.188 56.8096 109.69 56.649C109.209 56.4885 108.55 56.3119 107.716 56.1192C106.431 55.8142 105.38 55.5092 104.561 55.2042C103.742 54.8991 103.036 54.4095 102.442 53.7352C101.864 53.061 101.575 52.162 101.575 51.0382C101.575 50.0589 101.84 49.176 102.37 48.3893C102.899 47.5866 103.694 46.9525 104.754 46.487C105.829 46.0214 107.138 45.7886 108.679 45.7886C109.754 45.7886 110.806 45.917 111.833 46.1739C112.861 46.4308 113.76 46.8 114.53 47.2816L113.326 50.2435C111.769 49.3606 110.212 48.9191 108.655 48.9191C107.563 48.9191 106.752 49.0957 106.223 49.4489C105.709 49.8021 105.452 50.2676 105.452 50.8456C105.452 51.4235 105.749 51.857 106.343 52.1459C106.953 52.4188 107.876 52.6917 109.112 52.9647C110.397 53.2697 111.448 53.5747 112.267 53.8797C113.086 54.1848 113.784 54.6664 114.362 55.3246C114.956 55.9828 115.253 56.8738 115.253 57.9975C115.253 58.9608 114.98 59.8437 114.434 60.6464C113.904 61.4331 113.102 62.0591 112.026 62.5247C110.95 62.9903 109.642 63.2231 108.101 63.2231ZM122.879 49.786C124.886 49.786 126.427 50.2676 127.503 51.2309C128.578 52.178 129.116 53.6148 129.116 55.5413V62.9341H125.6V61.3207C124.894 62.5247 123.577 63.1267 121.651 63.1267C120.656 63.1267 119.789 62.9582 119.05 62.621C118.328 62.2839 117.774 61.8183 117.389 61.2244C117.003 60.6304 116.811 59.9561 116.811 59.2016C116.811 57.9975 117.26 57.0504 118.159 56.36C119.074 55.6697 120.479 55.3246 122.373 55.3246H125.359C125.359 54.5058 125.111 53.8797 124.613 53.4463C124.115 52.9968 123.369 52.772 122.373 52.772C121.683 52.772 121.001 52.8844 120.327 53.1091C119.668 53.3178 119.106 53.6068 118.641 53.9761L117.292 51.3513C117.999 50.8536 118.842 50.4683 119.821 50.1954C120.816 49.9225 121.836 49.786 122.879 49.786ZM122.59 60.5983C123.232 60.5983 123.802 60.4538 124.3 60.1648C124.797 59.8598 125.151 59.4183 125.359 58.8404V57.5159H122.783C121.242 57.5159 120.471 58.0216 120.471 59.033C120.471 59.5146 120.656 59.8999 121.025 60.1889C121.41 60.4618 121.932 60.5983 122.59 60.5983ZM145.568 49.9787V62.9341H142.004V61.3929C141.506 61.9548 140.912 62.3883 140.222 62.6933C139.531 62.9822 138.785 63.1267 137.982 63.1267C136.28 63.1267 134.932 62.6371 133.937 61.6578C132.941 60.6785 132.444 59.2257 132.444 57.2992V49.9787H136.2V56.7453C136.2 58.8323 137.075 59.8758 138.825 59.8758C139.724 59.8758 140.446 59.5869 140.992 59.0089C141.538 58.4149 141.811 57.54 141.811 56.3841V49.9787H145.568ZM162.244 45.0662V62.9341H158.656V61.4411C157.725 62.5648 156.376 63.1267 154.61 63.1267C153.39 63.1267 152.283 62.8538 151.287 62.308C150.308 61.7622 149.537 60.9835 148.976 59.9722C148.414 58.9608 148.133 57.7888 148.133 56.4564C148.133 55.1239 148.414 53.952 148.976 52.9406C149.537 51.9292 150.308 51.1506 151.287 50.6048C152.283 50.0589 153.39 49.786 154.61 49.786C156.264 49.786 157.556 50.3078 158.487 51.3513V45.0662H162.244ZM155.261 60.0444C156.208 60.0444 156.994 59.7233 157.621 59.0812C158.247 58.423 158.56 57.548 158.56 56.4564C158.56 55.3647 158.247 54.4978 157.621 53.8557C156.994 53.1974 156.208 52.8683 155.261 52.8683C154.297 52.8683 153.503 53.1974 152.877 53.8557C152.251 54.4978 151.938 55.3647 151.938 56.4564C151.938 57.548 152.251 58.423 152.877 59.0812C153.503 59.7233 154.297 60.0444 155.261 60.0444ZM170.946 49.786C172.953 49.786 174.494 50.2676 175.57 51.2309C176.646 52.178 177.183 53.6148 177.183 55.5413V62.9341H173.668V61.3207C172.961 62.5247 171.645 63.1267 169.718 63.1267C168.723 63.1267 167.856 62.9582 167.118 62.621C166.395 62.2839 165.841 61.8183 165.456 61.2244C165.071 60.6304 164.878 59.9561 164.878 59.2016C164.878 57.9975 165.328 57.0504 166.227 56.36C167.142 55.6697 168.546 55.3246 170.441 55.3246H173.427C173.427 54.5058 173.178 53.8797 172.68 53.4463C172.183 52.9968 171.436 52.772 170.441 52.772C169.75 52.772 169.068 52.8844 168.394 53.1091C167.736 53.3178 167.174 53.6068 166.708 53.9761L165.36 51.3513C166.066 50.8536 166.909 50.4683 167.888 50.1954C168.884 49.9225 169.903 49.786 170.946 49.786ZM170.657 60.5983C171.3 60.5983 171.87 60.4538 172.367 60.1648C172.865 59.8598 173.218 59.4183 173.427 58.8404V57.5159H170.85C169.309 57.5159 168.538 58.0216 168.538 59.033C168.538 59.5146 168.723 59.8999 169.092 60.1889C169.478 60.4618 169.999 60.5983 170.657 60.5983ZM172.391 44.8495H176.437L172.078 48.3171H169.14L172.391 44.8495ZM193.207 49.9787L187.741 62.9341H183.864L178.422 49.9787H182.299L185.887 58.7922L189.595 49.9787H193.207ZM207.078 56.5045C207.078 56.5527 207.054 56.8898 207.006 57.5159H197.205C197.381 58.3186 197.799 58.9527 198.457 59.4183C199.115 59.8839 199.934 60.1166 200.913 60.1166C201.587 60.1166 202.181 60.0203 202.695 59.8277C203.225 59.619 203.715 59.2979 204.164 58.8644L206.163 61.0317C204.943 62.4284 203.161 63.1267 200.817 63.1267C199.356 63.1267 198.064 62.8458 196.94 62.2839C195.816 61.706 194.949 60.9113 194.339 59.8999C193.729 58.8885 193.424 57.7407 193.424 56.4564C193.424 55.1881 193.721 54.0483 194.315 53.0369C194.925 52.0095 195.752 51.2148 196.795 50.6529C197.855 50.075 199.035 49.786 200.335 49.786C201.604 49.786 202.751 50.0589 203.779 50.6048C204.806 51.1506 205.609 51.9372 206.187 52.9647C206.781 53.9761 207.078 55.156 207.078 56.5045ZM200.359 52.6275C199.508 52.6275 198.794 52.8683 198.216 53.35C197.638 53.8316 197.285 54.4898 197.157 55.3246H203.538C203.41 54.5058 203.056 53.8557 202.478 53.374C201.9 52.8764 201.194 52.6275 200.359 52.6275ZM209.579 45.0662H213.335V62.9341H209.579V45.0662Z" fill="white"/>
<path d="M109.658 38.4155C107.989 38.4155 106.479 38.0462 105.131 37.3078C103.798 36.5693 102.747 35.5499 101.976 34.2495C101.222 32.9331 100.845 31.4642 100.845 29.8427C100.845 28.2213 101.222 26.7604 101.976 25.4601C102.747 24.1436 103.807 23.1162 105.155 22.3777C106.504 21.6392 108.013 21.27 109.682 21.27C110.934 21.27 112.09 21.4787 113.15 21.8961C114.209 22.3135 115.108 22.9236 115.847 23.7262L114.715 24.858C113.399 23.5256 111.737 22.8593 109.73 22.8593C108.398 22.8593 107.186 23.1644 106.094 23.7744C105.003 24.3844 104.144 25.2192 103.518 26.2788C102.907 27.3383 102.602 28.5263 102.602 29.8427C102.602 31.1592 102.907 32.3471 103.518 33.4067C104.144 34.4662 105.003 35.301 106.094 35.9111C107.186 36.5211 108.398 36.8262 109.73 36.8262C111.753 36.8262 113.415 36.1519 114.715 34.8034L115.847 35.9352C115.108 36.7379 114.201 37.3559 113.126 37.7894C112.066 38.2068 110.91 38.4155 109.658 38.4155ZM119.284 25.6045H120.994V38.271H119.284V25.6045ZM120.151 22.8353C119.798 22.8353 119.501 22.7149 119.26 22.474C119.019 22.2332 118.899 21.9443 118.899 21.6071C118.899 21.2861 119.019 21.0051 119.26 20.7643C119.501 20.5235 119.798 20.4031 120.151 20.4031C120.504 20.4031 120.801 20.5235 121.042 20.7643C121.283 20.9891 121.403 21.262 121.403 21.5831C121.403 21.9362 121.283 22.2332 121.042 22.474C120.801 22.7149 120.504 22.8353 120.151 22.8353ZM137.31 20.4031V38.271H135.673V35.7666C135.159 36.6175 134.477 37.2676 133.626 37.7171C132.791 38.1666 131.844 38.3914 130.784 38.3914C129.596 38.3914 128.521 38.1185 127.557 37.5727C126.594 37.0268 125.84 36.2643 125.294 35.285C124.748 34.3057 124.475 33.19 124.475 31.9378C124.475 30.6856 124.748 29.5698 125.294 28.5905C125.84 27.6113 126.594 26.8567 127.557 26.327C128.521 25.7811 129.596 25.5082 130.784 25.5082C131.812 25.5082 132.735 25.7249 133.554 26.1584C134.388 26.5758 135.071 27.1939 135.6 28.0126V20.4031H137.31ZM130.929 36.8743C131.812 36.8743 132.606 36.6736 133.313 36.2723C134.035 35.8549 134.597 35.2689 134.998 34.5144C135.416 33.7599 135.624 32.901 135.624 31.9378C135.624 30.9745 135.416 30.1157 134.998 29.3611C134.597 28.6066 134.035 28.0287 133.313 27.6273C132.606 27.2099 131.812 27.0012 130.929 27.0012C130.03 27.0012 129.219 27.2099 128.497 27.6273C127.79 28.0287 127.228 28.6066 126.811 29.3611C126.41 30.1157 126.209 30.9745 126.209 31.9378C126.209 32.901 126.41 33.7599 126.811 34.5144C127.228 35.2689 127.79 35.8549 128.497 36.2723C129.219 36.6736 130.03 36.8743 130.929 36.8743ZM146.503 25.5082C148.156 25.5082 149.424 25.9256 150.307 26.7604C151.19 27.5792 151.632 28.7992 151.632 30.4207V38.271H149.994V36.2964C149.609 36.9546 149.039 37.4683 148.285 37.8375C147.546 38.2068 146.663 38.3914 145.636 38.3914C144.223 38.3914 143.099 38.0543 142.264 37.38C141.43 36.7057 141.012 35.8148 141.012 34.707C141.012 33.6314 141.397 32.7645 142.168 32.1063C142.955 31.4481 144.199 31.119 145.901 31.119H149.922V30.3484C149.922 29.2568 149.617 28.43 149.007 27.8681C148.397 27.2902 147.506 27.0012 146.334 27.0012C145.531 27.0012 144.761 27.1377 144.022 27.4106C143.284 27.6675 142.65 28.0287 142.12 28.4942L141.349 27.2179C141.991 26.6721 142.762 26.2547 143.661 25.9657C144.56 25.6607 145.507 25.5082 146.503 25.5082ZM145.901 37.0429C146.864 37.0429 147.691 36.8262 148.381 36.3927C149.071 35.9432 149.585 35.301 149.922 34.4662V32.3953H145.949C143.781 32.3953 142.698 33.1498 142.698 34.6589C142.698 35.3974 142.979 35.9833 143.541 36.4168C144.103 36.8342 144.889 37.0429 145.901 37.0429ZM167.881 20.4031V38.271H166.244V35.7666C165.73 36.6175 165.048 37.2676 164.197 37.7171C163.362 38.1666 162.415 38.3914 161.355 38.3914C160.167 38.3914 159.092 38.1185 158.129 37.5727C157.165 37.0268 156.411 36.2643 155.865 35.285C155.319 34.3057 155.046 33.19 155.046 31.9378C155.046 30.6856 155.319 29.5698 155.865 28.5905C156.411 27.6113 157.165 26.8567 158.129 26.327C159.092 25.7811 160.167 25.5082 161.355 25.5082C162.383 25.5082 163.306 25.7249 164.125 26.1584C164.96 26.5758 165.642 27.1939 166.172 28.0126V20.4031H167.881ZM161.5 36.8743C162.383 36.8743 163.178 36.6736 163.884 36.2723C164.606 35.8549 165.168 35.2689 165.57 34.5144C165.987 33.7599 166.196 32.901 166.196 31.9378C166.196 30.9745 165.987 30.1157 165.57 29.3611C165.168 28.6066 164.606 28.0287 163.884 27.6273C163.178 27.2099 162.383 27.0012 161.5 27.0012C160.601 27.0012 159.79 27.2099 159.068 27.6273C158.361 28.0287 157.8 28.6066 157.382 29.3611C156.981 30.1157 156.78 30.9745 156.78 31.9378C156.78 32.901 156.981 33.7599 157.382 34.5144C157.8 35.2689 158.361 35.8549 159.068 36.2723C159.79 36.6736 160.601 36.8743 161.5 36.8743ZM183.672 32.4675H173.076C173.173 33.784 173.678 34.8515 174.593 35.6703C175.509 36.473 176.664 36.8743 178.061 36.8743C178.848 36.8743 179.57 36.7379 180.228 36.4649C180.887 36.176 181.456 35.7586 181.938 35.2127L182.901 36.3205C182.339 36.9947 181.633 37.5084 180.782 37.8616C179.947 38.2148 179.024 38.3914 178.013 38.3914C176.713 38.3914 175.557 38.1185 174.545 37.5727C173.55 37.0108 172.771 36.2402 172.209 35.2609C171.648 34.2816 171.367 33.1739 171.367 31.9378C171.367 30.7016 171.632 29.5939 172.161 28.6146C172.707 27.6353 173.446 26.8728 174.377 26.327C175.324 25.7811 176.383 25.5082 177.555 25.5082C178.727 25.5082 179.779 25.7811 180.71 26.327C181.641 26.8728 182.372 27.6353 182.901 28.6146C183.431 29.5779 183.696 30.6856 183.696 31.9378L183.672 32.4675ZM177.555 26.9771C176.335 26.9771 175.308 27.3705 174.473 28.1571C173.654 28.9277 173.189 29.9391 173.076 31.1913H182.058C181.946 29.9391 181.473 28.9277 180.638 28.1571C179.819 27.3705 178.792 26.9771 177.555 26.9771Z" fill="white"/>
<defs>
<linearGradient id="paint0_linear_1_38" x1="71.7354" y1="0.900392" x2="18.269" y2="78.5688" gradientUnits="userSpaceOnUse">
<stop offset="0.588542" stop-color="#37DF7A"/>
<stop offset="1" stop-color="#42CA79"/>
</linearGradient>
</defs>
</svg>
