<svg width="328" height="95" viewBox="0 0 328 95" fill="none" xmlns="http://www.w3.org/2000/svg">
<path d="M31.5456 33.4727C18.1797 29.8914 4.44131 37.8232 0.859936 51.1891C-2.72143 64.5549 5.21047 78.2934 18.5764 81.8748L63.1163 93.8092C76.4823 97.3907 90.2207 89.4588 93.8021 76.0928C97.3834 62.727 89.4515 48.9886 76.0857 45.4072L31.5456 33.4727Z" fill="#2AC092"/>
<path d="M105.71 31.5456C109.292 18.1798 101.36 4.44131 87.9937 0.859939C74.6279 -2.72144 60.8895 5.21047 57.3081 18.5764L45.3736 63.1164C41.7922 76.4822 49.7241 90.2207 63.09 93.802C76.4558 97.3834 90.1942 89.4516 93.7757 76.0857L105.71 31.5456Z" fill="#2AC092"/>
<path d="M36.2092 60.7027C35.3447 60.4642 34.8244 59.5607 35.2125 58.7522C35.8295 57.4666 36.7435 56.3367 37.8878 55.4609C39.4646 54.2541 41.3926 53.5958 43.3782 53.586C45.3638 53.5764 47.2982 54.216 48.8866 55.4073C50.0394 56.272 50.9643 57.3929 51.5938 58.6724C51.9898 59.4771 51.4784 60.3856 50.6163 60.6325C49.7541 60.8794 48.8723 60.3617 48.3989 59.6C48.0176 58.9864 47.5234 58.4445 46.938 58.0054C45.9161 57.239 44.6715 56.8274 43.394 56.8337C42.1166 56.8399 40.8761 57.2635 39.8616 58.0399C39.2805 58.4847 38.7917 59.0313 38.4163 59.6486C37.9504 60.4148 37.0736 60.9412 36.2092 60.7027Z" fill="white"/>
<path d="M66.63 60.7027C65.7655 60.4642 65.2453 59.5607 65.6334 58.7522C66.2505 57.4666 67.1643 56.3367 68.3086 55.4609C69.8855 54.2541 71.8135 53.5958 73.7991 53.586C75.7847 53.5764 77.719 54.216 79.3075 55.4073C80.4604 56.272 81.3852 57.3929 82.0147 58.6724C82.4106 59.4771 81.8992 60.3856 81.0372 60.6325C80.175 60.8794 79.2931 60.3617 78.8198 59.6C78.4384 58.9864 77.9443 58.4445 77.3589 58.0054C76.3369 57.239 75.0923 56.8274 73.8149 56.8337C72.5374 56.8399 71.2969 57.2635 70.2824 58.0399C69.7014 58.4847 69.2126 59.0313 68.8372 59.6486C68.3713 60.4148 67.4945 60.9412 66.63 60.7027Z" fill="white"/>
<path d="M155.638 77.3838C150.345 77.3838 145.719 76.2018 141.763 73.838C137.806 71.4228 134.722 68.0826 132.512 63.8173C130.303 59.5007 129.198 54.4646 129.198 48.7092C129.198 42.9537 130.329 37.9177 132.59 33.601C134.851 29.2844 137.986 25.9185 141.994 23.5032C146.054 21.088 150.729 19.8803 156.024 19.8803C160.237 19.8803 164.04 20.6769 167.432 22.2699C170.822 23.8115 173.649 25.9955 175.91 28.8219C178.171 31.6483 179.636 34.9628 180.304 38.7655H172.21C171.182 35.1169 169.204 32.2649 166.275 30.2094C163.346 28.1538 159.852 27.126 155.792 27.126C152.041 27.126 148.752 28.0253 145.926 29.8239C143.15 31.5712 140.992 34.0635 139.451 37.301C137.908 40.487 137.138 44.2641 137.138 48.6321C137.138 52.9486 137.908 56.7257 139.451 59.9632C140.992 63.2007 143.176 65.7186 146.002 67.5172C148.829 69.2645 152.092 70.138 155.792 70.138C159.903 70.138 163.449 69.136 166.43 67.1319C169.461 65.0763 171.491 62.327 172.518 58.884H180.536C179.765 62.584 178.197 65.8215 175.834 68.5964C173.52 71.3713 170.617 73.5296 167.122 75.0713C163.68 76.613 159.852 77.3838 155.638 77.3838ZM214.618 38.8426H221.786V76.5359H215.312L214.541 70.8317C213.462 72.7846 211.766 74.3776 209.454 75.6109C207.141 76.8442 204.598 77.4608 201.823 77.4608C197.454 77.4608 194.063 76.0991 191.648 73.3755C189.283 70.6005 188.102 66.9005 188.102 62.2756V38.8426H195.347V59.8861C195.347 63.8944 196.144 66.7722 197.737 68.5193C199.381 70.2151 201.592 71.0631 204.366 71.0631C207.707 71.0631 210.25 70.0353 211.998 67.9797C213.745 65.8729 214.618 62.7895 214.618 58.7298V38.8426ZM232.3 76.5359V38.8426H239.546V76.5359H232.3ZM235.846 29.901C234.561 29.901 233.43 29.4386 232.454 28.5135C231.528 27.5372 231.067 26.4067 231.067 25.1219C231.067 23.7858 231.528 22.6553 232.454 21.7303C233.43 20.8053 234.561 20.3428 235.846 20.3428C237.182 20.3428 238.312 20.8053 239.237 21.7303C240.162 22.6553 240.624 23.7858 240.624 25.1219C240.624 26.4067 240.162 27.5372 239.237 28.5135C238.312 29.4386 237.182 29.901 235.846 29.901ZM265.173 77.4608C261.525 77.4608 258.389 76.6386 255.769 74.9943C253.148 73.2984 251.118 70.9602 249.679 67.9797C248.292 64.9992 247.598 61.6076 247.598 57.8049C247.598 53.9508 248.317 50.5334 249.757 47.5529C251.195 44.521 253.251 42.1315 255.922 40.3842C258.595 38.637 261.781 37.7634 265.481 37.7634C268.41 37.7634 271.005 38.3801 273.267 39.6134C275.579 40.7953 277.378 42.5682 278.662 44.9321V19.8032H285.83V76.5359H279.356L278.74 69.6756C277.506 72.1936 275.682 74.1206 273.267 75.4567C270.902 76.7929 268.204 77.4608 265.173 77.4608ZM266.638 70.9088C269.104 70.9088 271.211 70.3436 272.958 69.2131C274.757 68.0826 276.145 66.5152 277.12 64.5111C278.097 62.5069 278.585 60.1944 278.585 57.5736C278.585 54.9528 278.097 52.666 277.12 50.7133C276.145 48.7092 274.757 47.1418 272.958 46.0113C271.211 44.8807 269.104 44.3154 266.638 44.3154C264.171 44.3154 262.064 44.9064 260.316 46.0883C258.57 47.2188 257.234 48.7862 256.308 50.7904C255.383 52.7431 254.92 55.0042 254.92 57.5736C254.92 60.1944 255.383 62.5069 256.308 64.5111C257.234 66.5152 258.57 68.0826 260.316 69.2131C262.064 70.3436 264.171 70.9088 266.638 70.9088ZM307.307 77.4608C303.299 77.4608 300.138 76.4074 297.826 74.3005C295.564 72.1936 294.434 69.4443 294.434 66.0527C294.434 62.6096 295.667 59.8603 298.134 57.8049C300.601 55.6979 304.044 54.4646 308.463 54.1049L320.334 53.18V52.1008C320.334 49.9939 319.948 48.3237 319.177 47.0904C318.407 45.8057 317.353 44.9064 316.017 44.3925C314.682 43.8272 313.165 43.5446 311.469 43.5446C308.437 43.5446 306.073 44.1869 304.377 45.4717C302.733 46.705 301.911 48.4779 301.911 50.7904H295.591C295.591 48.1696 296.258 45.8828 297.595 43.9301C298.931 41.9772 300.806 40.4613 303.222 39.3822C305.688 38.303 308.54 37.7634 311.777 37.7634C314.912 37.7634 317.636 38.3288 319.948 39.4593C322.312 40.5385 324.136 42.2086 325.421 44.4697C326.757 46.6794 327.425 49.48 327.425 52.8716V76.5359H321.258L320.488 70.4464C319.512 72.6047 317.816 74.3262 315.401 75.6109C313.037 76.8442 310.339 77.4608 307.307 77.4608ZM309.388 71.8339C312.831 71.8339 315.529 70.8061 317.481 68.7505C319.434 66.6437 320.411 63.8173 320.411 60.2715V58.2673L310.775 59.0382C307.59 59.3465 305.278 60.0917 303.838 61.2736C302.45 62.4555 301.757 63.9715 301.757 65.8215C301.757 67.8256 302.425 69.3415 303.761 70.3693C305.148 71.3457 307.024 71.8339 309.388 71.8339Z" fill="#28333E"/>
</svg>
