<svg width="298" height="134" viewBox="0 0 298 134" fill="none" xmlns="http://www.w3.org/2000/svg">
<rect opacity="0.75" x="39.5" y="0.5" width="207" height="97" rx="23.5" fill="#FDFDFD" stroke="#E1D8ED"/>
<rect y="98" width="298" height="36" rx="16" fill="white"/>
<rect y="98" width="298" height="36" rx="16" fill="url(#paint0_linear_23_31)"/>
<path d="M26.72 121.16C26.176 121.16 25.6587 121.096 25.168 120.968C24.688 120.829 24.256 120.621 23.872 120.344C23.4987 120.056 23.2 119.699 22.976 119.272C22.752 118.845 22.6293 118.344 22.608 117.768C22.608 117.672 22.64 117.592 22.704 117.528C22.768 117.453 22.8533 117.416 22.96 117.416H23.824C23.9413 117.416 24.032 117.453 24.096 117.528C24.1707 117.592 24.2187 117.677 24.24 117.784C24.2827 118.264 24.4213 118.653 24.656 118.952C24.8907 119.24 25.1893 119.453 25.552 119.592C25.9147 119.731 26.3147 119.8 26.752 119.8C27.5627 119.8 28.1813 119.533 28.608 119C29.0347 118.467 29.248 117.757 29.248 116.872V111.192H23.568C23.4613 111.192 23.3707 111.16 23.296 111.096C23.232 111.021 23.2 110.931 23.2 110.824V110.168C23.2 110.061 23.232 109.976 23.296 109.912C23.3707 109.837 23.4613 109.8 23.568 109.8H30.464C30.5813 109.8 30.672 109.837 30.736 109.912C30.8107 109.976 30.848 110.067 30.848 110.184V116.904C30.848 117.768 30.6827 118.52 30.352 119.16C30.0213 119.8 29.552 120.296 28.944 120.648C28.336 120.989 27.5947 121.16 26.72 121.16ZM35.5821 121.16C35.0488 121.16 34.5635 121.053 34.1261 120.84C33.6888 120.627 33.3368 120.339 33.0701 119.976C32.8035 119.613 32.6701 119.203 32.6701 118.744C32.6701 118.008 32.9688 117.421 33.5661 116.984C34.1635 116.547 34.9421 116.259 35.9021 116.12L38.2861 115.784V115.32C38.2861 114.808 38.1368 114.408 37.8381 114.12C37.5501 113.832 37.0755 113.688 36.4141 113.688C35.9341 113.688 35.5448 113.784 35.2461 113.976C34.9581 114.168 34.7555 114.413 34.6381 114.712C34.5741 114.872 34.4621 114.952 34.3021 114.952H33.5821C33.4648 114.952 33.3741 114.92 33.3101 114.856C33.2568 114.781 33.2301 114.696 33.2301 114.6C33.2301 114.44 33.2888 114.243 33.4061 114.008C33.5341 113.773 33.7261 113.544 33.9821 113.32C34.2381 113.096 34.5635 112.909 34.9581 112.76C35.3635 112.6 35.8541 112.52 36.4301 112.52C37.0701 112.52 37.6088 112.605 38.0461 112.776C38.4835 112.936 38.8248 113.155 39.0701 113.432C39.3261 113.709 39.5075 114.024 39.6141 114.376C39.7315 114.728 39.7901 115.085 39.7901 115.448V120.632C39.7901 120.739 39.7528 120.829 39.6781 120.904C39.6141 120.968 39.5288 121 39.4221 121H38.6861C38.5688 121 38.4781 120.968 38.4141 120.904C38.3501 120.829 38.3181 120.739 38.3181 120.632V119.944C38.1795 120.136 37.9928 120.328 37.7581 120.52C37.5235 120.701 37.2301 120.856 36.8781 120.984C36.5261 121.101 36.0941 121.16 35.5821 121.16ZM35.9181 119.96C36.3555 119.96 36.7555 119.869 37.1181 119.688C37.4808 119.496 37.7635 119.203 37.9661 118.808C38.1795 118.413 38.2861 117.917 38.2861 117.32V116.872L36.4301 117.144C35.6728 117.251 35.1021 117.432 34.7181 117.688C34.3341 117.933 34.1421 118.248 34.1421 118.632C34.1421 118.931 34.2275 119.181 34.3981 119.384C34.5795 119.576 34.8035 119.72 35.0701 119.816C35.3475 119.912 35.6301 119.96 35.9181 119.96ZM44.83 121C44.67 121 44.542 120.963 44.446 120.888C44.3607 120.813 44.2913 120.717 44.238 120.6L41.278 113.176C41.2567 113.123 41.246 113.069 41.246 113.016C41.246 112.92 41.278 112.84 41.342 112.776C41.406 112.712 41.486 112.68 41.582 112.68H42.35C42.4673 112.68 42.558 112.712 42.622 112.776C42.686 112.84 42.7233 112.899 42.734 112.952L45.182 119.256L47.614 112.952C47.6353 112.899 47.6727 112.84 47.726 112.776C47.79 112.712 47.8807 112.68 47.998 112.68H48.782C48.8673 112.68 48.942 112.712 49.006 112.776C49.0807 112.84 49.118 112.92 49.118 113.016C49.118 113.069 49.1073 113.123 49.086 113.176L46.11 120.6C46.0673 120.717 45.998 120.813 45.902 120.888C45.8167 120.963 45.6887 121 45.518 121H44.83ZM52.8009 121.16C52.2675 121.16 51.7822 121.053 51.3449 120.84C50.9075 120.627 50.5555 120.339 50.2889 119.976C50.0222 119.613 49.8889 119.203 49.8889 118.744C49.8889 118.008 50.1875 117.421 50.7849 116.984C51.3822 116.547 52.1609 116.259 53.1209 116.12L55.5049 115.784V115.32C55.5049 114.808 55.3555 114.408 55.0569 114.12C54.7689 113.832 54.2942 113.688 53.6329 113.688C53.1529 113.688 52.7635 113.784 52.4649 113.976C52.1769 114.168 51.9742 114.413 51.8569 114.712C51.7929 114.872 51.6809 114.952 51.5209 114.952H50.8009C50.6835 114.952 50.5929 114.92 50.5289 114.856C50.4755 114.781 50.4489 114.696 50.4489 114.6C50.4489 114.44 50.5075 114.243 50.6249 114.008C50.7529 113.773 50.9449 113.544 51.2009 113.32C51.4569 113.096 51.7822 112.909 52.1769 112.76C52.5822 112.6 53.0729 112.52 53.6489 112.52C54.2889 112.52 54.8275 112.605 55.2649 112.776C55.7022 112.936 56.0435 113.155 56.2889 113.432C56.5449 113.709 56.7262 114.024 56.8329 114.376C56.9502 114.728 57.0089 115.085 57.0089 115.448V120.632C57.0089 120.739 56.9715 120.829 56.8969 120.904C56.8329 120.968 56.7475 121 56.6409 121H55.9049C55.7875 121 55.6969 120.968 55.6329 120.904C55.5689 120.829 55.5369 120.739 55.5369 120.632V119.944C55.3982 120.136 55.2115 120.328 54.9769 120.52C54.7422 120.701 54.4489 120.856 54.0969 120.984C53.7449 121.101 53.3129 121.16 52.8009 121.16ZM53.1369 119.96C53.5742 119.96 53.9742 119.869 54.3369 119.688C54.6995 119.496 54.9822 119.203 55.1849 118.808C55.3982 118.413 55.5049 117.917 55.5049 117.32V116.872L53.6489 117.144C52.8915 117.251 52.3209 117.432 51.9369 117.688C51.5529 117.933 51.3609 118.248 51.3609 118.632C51.3609 118.931 51.4462 119.181 51.6169 119.384C51.7982 119.576 52.0222 119.72 52.2889 119.816C52.5662 119.912 52.8489 119.96 53.1369 119.96ZM63.117 121.16C62.189 121.16 61.4103 121.021 60.781 120.744C60.1517 120.456 59.6663 120.088 59.325 119.64C58.9943 119.181 58.8183 118.696 58.797 118.184C58.797 118.099 58.829 118.024 58.893 117.96C58.9677 117.885 59.053 117.848 59.149 117.848H59.965C60.093 117.848 60.189 117.88 60.253 117.944C60.317 118.008 60.3597 118.083 60.381 118.168C60.4343 118.424 60.5623 118.68 60.765 118.936C60.9783 119.181 61.2717 119.389 61.645 119.56C62.029 119.72 62.5197 119.8 63.117 119.8C64.0343 119.8 64.7063 119.64 65.133 119.32C65.5703 118.989 65.789 118.552 65.789 118.008C65.789 117.635 65.6717 117.336 65.437 117.112C65.213 116.877 64.8663 116.669 64.397 116.488C63.9277 116.307 63.3197 116.109 62.573 115.896C61.7943 115.672 61.149 115.427 60.637 115.16C60.125 114.893 59.741 114.563 59.485 114.168C59.2397 113.773 59.117 113.272 59.117 112.664C59.117 112.088 59.2717 111.576 59.581 111.128C59.8903 110.669 60.333 110.307 60.909 110.04C61.4957 109.773 62.205 109.64 63.037 109.64C63.6983 109.64 64.2743 109.731 64.765 109.912C65.2663 110.083 65.6823 110.317 66.013 110.616C66.3437 110.904 66.5943 111.219 66.765 111.56C66.9357 111.891 67.0263 112.216 67.037 112.536C67.037 112.611 67.0103 112.685 66.957 112.76C66.9037 112.824 66.8183 112.856 66.701 112.856H65.853C65.7783 112.856 65.6983 112.835 65.613 112.792C65.5383 112.749 65.4797 112.669 65.437 112.552C65.373 112.115 65.1277 111.747 64.701 111.448C64.2743 111.149 63.7197 111 63.037 111C62.3437 111 61.7783 111.133 61.341 111.4C60.9143 111.667 60.701 112.083 60.701 112.648C60.701 113.011 60.8023 113.315 61.005 113.56C61.2077 113.795 61.5277 114.003 61.965 114.184C62.4023 114.365 62.973 114.557 63.677 114.76C64.5303 114.995 65.229 115.245 65.773 115.512C66.317 115.768 66.717 116.093 66.973 116.488C67.2397 116.872 67.373 117.368 67.373 117.976C67.373 118.648 67.197 119.224 66.845 119.704C66.493 120.173 65.997 120.536 65.357 120.792C64.7277 121.037 63.981 121.16 63.117 121.16ZM72.6221 121.16C71.8648 121.16 71.2088 121.016 70.6541 120.728C70.1101 120.429 69.6888 120.008 69.3901 119.464C69.0915 118.909 68.9315 118.248 68.9101 117.48C68.8995 117.32 68.8941 117.107 68.8941 116.84C68.8941 116.573 68.8995 116.36 68.9101 116.2C68.9315 115.432 69.0915 114.776 69.3901 114.232C69.6888 113.677 70.1101 113.256 70.6541 112.968C71.2088 112.669 71.8648 112.52 72.6221 112.52C73.2408 112.52 73.7688 112.605 74.2061 112.776C74.6541 112.947 75.0221 113.165 75.3101 113.432C75.5981 113.699 75.8115 113.987 75.9501 114.296C76.0995 114.605 76.1795 114.899 76.1901 115.176C76.2008 115.283 76.1688 115.368 76.0941 115.432C76.0195 115.496 75.9288 115.528 75.8221 115.528H75.0541C74.9475 115.528 74.8675 115.507 74.8141 115.464C74.7608 115.411 74.7075 115.325 74.6541 115.208C74.4621 114.685 74.2008 114.317 73.8701 114.104C73.5395 113.891 73.1288 113.784 72.6381 113.784C71.9981 113.784 71.4755 113.981 71.0701 114.376C70.6755 114.771 70.4621 115.405 70.4301 116.28C70.4195 116.664 70.4195 117.037 70.4301 117.4C70.4621 118.285 70.6755 118.925 71.0701 119.32C71.4755 119.704 71.9981 119.896 72.6381 119.896C73.1288 119.896 73.5395 119.789 73.8701 119.576C74.2008 119.363 74.4621 118.995 74.6541 118.472C74.7075 118.355 74.7608 118.275 74.8141 118.232C74.8675 118.179 74.9475 118.152 75.0541 118.152H75.8221C75.9288 118.152 76.0195 118.184 76.0941 118.248C76.1688 118.312 76.2008 118.397 76.1901 118.504C76.1795 118.728 76.1315 118.957 76.0461 119.192C75.9608 119.427 75.8221 119.667 75.6301 119.912C75.4488 120.147 75.2195 120.36 74.9421 120.552C74.6648 120.733 74.3288 120.883 73.9341 121C73.5501 121.107 73.1128 121.16 72.6221 121.16ZM78.4583 121C78.3516 121 78.2609 120.968 78.1863 120.904C78.1223 120.829 78.0903 120.739 78.0903 120.632V113.064C78.0903 112.957 78.1223 112.867 78.1863 112.792C78.2609 112.717 78.3516 112.68 78.4583 112.68H79.1943C79.3009 112.68 79.3916 112.717 79.4663 112.792C79.5409 112.867 79.5783 112.957 79.5783 113.064V113.768C79.7916 113.405 80.0849 113.133 80.4583 112.952C80.8316 112.771 81.2796 112.68 81.8023 112.68H82.4423C82.5489 112.68 82.6343 112.717 82.6983 112.792C82.7623 112.856 82.7943 112.941 82.7943 113.048V113.704C82.7943 113.811 82.7623 113.896 82.6983 113.96C82.6343 114.024 82.5489 114.056 82.4423 114.056H81.4823C80.9063 114.056 80.4529 114.227 80.1223 114.568C79.7916 114.899 79.6263 115.352 79.6263 115.928V120.632C79.6263 120.739 79.5889 120.829 79.5143 120.904C79.4396 120.968 79.3489 121 79.2423 121H78.4583ZM84.5364 121C84.4297 121 84.339 120.968 84.2644 120.904C84.2004 120.829 84.1684 120.739 84.1684 120.632V113.048C84.1684 112.941 84.2004 112.856 84.2644 112.792C84.339 112.717 84.4297 112.68 84.5364 112.68H85.3044C85.411 112.68 85.4964 112.717 85.5604 112.792C85.6244 112.856 85.6564 112.941 85.6564 113.048V120.632C85.6564 120.739 85.6244 120.829 85.5604 120.904C85.4964 120.968 85.411 121 85.3044 121H84.5364ZM84.4084 111.128C84.3017 111.128 84.211 111.096 84.1364 111.032C84.0724 110.957 84.0404 110.867 84.0404 110.76V109.896C84.0404 109.789 84.0724 109.704 84.1364 109.64C84.211 109.565 84.3017 109.528 84.4084 109.528H85.4164C85.523 109.528 85.6084 109.565 85.6724 109.64C85.747 109.704 85.7844 109.789 85.7844 109.896V110.76C85.7844 110.867 85.747 110.957 85.6724 111.032C85.6084 111.096 85.523 111.128 85.4164 111.128H84.4084ZM88.4274 124.04C88.3207 124.04 88.23 124.003 88.1554 123.928C88.0914 123.864 88.0594 123.779 88.0594 123.672V113.048C88.0594 112.941 88.0914 112.856 88.1554 112.792C88.23 112.717 88.3207 112.68 88.4274 112.68H89.1634C89.27 112.68 89.3554 112.717 89.4194 112.792C89.494 112.856 89.5314 112.941 89.5314 113.048V113.752C89.7874 113.4 90.1287 113.107 90.5554 112.872C90.982 112.637 91.5154 112.52 92.1554 112.52C92.7527 112.52 93.2594 112.621 93.6754 112.824C94.102 113.027 94.4487 113.304 94.7154 113.656C94.9927 114.008 95.2007 114.408 95.3394 114.856C95.478 115.304 95.5527 115.784 95.5634 116.296C95.574 116.467 95.5794 116.648 95.5794 116.84C95.5794 117.032 95.574 117.213 95.5634 117.384C95.5527 117.885 95.478 118.365 95.3394 118.824C95.2007 119.272 94.9927 119.672 94.7154 120.024C94.4487 120.365 94.102 120.643 93.6754 120.856C93.2594 121.059 92.7527 121.16 92.1554 121.16C91.5367 121.16 91.014 121.048 90.5874 120.824C90.1714 120.589 89.83 120.301 89.5634 119.96V123.672C89.5634 123.779 89.5314 123.864 89.4674 123.928C89.4034 124.003 89.3127 124.04 89.1954 124.04H88.4274ZM91.8194 119.864C92.374 119.864 92.806 119.747 93.1154 119.512C93.4354 119.267 93.6647 118.952 93.8034 118.568C93.942 118.173 94.022 117.752 94.0434 117.304C94.054 116.995 94.054 116.685 94.0434 116.376C94.022 115.928 93.942 115.512 93.8034 115.128C93.6647 114.733 93.4354 114.419 93.1154 114.184C92.806 113.939 92.374 113.816 91.8194 113.816C91.2967 113.816 90.87 113.939 90.5394 114.184C90.2194 114.429 89.9794 114.744 89.8194 115.128C89.67 115.501 89.5847 115.885 89.5634 116.28C89.5527 116.451 89.5474 116.653 89.5474 116.888C89.5474 117.123 89.5527 117.331 89.5634 117.512C89.574 117.885 89.6594 118.253 89.8194 118.616C89.99 118.979 90.2407 119.277 90.5714 119.512C90.902 119.747 91.318 119.864 91.8194 119.864ZM100.729 121C100.132 121 99.6462 120.888 99.2729 120.664C98.8995 120.429 98.6275 120.104 98.4569 119.688C98.2862 119.261 98.2009 118.76 98.2009 118.184V113.96H96.9529C96.8462 113.96 96.7555 113.928 96.6809 113.864C96.6169 113.789 96.5849 113.699 96.5849 113.592V113.048C96.5849 112.941 96.6169 112.856 96.6809 112.792C96.7555 112.717 96.8462 112.68 96.9529 112.68H98.2009V110.008C98.2009 109.901 98.2329 109.816 98.2969 109.752C98.3715 109.677 98.4622 109.64 98.5689 109.64H99.3209C99.4275 109.64 99.5129 109.677 99.5769 109.752C99.6515 109.816 99.6889 109.901 99.6889 110.008V112.68H101.673C101.78 112.68 101.865 112.717 101.929 112.792C102.004 112.856 102.041 112.941 102.041 113.048V113.592C102.041 113.699 102.004 113.789 101.929 113.864C101.865 113.928 101.78 113.96 101.673 113.96H99.6889V118.072C99.6889 118.573 99.7742 118.968 99.9449 119.256C100.116 119.544 100.42 119.688 100.857 119.688H101.833C101.94 119.688 102.025 119.725 102.089 119.8C102.164 119.864 102.201 119.949 102.201 120.056V120.632C102.201 120.739 102.164 120.829 102.089 120.904C102.025 120.968 101.94 121 101.833 121H100.729ZM108.021 124.328C107.914 124.328 107.823 124.291 107.749 124.216C107.685 124.152 107.653 124.067 107.653 123.96V107.032C107.653 106.925 107.685 106.84 107.749 106.776C107.823 106.701 107.914 106.664 108.021 106.664H108.645C108.751 106.664 108.837 106.701 108.901 106.776C108.975 106.84 109.013 106.925 109.013 107.032V123.96C109.013 124.067 108.975 124.152 108.901 124.216C108.837 124.291 108.751 124.328 108.645 124.328H108.021ZM118.408 121C118.248 121 118.12 120.963 118.024 120.888C117.938 120.813 117.869 120.712 117.816 120.584L114.248 110.296C114.226 110.232 114.215 110.173 114.215 110.12C114.215 110.035 114.248 109.96 114.312 109.896C114.376 109.832 114.45 109.8 114.536 109.8H115.368C115.496 109.8 115.592 109.837 115.656 109.912C115.73 109.976 115.773 110.035 115.784 110.088L118.92 119.16L122.056 110.088C122.077 110.035 122.12 109.976 122.184 109.912C122.248 109.837 122.344 109.8 122.472 109.8H123.304C123.389 109.8 123.464 109.832 123.528 109.896C123.602 109.96 123.64 110.035 123.64 110.12C123.64 110.173 123.629 110.232 123.608 110.296L120.024 120.584C119.981 120.712 119.912 120.813 119.816 120.888C119.73 120.963 119.608 121 119.448 121H118.408ZM127.882 121.16C127.199 121.16 126.618 121.011 126.138 120.712C125.668 120.403 125.311 119.976 125.066 119.432C124.82 118.888 124.698 118.264 124.698 117.56V113.048C124.698 112.941 124.73 112.856 124.794 112.792C124.868 112.717 124.959 112.68 125.066 112.68H125.866C125.972 112.68 126.058 112.717 126.122 112.792C126.196 112.856 126.234 112.941 126.234 113.048V117.48C126.234 119.069 126.927 119.864 128.314 119.864C128.975 119.864 129.503 119.656 129.898 119.24C130.303 118.813 130.506 118.227 130.506 117.48V113.048C130.506 112.941 130.538 112.856 130.602 112.792C130.676 112.717 130.767 112.68 130.874 112.68H131.658C131.775 112.68 131.866 112.717 131.93 112.792C131.994 112.856 132.026 112.941 132.026 113.048V120.632C132.026 120.739 131.994 120.829 131.93 120.904C131.866 120.968 131.775 121 131.658 121H130.922C130.815 121 130.724 120.968 130.65 120.904C130.586 120.829 130.554 120.739 130.554 120.632V119.928C130.266 120.301 129.914 120.6 129.498 120.824C129.092 121.048 128.554 121.16 127.882 121.16ZM137.715 121.16C136.616 121.16 135.741 120.824 135.091 120.152C134.44 119.469 134.083 118.541 134.019 117.368C134.008 117.229 134.003 117.053 134.003 116.84C134.003 116.616 134.008 116.435 134.019 116.296C134.061 115.539 134.237 114.877 134.547 114.312C134.856 113.736 135.277 113.293 135.811 112.984C136.355 112.675 136.989 112.52 137.715 112.52C138.525 112.52 139.203 112.691 139.747 113.032C140.301 113.373 140.723 113.859 141.011 114.488C141.299 115.117 141.443 115.853 141.443 116.696V116.968C141.443 117.085 141.405 117.176 141.331 117.24C141.267 117.304 141.181 117.336 141.075 117.336H135.539C135.539 117.347 135.539 117.368 135.539 117.4C135.539 117.432 135.539 117.459 135.539 117.48C135.56 117.917 135.656 118.328 135.827 118.712C135.997 119.085 136.243 119.389 136.563 119.624C136.883 119.859 137.267 119.976 137.715 119.976C138.099 119.976 138.419 119.917 138.675 119.8C138.931 119.683 139.139 119.555 139.299 119.416C139.459 119.267 139.565 119.155 139.619 119.08C139.715 118.941 139.789 118.861 139.843 118.84C139.896 118.808 139.981 118.792 140.099 118.792H140.867C140.973 118.792 141.059 118.824 141.123 118.888C141.197 118.941 141.229 119.021 141.219 119.128C141.208 119.288 141.123 119.485 140.963 119.72C140.803 119.944 140.573 120.168 140.275 120.392C139.976 120.616 139.613 120.803 139.187 120.952C138.76 121.091 138.269 121.16 137.715 121.16ZM135.539 116.232H139.923V116.184C139.923 115.704 139.832 115.277 139.651 114.904C139.48 114.531 139.229 114.237 138.899 114.024C138.568 113.8 138.173 113.688 137.715 113.688C137.256 113.688 136.861 113.8 136.531 114.024C136.211 114.237 135.965 114.531 135.795 114.904C135.624 115.277 135.539 115.704 135.539 116.184V116.232ZM143.612 121C143.505 121 143.415 120.968 143.34 120.904C143.276 120.829 143.244 120.739 143.244 120.632V119.48C143.244 119.373 143.276 119.288 143.34 119.224C143.415 119.149 143.505 119.112 143.612 119.112H144.764C144.871 119.112 144.956 119.149 145.02 119.224C145.095 119.288 145.132 119.373 145.132 119.48V120.632C145.132 120.739 145.095 120.829 145.02 120.904C144.956 120.968 144.871 121 144.764 121H143.612ZM145.855 124.04C145.749 124.04 145.663 124.003 145.599 123.928C145.525 123.864 145.487 123.779 145.487 123.672V123.128C145.487 123.021 145.525 122.931 145.599 122.856C145.663 122.792 145.749 122.76 145.855 122.76H146.079C146.463 122.76 146.746 122.685 146.927 122.536C147.109 122.397 147.226 122.211 147.279 121.976C147.343 121.741 147.375 121.475 147.375 121.176V113.048C147.375 112.941 147.407 112.856 147.471 112.792C147.546 112.717 147.637 112.68 147.743 112.68H148.527C148.634 112.68 148.719 112.717 148.783 112.792C148.858 112.856 148.895 112.941 148.895 113.048V121.192C148.895 121.757 148.805 122.253 148.623 122.68C148.453 123.107 148.17 123.437 147.775 123.672C147.381 123.917 146.842 124.04 146.159 124.04H145.855ZM147.615 111.128C147.509 111.128 147.418 111.096 147.343 111.032C147.279 110.957 147.247 110.867 147.247 110.76V109.896C147.247 109.789 147.279 109.704 147.343 109.64C147.418 109.565 147.509 109.528 147.615 109.528H148.639C148.746 109.528 148.837 109.565 148.911 109.64C148.986 109.704 149.023 109.789 149.023 109.896V110.76C149.023 110.867 148.986 110.957 148.911 111.032C148.837 111.096 148.746 111.128 148.639 111.128H147.615ZM154.158 121.16C153.56 121.16 153.048 121.085 152.622 120.936C152.195 120.787 151.848 120.605 151.582 120.392C151.315 120.179 151.112 119.965 150.974 119.752C150.846 119.539 150.776 119.368 150.766 119.24C150.755 119.123 150.792 119.032 150.878 118.968C150.963 118.904 151.048 118.872 151.134 118.872H151.838C151.902 118.872 151.95 118.883 151.982 118.904C152.024 118.915 152.078 118.957 152.142 119.032C152.28 119.181 152.435 119.331 152.606 119.48C152.776 119.629 152.984 119.752 153.23 119.848C153.486 119.944 153.8 119.992 154.174 119.992C154.718 119.992 155.166 119.891 155.518 119.688C155.87 119.475 156.046 119.165 156.046 118.76C156.046 118.493 155.971 118.28 155.822 118.12C155.683 117.96 155.427 117.816 155.054 117.688C154.691 117.56 154.19 117.427 153.55 117.288C152.91 117.139 152.403 116.957 152.03 116.744C151.656 116.52 151.39 116.259 151.23 115.96C151.07 115.651 150.99 115.304 150.99 114.92C150.99 114.525 151.107 114.147 151.342 113.784C151.576 113.411 151.918 113.107 152.366 112.872C152.824 112.637 153.395 112.52 154.078 112.52C154.632 112.52 155.107 112.589 155.502 112.728C155.896 112.867 156.222 113.043 156.478 113.256C156.734 113.459 156.926 113.661 157.054 113.864C157.182 114.067 157.251 114.237 157.262 114.376C157.272 114.483 157.24 114.573 157.166 114.648C157.091 114.712 157.006 114.744 156.91 114.744H156.238C156.163 114.744 156.099 114.728 156.046 114.696C156.003 114.664 155.96 114.627 155.918 114.584C155.811 114.445 155.683 114.307 155.534 114.168C155.395 114.029 155.208 113.917 154.974 113.832C154.75 113.736 154.451 113.688 154.078 113.688C153.544 113.688 153.144 113.8 152.878 114.024C152.611 114.248 152.478 114.531 152.478 114.872C152.478 115.075 152.536 115.256 152.654 115.416C152.771 115.576 152.995 115.72 153.326 115.848C153.656 115.976 154.147 116.115 154.798 116.264C155.502 116.403 156.056 116.589 156.462 116.824C156.867 117.059 157.155 117.331 157.326 117.64C157.496 117.949 157.582 118.307 157.582 118.712C157.582 119.16 157.448 119.571 157.182 119.944C156.926 120.317 156.542 120.616 156.03 120.84C155.528 121.053 154.904 121.16 154.158 121.16ZM163.724 124.328C163.617 124.328 163.527 124.291 163.452 124.216C163.388 124.152 163.356 124.067 163.356 123.96V107.032C163.356 106.925 163.388 106.84 163.452 106.776C163.527 106.701 163.617 106.664 163.724 106.664H164.348C164.455 106.664 164.54 106.701 164.604 106.776C164.679 106.84 164.716 106.925 164.716 107.032V123.96C164.716 124.067 164.679 124.152 164.604 124.216C164.54 124.291 164.455 124.328 164.348 124.328H163.724ZM171.588 121C171.471 121 171.38 120.968 171.316 120.904C171.252 120.829 171.22 120.739 171.22 120.632V110.184C171.22 110.067 171.252 109.976 171.316 109.912C171.38 109.837 171.471 109.8 171.588 109.8H175.492C176.697 109.8 177.652 110.083 178.356 110.648C179.06 111.213 179.412 112.051 179.412 113.16C179.412 113.981 179.204 114.653 178.788 115.176C178.383 115.688 177.828 116.045 177.124 116.248L179.588 120.504C179.62 120.568 179.636 120.627 179.636 120.68C179.636 120.765 179.599 120.84 179.524 120.904C179.46 120.968 179.385 121 179.3 121H178.532C178.351 121 178.217 120.952 178.132 120.856C178.047 120.76 177.972 120.664 177.908 120.568L175.588 116.504H172.788V120.632C172.788 120.739 172.751 120.829 172.676 120.904C172.612 120.968 172.521 121 172.404 121H171.588ZM172.788 115.144H175.428C176.228 115.144 176.825 114.979 177.22 114.648C177.615 114.307 177.812 113.805 177.812 113.144C177.812 112.493 177.615 111.997 177.22 111.656C176.836 111.315 176.239 111.144 175.428 111.144H172.788V115.144ZM184.715 121.16C183.616 121.16 182.741 120.824 182.091 120.152C181.44 119.469 181.083 118.541 181.019 117.368C181.008 117.229 181.003 117.053 181.003 116.84C181.003 116.616 181.008 116.435 181.019 116.296C181.061 115.539 181.237 114.877 181.547 114.312C181.856 113.736 182.277 113.293 182.811 112.984C183.355 112.675 183.989 112.52 184.715 112.52C185.525 112.52 186.203 112.691 186.747 113.032C187.301 113.373 187.723 113.859 188.011 114.488C188.299 115.117 188.443 115.853 188.443 116.696V116.968C188.443 117.085 188.405 117.176 188.331 117.24C188.267 117.304 188.181 117.336 188.075 117.336H182.539C182.539 117.347 182.539 117.368 182.539 117.4C182.539 117.432 182.539 117.459 182.539 117.48C182.56 117.917 182.656 118.328 182.827 118.712C182.997 119.085 183.243 119.389 183.563 119.624C183.883 119.859 184.267 119.976 184.715 119.976C185.099 119.976 185.419 119.917 185.675 119.8C185.931 119.683 186.139 119.555 186.299 119.416C186.459 119.267 186.565 119.155 186.619 119.08C186.715 118.941 186.789 118.861 186.843 118.84C186.896 118.808 186.981 118.792 187.099 118.792H187.867C187.973 118.792 188.059 118.824 188.123 118.888C188.197 118.941 188.229 119.021 188.219 119.128C188.208 119.288 188.123 119.485 187.963 119.72C187.803 119.944 187.573 120.168 187.275 120.392C186.976 120.616 186.613 120.803 186.187 120.952C185.76 121.091 185.269 121.16 184.715 121.16ZM182.539 116.232H186.923V116.184C186.923 115.704 186.832 115.277 186.651 114.904C186.48 114.531 186.229 114.237 185.899 114.024C185.568 113.8 185.173 113.688 184.715 113.688C184.256 113.688 183.861 113.8 183.531 114.024C183.211 114.237 182.965 114.531 182.795 114.904C182.624 115.277 182.539 115.704 182.539 116.184V116.232ZM192.676 121.16C192.143 121.16 191.657 121.053 191.22 120.84C190.783 120.627 190.431 120.339 190.164 119.976C189.897 119.613 189.764 119.203 189.764 118.744C189.764 118.008 190.063 117.421 190.66 116.984C191.257 116.547 192.036 116.259 192.996 116.12L195.38 115.784V115.32C195.38 114.808 195.231 114.408 194.932 114.12C194.644 113.832 194.169 113.688 193.508 113.688C193.028 113.688 192.639 113.784 192.34 113.976C192.052 114.168 191.849 114.413 191.732 114.712C191.668 114.872 191.556 114.952 191.396 114.952H190.676C190.559 114.952 190.468 114.92 190.404 114.856C190.351 114.781 190.324 114.696 190.324 114.6C190.324 114.44 190.383 114.243 190.5 114.008C190.628 113.773 190.82 113.544 191.076 113.32C191.332 113.096 191.657 112.909 192.052 112.76C192.457 112.6 192.948 112.52 193.524 112.52C194.164 112.52 194.703 112.605 195.14 112.776C195.577 112.936 195.919 113.155 196.164 113.432C196.42 113.709 196.601 114.024 196.708 114.376C196.825 114.728 196.884 115.085 196.884 115.448V120.632C196.884 120.739 196.847 120.829 196.772 120.904C196.708 120.968 196.623 121 196.516 121H195.78C195.663 121 195.572 120.968 195.508 120.904C195.444 120.829 195.412 120.739 195.412 120.632V119.944C195.273 120.136 195.087 120.328 194.852 120.52C194.617 120.701 194.324 120.856 193.972 120.984C193.62 121.101 193.188 121.16 192.676 121.16ZM193.012 119.96C193.449 119.96 193.849 119.869 194.212 119.688C194.575 119.496 194.857 119.203 195.06 118.808C195.273 118.413 195.38 117.917 195.38 117.32V116.872L193.524 117.144C192.767 117.251 192.196 117.432 191.812 117.688C191.428 117.933 191.236 118.248 191.236 118.632C191.236 118.931 191.321 119.181 191.492 119.384C191.673 119.576 191.897 119.72 192.164 119.816C192.441 119.912 192.724 119.96 193.012 119.96ZM202.544 121.16C201.787 121.16 201.131 121.016 200.576 120.728C200.032 120.429 199.611 120.008 199.312 119.464C199.013 118.909 198.853 118.248 198.832 117.48C198.821 117.32 198.816 117.107 198.816 116.84C198.816 116.573 198.821 116.36 198.832 116.2C198.853 115.432 199.013 114.776 199.312 114.232C199.611 113.677 200.032 113.256 200.576 112.968C201.131 112.669 201.787 112.52 202.544 112.52C203.163 112.52 203.691 112.605 204.128 112.776C204.576 112.947 204.944 113.165 205.232 113.432C205.52 113.699 205.733 113.987 205.872 114.296C206.021 114.605 206.101 114.899 206.112 115.176C206.123 115.283 206.091 115.368 206.016 115.432C205.941 115.496 205.851 115.528 205.744 115.528H204.976C204.869 115.528 204.789 115.507 204.736 115.464C204.683 115.411 204.629 115.325 204.576 115.208C204.384 114.685 204.123 114.317 203.792 114.104C203.461 113.891 203.051 113.784 202.56 113.784C201.92 113.784 201.397 113.981 200.992 114.376C200.597 114.771 200.384 115.405 200.352 116.28C200.341 116.664 200.341 117.037 200.352 117.4C200.384 118.285 200.597 118.925 200.992 119.32C201.397 119.704 201.92 119.896 202.56 119.896C203.051 119.896 203.461 119.789 203.792 119.576C204.123 119.363 204.384 118.995 204.576 118.472C204.629 118.355 204.683 118.275 204.736 118.232C204.789 118.179 204.869 118.152 204.976 118.152H205.744C205.851 118.152 205.941 118.184 206.016 118.248C206.091 118.312 206.123 118.397 206.112 118.504C206.101 118.728 206.053 118.957 205.968 119.192C205.883 119.427 205.744 119.667 205.552 119.912C205.371 120.147 205.141 120.36 204.864 120.552C204.587 120.733 204.251 120.883 203.856 121C203.472 121.107 203.035 121.16 202.544 121.16ZM211.26 121C210.663 121 210.177 120.888 209.804 120.664C209.431 120.429 209.159 120.104 208.988 119.688C208.817 119.261 208.732 118.76 208.732 118.184V113.96H207.484C207.377 113.96 207.287 113.928 207.212 113.864C207.148 113.789 207.116 113.699 207.116 113.592V113.048C207.116 112.941 207.148 112.856 207.212 112.792C207.287 112.717 207.377 112.68 207.484 112.68H208.732V110.008C208.732 109.901 208.764 109.816 208.828 109.752C208.903 109.677 208.993 109.64 209.1 109.64H209.852C209.959 109.64 210.044 109.677 210.108 109.752C210.183 109.816 210.22 109.901 210.22 110.008V112.68H212.204C212.311 112.68 212.396 112.717 212.46 112.792C212.535 112.856 212.572 112.941 212.572 113.048V113.592C212.572 113.699 212.535 113.789 212.46 113.864C212.396 113.928 212.311 113.96 212.204 113.96H210.22V118.072C210.22 118.573 210.305 118.968 210.476 119.256C210.647 119.544 210.951 119.688 211.388 119.688H212.364C212.471 119.688 212.556 119.725 212.62 119.8C212.695 119.864 212.732 119.949 212.732 120.056V120.632C212.732 120.739 212.695 120.829 212.62 120.904C212.556 120.968 212.471 121 212.364 121H211.26ZM218.552 124.328C218.445 124.328 218.355 124.291 218.28 124.216C218.216 124.152 218.184 124.067 218.184 123.96V107.032C218.184 106.925 218.216 106.84 218.28 106.776C218.355 106.701 218.445 106.664 218.552 106.664H219.176C219.283 106.664 219.368 106.701 219.432 106.776C219.507 106.84 219.544 106.925 219.544 107.032V123.96C219.544 124.067 219.507 124.152 219.432 124.216C219.368 124.291 219.283 124.328 219.176 124.328H218.552ZM226.416 121C226.299 121 226.208 120.968 226.144 120.904C226.08 120.829 226.048 120.739 226.048 120.632V110.184C226.048 110.067 226.08 109.976 226.144 109.912C226.208 109.837 226.299 109.8 226.416 109.8H227.152C227.28 109.8 227.376 109.832 227.44 109.896C227.504 109.949 227.542 109.992 227.552 110.024L232.864 118.184V110.184C232.864 110.067 232.896 109.976 232.96 109.912C233.024 109.837 233.115 109.8 233.232 109.8H234C234.118 109.8 234.208 109.837 234.272 109.912C234.347 109.976 234.384 110.067 234.384 110.184V120.616C234.384 120.723 234.347 120.813 234.272 120.888C234.208 120.963 234.123 121 234.016 121H233.248C233.131 121 233.04 120.968 232.976 120.904C232.923 120.84 232.886 120.797 232.864 120.776L227.568 112.696V120.632C227.568 120.739 227.531 120.829 227.456 120.904C227.392 120.968 227.302 121 227.184 121H226.416ZM240.262 121.16C239.163 121.16 238.288 120.824 237.638 120.152C236.987 119.469 236.63 118.541 236.566 117.368C236.555 117.229 236.55 117.053 236.55 116.84C236.55 116.616 236.555 116.435 236.566 116.296C236.608 115.539 236.784 114.877 237.094 114.312C237.403 113.736 237.824 113.293 238.358 112.984C238.902 112.675 239.536 112.52 240.262 112.52C241.072 112.52 241.75 112.691 242.294 113.032C242.848 113.373 243.27 113.859 243.558 114.488C243.846 115.117 243.99 115.853 243.99 116.696V116.968C243.99 117.085 243.952 117.176 243.878 117.24C243.814 117.304 243.728 117.336 243.622 117.336H238.086C238.086 117.347 238.086 117.368 238.086 117.4C238.086 117.432 238.086 117.459 238.086 117.48C238.107 117.917 238.203 118.328 238.374 118.712C238.544 119.085 238.79 119.389 239.11 119.624C239.43 119.859 239.814 119.976 240.262 119.976C240.646 119.976 240.966 119.917 241.222 119.8C241.478 119.683 241.686 119.555 241.846 119.416C242.006 119.267 242.112 119.155 242.166 119.08C242.262 118.941 242.336 118.861 242.39 118.84C242.443 118.808 242.528 118.792 242.646 118.792H243.414C243.52 118.792 243.606 118.824 243.67 118.888C243.744 118.941 243.776 119.021 243.766 119.128C243.755 119.288 243.67 119.485 243.51 119.72C243.35 119.944 243.12 120.168 242.822 120.392C242.523 120.616 242.16 120.803 241.734 120.952C241.307 121.091 240.816 121.16 240.262 121.16ZM238.086 116.232H242.47V116.184C242.47 115.704 242.379 115.277 242.198 114.904C242.027 114.531 241.776 114.237 241.446 114.024C241.115 113.8 240.72 113.688 240.262 113.688C239.803 113.688 239.408 113.8 239.078 114.024C238.758 114.237 238.512 114.531 238.342 114.904C238.171 115.277 238.086 115.704 238.086 116.184V116.232ZM245.347 121C245.262 121 245.182 120.968 245.107 120.904C245.043 120.84 245.011 120.76 245.011 120.664C245.011 120.632 245.016 120.595 245.027 120.552C245.048 120.499 245.08 120.44 245.123 120.376L247.907 116.744L245.299 113.304C245.256 113.24 245.224 113.187 245.203 113.144C245.192 113.101 245.187 113.059 245.187 113.016C245.187 112.92 245.219 112.84 245.283 112.776C245.347 112.712 245.427 112.68 245.523 112.68H246.339C246.456 112.68 246.542 112.712 246.595 112.776C246.659 112.829 246.712 112.883 246.755 112.936L248.883 115.704L251.011 112.952C251.054 112.899 251.102 112.84 251.155 112.776C251.219 112.712 251.31 112.68 251.427 112.68H252.211C252.307 112.68 252.387 112.712 252.451 112.776C252.515 112.84 252.547 112.92 252.547 113.016C252.547 113.059 252.536 113.101 252.515 113.144C252.504 113.187 252.478 113.24 252.435 113.304L249.795 116.776L252.579 120.376C252.622 120.44 252.648 120.493 252.659 120.536C252.68 120.579 252.691 120.621 252.691 120.664C252.691 120.76 252.659 120.84 252.595 120.904C252.531 120.968 252.451 121 252.355 121H251.507C251.4 121 251.315 120.973 251.251 120.92C251.187 120.867 251.134 120.813 251.091 120.76L248.835 117.832L246.579 120.76C246.536 120.803 246.483 120.856 246.419 120.92C246.366 120.973 246.28 121 246.163 121H245.347ZM257.604 121C257.007 121 256.521 120.888 256.148 120.664C255.775 120.429 255.503 120.104 255.332 119.688C255.161 119.261 255.076 118.76 255.076 118.184V113.96H253.828C253.721 113.96 253.631 113.928 253.556 113.864C253.492 113.789 253.46 113.699 253.46 113.592V113.048C253.46 112.941 253.492 112.856 253.556 112.792C253.631 112.717 253.721 112.68 253.828 112.68H255.076V110.008C255.076 109.901 255.108 109.816 255.172 109.752C255.247 109.677 255.337 109.64 255.444 109.64H256.196C256.303 109.64 256.388 109.677 256.452 109.752C256.527 109.816 256.564 109.901 256.564 110.008V112.68H258.548C258.655 112.68 258.74 112.717 258.804 112.792C258.879 112.856 258.916 112.941 258.916 113.048V113.592C258.916 113.699 258.879 113.789 258.804 113.864C258.74 113.928 258.655 113.96 258.548 113.96H256.564V118.072C256.564 118.573 256.649 118.968 256.82 119.256C256.991 119.544 257.295 119.688 257.732 119.688H258.708C258.815 119.688 258.9 119.725 258.964 119.8C259.039 119.864 259.076 119.949 259.076 120.056V120.632C259.076 120.739 259.039 120.829 258.964 120.904C258.9 120.968 258.815 121 258.708 121H257.604ZM260.862 121C260.755 121 260.665 120.968 260.59 120.904C260.526 120.829 260.494 120.739 260.494 120.632V119.48C260.494 119.373 260.526 119.288 260.59 119.224C260.665 119.149 260.755 119.112 260.862 119.112H262.014C262.121 119.112 262.206 119.149 262.27 119.224C262.345 119.288 262.382 119.373 262.382 119.48V120.632C262.382 120.739 262.345 120.829 262.27 120.904C262.206 120.968 262.121 121 262.014 121H260.862ZM263.105 124.04C262.999 124.04 262.913 124.003 262.849 123.928C262.775 123.864 262.737 123.779 262.737 123.672V123.128C262.737 123.021 262.775 122.931 262.849 122.856C262.913 122.792 262.999 122.76 263.105 122.76H263.329C263.713 122.76 263.996 122.685 264.177 122.536C264.359 122.397 264.476 122.211 264.529 121.976C264.593 121.741 264.625 121.475 264.625 121.176V113.048C264.625 112.941 264.657 112.856 264.721 112.792C264.796 112.717 264.887 112.68 264.993 112.68H265.777C265.884 112.68 265.969 112.717 266.033 112.792C266.108 112.856 266.145 112.941 266.145 113.048V121.192C266.145 121.757 266.055 122.253 265.873 122.68C265.703 123.107 265.42 123.437 265.025 123.672C264.631 123.917 264.092 124.04 263.409 124.04H263.105ZM264.865 111.128C264.759 111.128 264.668 111.096 264.593 111.032C264.529 110.957 264.497 110.867 264.497 110.76V109.896C264.497 109.789 264.529 109.704 264.593 109.64C264.668 109.565 264.759 109.528 264.865 109.528H265.889C265.996 109.528 266.087 109.565 266.161 109.64C266.236 109.704 266.273 109.789 266.273 109.896V110.76C266.273 110.867 266.236 110.957 266.161 111.032C266.087 111.096 265.996 111.128 265.889 111.128H264.865ZM271.408 121.16C270.81 121.16 270.298 121.085 269.872 120.936C269.445 120.787 269.098 120.605 268.832 120.392C268.565 120.179 268.362 119.965 268.224 119.752C268.096 119.539 268.026 119.368 268.016 119.24C268.005 119.123 268.042 119.032 268.128 118.968C268.213 118.904 268.298 118.872 268.384 118.872H269.088C269.152 118.872 269.2 118.883 269.232 118.904C269.274 118.915 269.328 118.957 269.392 119.032C269.53 119.181 269.685 119.331 269.856 119.48C270.026 119.629 270.234 119.752 270.48 119.848C270.736 119.944 271.05 119.992 271.424 119.992C271.968 119.992 272.416 119.891 272.768 119.688C273.12 119.475 273.296 119.165 273.296 118.76C273.296 118.493 273.221 118.28 273.072 118.12C272.933 117.96 272.677 117.816 272.304 117.688C271.941 117.56 271.44 117.427 270.8 117.288C270.16 117.139 269.653 116.957 269.28 116.744C268.906 116.52 268.64 116.259 268.48 115.96C268.32 115.651 268.24 115.304 268.24 114.92C268.24 114.525 268.357 114.147 268.592 113.784C268.826 113.411 269.168 113.107 269.616 112.872C270.074 112.637 270.645 112.52 271.328 112.52C271.882 112.52 272.357 112.589 272.752 112.728C273.146 112.867 273.472 113.043 273.728 113.256C273.984 113.459 274.176 113.661 274.304 113.864C274.432 114.067 274.501 114.237 274.512 114.376C274.522 114.483 274.49 114.573 274.416 114.648C274.341 114.712 274.256 114.744 274.16 114.744H273.488C273.413 114.744 273.349 114.728 273.296 114.696C273.253 114.664 273.21 114.627 273.168 114.584C273.061 114.445 272.933 114.307 272.784 114.168C272.645 114.029 272.458 113.917 272.224 113.832C272 113.736 271.701 113.688 271.328 113.688C270.794 113.688 270.394 113.8 270.128 114.024C269.861 114.248 269.728 114.531 269.728 114.872C269.728 115.075 269.786 115.256 269.904 115.416C270.021 115.576 270.245 115.72 270.576 115.848C270.906 115.976 271.397 116.115 272.048 116.264C272.752 116.403 273.306 116.589 273.712 116.824C274.117 117.059 274.405 117.331 274.576 117.64C274.746 117.949 274.832 118.307 274.832 118.712C274.832 119.16 274.698 119.571 274.432 119.944C274.176 120.317 273.792 120.616 273.28 120.84C272.778 121.053 272.154 121.16 271.408 121.16Z" fill="white"/>
<path d="M101.2 62C101.053 62 100.94 61.96 100.86 61.88C100.78 61.7867 100.74 61.6733 100.74 61.54V48.48C100.74 48.3333 100.78 48.22 100.86 48.14C100.94 48.0467 101.053 48 101.2 48H109.36C109.507 48 109.62 48.0467 109.7 48.14C109.78 48.22 109.82 48.3333 109.82 48.48V49.28C109.82 49.4267 109.78 49.54 109.7 49.62C109.62 49.7 109.507 49.74 109.36 49.74H102.68V54.4H108.96C109.107 54.4 109.22 54.4467 109.3 54.54C109.38 54.62 109.42 54.7333 109.42 54.88V55.68C109.42 55.8133 109.38 55.9267 109.3 56.02C109.22 56.1 109.107 56.14 108.96 56.14H102.68V61.54C102.68 61.6733 102.633 61.7867 102.54 61.88C102.46 61.96 102.347 62 102.2 62H101.2ZM112.346 62C112.213 62 112.1 61.96 112.006 61.88C111.926 61.7867 111.886 61.6733 111.886 61.54V52.08C111.886 51.9467 111.926 51.8333 112.006 51.74C112.1 51.6467 112.213 51.6 112.346 51.6H113.266C113.4 51.6 113.513 51.6467 113.606 51.74C113.7 51.8333 113.746 51.9467 113.746 52.08V52.96C114.013 52.5067 114.38 52.1667 114.846 51.94C115.313 51.7133 115.873 51.6 116.526 51.6H117.326C117.46 51.6 117.566 51.6467 117.646 51.74C117.726 51.82 117.766 51.9267 117.766 52.06V52.88C117.766 53.0133 117.726 53.12 117.646 53.2C117.566 53.28 117.46 53.32 117.326 53.32H116.126C115.406 53.32 114.84 53.5333 114.426 53.96C114.013 54.3733 113.806 54.94 113.806 55.66V61.54C113.806 61.6733 113.76 61.7867 113.666 61.88C113.573 61.96 113.46 62 113.326 62H112.346ZM123.549 62.2C122.535 62.2 121.689 62.0067 121.009 61.62C120.329 61.2333 119.809 60.7 119.449 60.02C119.089 59.3267 118.889 58.54 118.849 57.66C118.835 57.4333 118.829 57.1467 118.829 56.8C118.829 56.44 118.835 56.1533 118.849 55.94C118.889 55.0467 119.089 54.26 119.449 53.58C119.822 52.9 120.349 52.3667 121.029 51.98C121.709 51.5933 122.549 51.4 123.549 51.4C124.549 51.4 125.389 51.5933 126.069 51.98C126.749 52.3667 127.269 52.9 127.629 53.58C128.002 54.26 128.209 55.0467 128.249 55.94C128.262 56.1533 128.269 56.44 128.269 56.8C128.269 57.1467 128.262 57.4333 128.249 57.66C128.209 58.54 128.009 59.3267 127.649 60.02C127.289 60.7 126.769 61.2333 126.089 61.62C125.409 62.0067 124.562 62.2 123.549 62.2ZM123.549 60.66C124.375 60.66 125.035 60.4 125.529 59.88C126.022 59.3467 126.289 58.5733 126.329 57.56C126.342 57.36 126.349 57.1067 126.349 56.8C126.349 56.4933 126.342 56.24 126.329 56.04C126.289 55.0267 126.022 54.26 125.529 53.74C125.035 53.2067 124.375 52.94 123.549 52.94C122.722 52.94 122.055 53.2067 121.549 53.74C121.055 54.26 120.795 55.0267 120.769 56.04C120.755 56.24 120.749 56.4933 120.749 56.8C120.749 57.1067 120.755 57.36 120.769 57.56C120.795 58.5733 121.055 59.3467 121.549 59.88C122.055 60.4 122.722 60.66 123.549 60.66ZM131.233 62C131.1 62 130.986 61.96 130.893 61.88C130.813 61.7867 130.773 61.6733 130.773 61.54V52.06C130.773 51.9267 130.813 51.82 130.893 51.74C130.986 51.6467 131.1 51.6 131.233 51.6H132.173C132.306 51.6 132.413 51.6467 132.493 51.74C132.586 51.82 132.633 51.9267 132.633 52.06V52.94C132.98 52.4867 133.413 52.12 133.933 51.84C134.466 51.5467 135.146 51.4 135.973 51.4C136.84 51.4 137.573 51.5933 138.173 51.98C138.786 52.3533 139.246 52.88 139.553 53.56C139.86 54.2267 140.013 55.0067 140.013 55.9V61.54C140.013 61.6733 139.973 61.7867 139.893 61.88C139.813 61.96 139.706 62 139.573 62H138.573C138.44 62 138.326 61.96 138.233 61.88C138.153 61.7867 138.113 61.6733 138.113 61.54V56C138.113 55.0667 137.886 54.34 137.433 53.82C136.98 53.2867 136.313 53.02 135.433 53.02C134.606 53.02 133.94 53.2867 133.433 53.82C132.94 54.34 132.693 55.0667 132.693 56V61.54C132.693 61.6733 132.646 61.7867 132.553 61.88C132.473 61.96 132.366 62 132.233 62H131.233ZM146.825 62C146.078 62 145.472 61.86 145.005 61.58C144.538 61.2867 144.198 60.88 143.985 60.36C143.772 59.8267 143.665 59.2 143.665 58.48V53.2H142.105C141.972 53.2 141.858 53.16 141.765 53.08C141.685 52.9867 141.645 52.8733 141.645 52.74V52.06C141.645 51.9267 141.685 51.82 141.765 51.74C141.858 51.6467 141.972 51.6 142.105 51.6H143.665V48.26C143.665 48.1267 143.705 48.02 143.785 47.94C143.878 47.8467 143.992 47.8 144.125 47.8H145.065C145.198 47.8 145.305 47.8467 145.385 47.94C145.478 48.02 145.525 48.1267 145.525 48.26V51.6H148.005C148.138 51.6 148.245 51.6467 148.325 51.74C148.418 51.82 148.465 51.9267 148.465 52.06V52.74C148.465 52.8733 148.418 52.9867 148.325 53.08C148.245 53.16 148.138 53.2 148.005 53.2H145.525V58.34C145.525 58.9667 145.632 59.46 145.845 59.82C146.058 60.18 146.438 60.36 146.985 60.36H148.205C148.338 60.36 148.445 60.4067 148.525 60.5C148.618 60.58 148.665 60.6867 148.665 60.82V61.54C148.665 61.6733 148.618 61.7867 148.525 61.88C148.445 61.96 148.338 62 148.205 62H146.825ZM151.298 62C151.151 62 151.038 61.96 150.958 61.88C150.878 61.7867 150.838 61.6733 150.838 61.54V48.48C150.838 48.3333 150.878 48.22 150.958 48.14C151.038 48.0467 151.151 48 151.298 48H159.558C159.704 48 159.818 48.0467 159.898 48.14C159.978 48.22 160.018 48.3333 160.018 48.48V49.24C160.018 49.3867 159.978 49.5 159.898 49.58C159.818 49.66 159.704 49.7 159.558 49.7H152.758V54.08H159.118C159.264 54.08 159.378 54.1267 159.458 54.22C159.538 54.3 159.578 54.4133 159.578 54.56V55.3C159.578 55.4333 159.538 55.5467 159.458 55.64C159.378 55.72 159.264 55.76 159.118 55.76H152.758V60.3H159.718C159.864 60.3 159.978 60.34 160.058 60.42C160.138 60.5 160.178 60.6133 160.178 60.76V61.54C160.178 61.6733 160.138 61.7867 160.058 61.88C159.978 61.96 159.864 62 159.718 62H151.298ZM163.167 62C163.033 62 162.92 61.96 162.827 61.88C162.747 61.7867 162.707 61.6733 162.707 61.54V52.06C162.707 51.9267 162.747 51.82 162.827 51.74C162.92 51.6467 163.033 51.6 163.167 51.6H164.107C164.24 51.6 164.347 51.6467 164.427 51.74C164.52 51.82 164.567 51.9267 164.567 52.06V52.94C164.913 52.4867 165.347 52.12 165.867 51.84C166.4 51.5467 167.08 51.4 167.907 51.4C168.773 51.4 169.507 51.5933 170.107 51.98C170.72 52.3533 171.18 52.88 171.487 53.56C171.793 54.2267 171.947 55.0067 171.947 55.9V61.54C171.947 61.6733 171.907 61.7867 171.827 61.88C171.747 61.96 171.64 62 171.507 62H170.507C170.373 62 170.26 61.96 170.167 61.88C170.087 61.7867 170.047 61.6733 170.047 61.54V56C170.047 55.0667 169.82 54.34 169.367 53.82C168.913 53.2867 168.247 53.02 167.367 53.02C166.54 53.02 165.873 53.2867 165.367 53.82C164.873 54.34 164.627 55.0667 164.627 56V61.54C164.627 61.6733 164.58 61.7867 164.487 61.88C164.407 61.96 164.3 62 164.167 62H163.167ZM178.635 62.2C177.902 62.2 177.269 62.0733 176.735 61.82C176.202 61.5533 175.762 61.2 175.415 60.76C175.082 60.3067 174.829 59.7933 174.655 59.22C174.495 58.6467 174.402 58.04 174.375 57.4C174.362 57.1867 174.355 56.9867 174.355 56.8C174.355 56.6133 174.362 56.4133 174.375 56.2C174.402 55.5733 174.495 54.9733 174.655 54.4C174.829 53.8267 175.082 53.3133 175.415 52.86C175.762 52.4067 176.202 52.0533 176.735 51.8C177.269 51.5333 177.902 51.4 178.635 51.4C179.422 51.4 180.075 51.54 180.595 51.82C181.115 52.1 181.542 52.4467 181.875 52.86V48.26C181.875 48.1267 181.915 48.02 181.995 47.94C182.089 47.8467 182.202 47.8 182.335 47.8H183.295C183.429 47.8 183.535 47.8467 183.615 47.94C183.709 48.02 183.755 48.1267 183.755 48.26V61.54C183.755 61.6733 183.709 61.7867 183.615 61.88C183.535 61.96 183.429 62 183.295 62H182.395C182.249 62 182.135 61.96 182.055 61.88C181.975 61.7867 181.935 61.6733 181.935 61.54V60.7C181.602 61.1267 181.169 61.4867 180.635 61.78C180.102 62.06 179.435 62.2 178.635 62.2ZM179.055 60.58C179.722 60.58 180.255 60.4267 180.655 60.12C181.055 59.8133 181.355 59.4267 181.555 58.96C181.755 58.48 181.862 57.9933 181.875 57.5C181.889 57.2867 181.895 57.0333 181.895 56.74C181.895 56.4333 181.889 56.1733 181.875 55.96C181.862 55.4933 181.749 55.0333 181.535 54.58C181.335 54.1267 181.029 53.7533 180.615 53.46C180.215 53.1667 179.695 53.02 179.055 53.02C178.375 53.02 177.835 53.1733 177.435 53.48C177.035 53.7733 176.749 54.1667 176.575 54.66C176.402 55.14 176.302 55.66 176.275 56.22C176.262 56.6067 176.262 56.9933 176.275 57.38C176.302 57.94 176.402 58.4667 176.575 58.96C176.749 59.44 177.035 59.8333 177.435 60.14C177.835 60.4333 178.375 60.58 179.055 60.58Z" fill="#3C3842"/>
<defs>
<linearGradient id="paint0_linear_23_31" x1="0" y1="116" x2="298" y2="116" gradientUnits="userSpaceOnUse">
<stop stop-color="#3603BC" stop-opacity="0.5"/>
<stop offset="1" stop-color="#8B5CF6"/>
</linearGradient>
</defs>
</svg>
