<svg width="36" height="36" viewBox="0 0 36 36" fill="none" xmlns="http://www.w3.org/2000/svg">
<path d="M18.0001 2.18945C9.53699 2.18945 2.6748 9.22952 2.6748 17.9047C2.6748 24.849 7.06715 30.7329 13.1562 32.8127C13.2416 32.8313 13.3288 32.8404 13.4162 32.8401C13.9841 32.8401 14.203 32.4227 14.203 32.0601C14.203 31.6838 14.1893 30.6986 14.1825 29.385C13.6755 29.5039 13.1569 29.5659 12.6363 29.5698C9.68751 29.5698 9.01702 27.2778 9.01702 27.2778C8.31917 25.4648 7.31345 24.979 7.31345 24.979C5.97933 24.0417 7.30661 24.0143 7.40923 24.0143H7.41607C8.95545 24.1512 9.76276 25.6427 9.76276 25.6427C10.529 26.9836 11.5553 27.3599 12.4721 27.3599C13.0783 27.3478 13.6751 27.2079 14.2235 26.9494C14.3604 25.9369 14.7572 25.2458 15.195 24.849C11.7947 24.4522 8.21655 23.1044 8.21655 17.0837C8.21655 15.3665 8.81177 13.9639 9.79013 12.8693C9.63277 12.4725 9.10596 10.8715 9.94065 8.70955C10.0526 8.68276 10.1677 8.67126 10.2827 8.67535C10.8369 8.67535 12.0889 8.88744 14.1551 10.3242C16.6657 9.62176 19.3209 9.62176 21.8315 10.3242C23.8976 8.88744 25.1497 8.67535 25.7038 8.67535C25.8189 8.67126 25.934 8.68276 26.0459 8.70955C26.8806 10.8715 26.3538 12.4725 26.1964 12.8693C27.1748 13.9708 27.77 15.3733 27.77 17.0837C27.77 23.1181 24.185 24.4454 20.771 24.8353C21.3183 25.3211 21.8109 26.2789 21.8109 27.7431C21.8109 29.8434 21.7904 31.5402 21.7904 32.0533C21.7904 32.4227 22.0025 32.8401 22.5703 32.8401C22.6623 32.8405 22.754 32.8313 22.844 32.8127C28.9399 30.7329 33.3254 24.8422 33.3254 17.9047C33.3254 9.22952 26.4633 2.18945 18.0001 2.18945Z" fill="#6D99F5"/>
</svg>
