<svg width="730" height="325" viewBox="0 0 730 325" fill="none" xmlns="http://www.w3.org/2000/svg">
<path d="M361 112C384.011 111.786 406.999 112.403 430 113C430 117.29 430 121.58 430 126C425.985 126.7 421.969 127.396 417.952 128.081C416.592 128.315 415.232 128.55 413.874 128.788C404.578 130.416 395.438 131.515 386 132C386.086 133.097 386.171 134.193 386.26 135.323C389.383 175.455 389.383 175.455 390 194C391.485 193.505 391.485 193.505 393 193C394.48 192.854 395.964 192.753 397.449 192.684C398.297 192.642 399.144 192.6 400.018 192.557C400.899 192.517 401.78 192.478 402.688 192.437C404.027 192.373 404.027 192.373 405.393 192.307C407.595 192.201 409.797 192.099 412 192C412.17 191.334 412.34 190.667 412.516 189.98C414.308 183.163 416.491 176.585 419 170C417.701 169.856 416.401 169.711 415.062 169.562C410.375 169.042 405.688 168.521 401 168C399.294 163.522 399 161.016 399 156C411.21 156 423.42 156 436 156C435.163 166.043 434.061 175.925 432.636 185.885C432.376 187.728 432.126 189.573 431.886 191.418C431.534 194.108 431.153 196.792 430.766 199.477C430.663 200.304 430.561 201.131 430.456 201.983C430.103 204.291 430.103 204.291 429 208C425.703 210.19 422.417 210.284 418.52 210.414C417.435 210.453 416.35 210.491 415.232 210.531C414.104 210.562 412.975 210.593 411.812 210.625C410.765 210.664 409.718 210.702 408.639 210.742C396.097 211.149 383.546 211.035 371 211C370.083 202 369.166 193 368.25 184C368.182 183.333 368.114 182.667 368.044 181.98C365.671 158.656 363.319 135.33 361 112Z" fill="white"/>
<path d="M452 112C455.96 112 459.92 112 464 112C465.641 119.772 466.861 127.55 467.945 135.418C468.12 136.675 468.295 137.931 468.475 139.226C468.841 141.867 469.206 144.508 469.569 147.15C470.032 150.52 470.502 153.888 470.974 157.256C471.427 160.497 471.873 163.739 472.32 166.98C472.489 168.182 472.658 169.383 472.832 170.62C472.985 171.749 473.139 172.877 473.297 174.04C473.433 175.024 473.569 176.009 473.71 177.024C474.033 180.335 474 183.673 474 187C479.94 187.99 485.88 188.98 492 190C492.061 187.53 492.121 185.06 492.184 182.516C492.381 174.499 492.583 166.482 492.787 158.465C492.927 152.96 493.061 147.455 493.192 141.95C493.272 138.614 493.356 135.278 493.441 131.943C493.48 130.355 493.518 128.768 493.554 127.181C493.605 124.976 493.661 122.771 493.719 120.566C493.749 119.318 493.779 118.07 493.81 116.783C494 114 494 114 495 113C497.353 112.927 499.708 112.916 502.062 112.938C503.353 112.947 504.643 112.956 505.973 112.965C506.972 112.976 507.971 112.988 509 113C510.123 121.738 510.521 130.509 510.973 139.301C511.061 140.986 511.149 142.67 511.237 144.355C511.421 147.876 511.604 151.397 511.784 154.918C512.015 159.399 512.25 163.881 512.487 168.362C512.67 171.839 512.851 175.317 513.03 178.794C513.116 180.445 513.202 182.096 513.29 183.746C513.77 192.839 514.134 201.89 514 211C501.493 211.176 489.051 210.619 476.562 210C474.559 209.903 472.556 209.807 470.553 209.711C465.702 209.478 460.851 209.24 456 209C454.572 189.848 453.631 170.69 452.875 151.5C452.831 150.399 452.786 149.298 452.741 148.164C452.259 136.101 451.889 124.073 452 112Z" fill="white"/>
<path d="M596 113C614.48 113 632.96 113 652 113C652 117.95 652 122.9 652 128C645.287 128.767 638.754 129.129 632 129C632.061 129.795 632.121 130.591 632.184 131.41C634.003 157.583 634.145 183.779 634 210C626.41 210 618.82 210 611 210C610.706 197.786 611.84 185.779 612.938 173.625C613.303 169.513 613.666 165.401 614.027 161.289C614.115 160.306 614.202 159.324 614.292 158.311C614.892 151.493 615.378 144.676 615.756 137.841C615.963 135.434 616.32 133.31 617 131C616.345 131.072 615.69 131.144 615.016 131.219C607.976 131.935 601.076 132.083 594 132C594.66 125.73 595.32 119.46 596 113Z" fill="white"/>
<path d="M167.424 0C169.065 0.820707 169.066 0.821173 169.967 3.42676C170.298 4.58671 170.622 5.7488 170.941 6.91211C171.306 8.19502 171.67 9.47806 172.035 10.7607C172.222 11.4252 172.409 12.0898 172.602 12.7744C173.494 15.916 174.434 19.0437 175.372 22.1719C175.745 23.4214 176.117 24.6712 176.489 25.9209C176.676 26.5468 176.863 27.1725 177.056 27.8174C179.895 37.3403 182.724 46.8641 185.414 56.4307C186.46 60.1313 187.556 63.8131 188.692 67.4873C188.96 68.3528 189.226 69.2187 189.502 70.1104C190.022 71.7848 190.547 73.4582 191.075 75.1299C191.309 75.881 191.542 76.6323 191.782 77.4062C192.096 78.4021 192.097 78.402 192.417 79.418C192.866 81.2499 192.866 81.2504 192.866 84.5332C205.454 84.6051 213.276 80.7531 223.514 73.7012C227.039 71.31 230.677 69.1079 234.312 66.8877C235.754 65.9963 237.196 65.1042 238.637 64.2109C239.348 63.7704 240.06 63.3298 240.793 62.876C242.893 61.5753 244.994 60.2742 247.094 58.9727C255.083 54.022 263.083 49.0865 271.09 44.1641C276.962 40.5523 282.835 36.9402 288.684 33.29C289.19 32.9748 289.696 32.6598 290.218 32.335C292.808 30.7145 295.374 29.0637 297.923 27.3779C298.456 27.0272 298.99 26.6768 299.54 26.3154C300.552 25.6478 301.56 24.9737 302.564 24.2939C303.72 23.5325 304.919 22.8386 306.124 22.1592C306.666 22.43 307.208 22.7005 307.766 22.9795C307.048 23.8174 307.048 23.818 306.316 24.6729C301.894 29.9024 297.69 35.2456 293.607 40.7441C290.413 45.0394 287.155 49.2804 283.862 53.5C283.374 54.1252 282.886 54.7504 282.384 55.3945C281.433 56.613 280.481 57.8314 279.53 59.0498C274.072 66.055 268.694 73.1229 263.302 80.1787C259.258 85.4687 255.199 90.7468 251.137 96.0225C250.427 96.9457 249.717 97.8696 249.008 98.793C248.478 99.4817 248.478 99.4818 247.938 100.185C247.24 101.093 246.543 102.002 245.848 102.912C244.325 104.9 242.786 106.867 241.195 108.802C238.205 112.455 236.726 115.183 235.543 119.823C234.209 121.824 234.209 121.824 232.26 123.106C228.848 123.666 226.95 123.882 223.992 122.055C222.514 120.831 221.174 119.659 219.949 118.182V116.54C216.149 115.06 212.737 114.647 208.7 114.652C207.808 114.647 207.808 114.647 206.897 114.642C205.644 114.637 204.391 114.636 203.138 114.64C201.241 114.642 199.346 114.623 197.449 114.603C191.206 114.575 185.497 114.675 179.734 117.361C178.98 117.68 178.226 117.998 177.449 118.326C172.002 121.045 167.228 124.123 162.91 128.44C161.25 130.101 159.715 131.381 157.832 132.749C153.655 135.811 149.876 139.28 146.086 142.803C145.632 143.222 145.178 143.641 144.711 144.072C139.606 148.951 139.611 154.465 139.386 161.17C139.359 162.485 139.336 163.801 139.315 165.116C139.289 166.067 139.289 166.067 139.262 167.037C139.218 174.607 143.424 179.563 147.728 185.479C148.303 186.275 148.879 187.071 149.472 187.891C151.79 190.441 153.977 191.869 157.414 192.404C158.251 192.428 159.087 192.451 159.949 192.476C160.902 192.508 161.854 192.541 162.836 192.574C163.856 192.597 164.876 192.621 165.927 192.645C166.978 192.677 168.029 192.711 169.111 192.745C171.894 192.832 174.678 192.905 177.462 192.976C180.306 193.05 183.15 193.137 185.994 193.224C191.567 193.39 197.141 193.543 202.715 193.687C202.678 189.949 202.62 186.213 202.544 182.477C202.521 181.208 202.504 179.939 202.492 178.67C202.615 168.794 202.615 168.794 198.611 160.038C196.465 159.112 196.465 159.112 194.508 159.217C194.477 159.901 194.447 160.586 194.415 161.291C193.993 168.523 193.201 175.394 188.763 181.376H187.121C186.85 182.188 186.58 183.002 186.301 183.839C183.3 185.839 181.715 185.725 178.145 185.736C176.636 185.757 176.635 185.757 175.096 185.778C172.142 185.458 171.263 184.889 169.065 183.018C167.412 182.475 167.412 182.475 165.731 182.197C163.143 181.606 161.572 181.215 160.038 178.914C157.88 174.88 158.082 170.757 158.089 166.296C158.09 165.095 158.09 165.095 158.091 163.869C158.228 155.393 159.56 147.618 164.142 140.341C164.491 139.643 164.84 138.944 165.199 138.225C168.118 132.387 172.053 126.127 178.094 123.106C191.385 122.301 204.981 122.561 218.154 124.491C219.012 124.613 219.87 124.735 220.754 124.86C226.194 125.754 231.024 127.385 236.127 129.447C240.563 131.165 245.119 132.405 249.7 133.673C250.693 133.952 251.685 134.231 252.708 134.519C255.739 135.37 258.772 136.214 261.806 137.058C264.449 137.796 267.093 138.534 269.736 139.273C271.428 139.746 273.12 140.219 274.812 140.69C281.399 142.53 287.961 144.45 294.521 146.383C301.859 148.53 309.237 150.519 316.629 152.471C317.485 152.698 318.341 152.924 319.223 153.158C320.363 153.458 320.363 153.458 321.526 153.764C323.359 154.293 323.359 154.293 325 155.113V156.755C316.584 159.114 308.155 161.42 299.712 163.68C293.11 165.447 286.527 167.264 279.964 169.168C273.745 170.971 267.498 172.597 261.206 174.126C256.006 175.403 250.878 176.867 245.773 178.484C242.794 179.404 240.289 179.812 237.185 179.734C236.866 187.488 240.444 192.441 244.776 198.56C245.459 199.549 246.139 200.539 246.818 201.53C248.172 203.5 249.533 205.463 250.904 207.421C252.905 210.282 254.875 213.163 256.838 216.05C258.09 217.889 259.349 219.723 260.609 221.556C264.107 226.648 267.571 231.764 271.038 236.877C271.703 237.857 272.368 238.836 273.033 239.816C274.369 241.785 275.704 243.755 277.039 245.724C277.706 246.707 278.373 247.69 279.04 248.674C279.37 249.16 279.7 249.647 280.04 250.148C282.27 253.436 284.502 256.724 286.734 260.011C287.59 261.272 287.59 261.272 288.463 262.56C291.291 266.723 294.148 270.857 297.096 274.937C296.825 275.478 296.554 276.02 296.275 276.578C295.516 276.079 294.756 275.58 293.974 275.065C285.819 269.734 277.558 264.589 269.252 259.497C263.194 255.783 257.157 252.038 251.137 248.264C244.076 243.84 236.996 239.448 229.9 235.081C229.028 234.544 228.155 234.007 227.256 233.453C225.605 232.438 223.953 231.426 222.299 230.416C220.729 229.455 219.164 228.485 217.604 227.507C216.876 227.056 216.148 226.604 215.397 226.14C214.758 225.739 214.117 225.339 213.458 224.926C209.917 223.125 207.152 224.5 203.6 225.649C201.895 226.211 200.195 226.789 198.502 227.387C196.35 228.09 194.266 228.555 192.046 228.978C191.932 229.448 191.817 229.919 191.699 230.404C190.49 235.386 189.278 240.367 188.063 245.348C187.613 247.197 187.163 249.046 186.714 250.896C182.449 268.469 182.45 268.47 180.139 276.581C178.478 282.412 177.012 288.281 175.596 294.176C175.384 295.055 175.173 295.934 174.955 296.84C174.083 300.474 173.213 304.11 172.352 307.747C171.712 310.44 171.064 313.131 170.415 315.821C170.221 316.65 170.027 317.48 169.827 318.334C169.551 319.47 169.552 319.47 169.271 320.629C169.112 321.297 168.953 321.965 168.789 322.653C168.245 324.179 168.245 324.179 166.604 325C159.449 294.309 159.449 294.309 156.755 281.503C154.509 270.829 152.055 260.206 149.57 249.586C149.347 248.626 149.346 248.625 149.118 247.646C148.82 246.368 148.52 245.091 148.218 243.814C147.434 240.469 146.734 237.127 146.14 233.742C146.011 233.041 145.882 232.339 145.749 231.616C145.507 230.283 145.282 228.947 145.077 227.607C144.063 222.129 141.356 219.517 136.879 216.405C134.554 214.941 132.406 213.724 129.672 213.384C127.892 214.064 127.892 214.065 126.136 215.228C125.113 215.854 125.113 215.854 124.069 216.492C123.009 217.163 123.009 217.163 121.927 217.847C120.909 218.474 120.908 218.474 119.87 219.114C118.439 219.998 117.011 220.886 115.585 221.778C113.064 223.354 110.533 224.914 108 226.471C104.561 228.585 101.122 230.701 97.6865 232.821C87.741 238.953 77.7739 245.048 67.7803 251.102C60.1921 255.699 52.6388 260.349 45.1387 265.089C45.1387 261.564 47.1139 259.497 49.0889 256.728C49.9236 255.536 50.7584 254.345 51.5928 253.153C52.0218 252.545 52.4505 251.936 52.8926 251.309C54.844 248.531 56.7618 245.73 58.6807 242.93C59.436 241.831 60.1916 240.732 60.9473 239.634C62.4217 237.489 63.8945 235.343 65.3652 233.196C69.4636 227.218 73.5957 221.265 77.7617 215.333C82.476 208.619 87.1184 201.858 91.7246 195.069C92.2024 194.366 92.6805 193.662 93.1729 192.937C93.637 192.248 94.1008 191.559 94.5791 190.85C95.5792 189.403 96.6098 187.978 97.6631 186.569C98.1903 185.859 98.7176 185.147 99.2607 184.415C99.7422 183.784 100.224 183.152 100.72 182.502C102.525 179.148 101.852 175.922 100.947 172.349C100.368 172.228 99.7876 172.108 99.1904 171.983C93.754 170.795 88.4611 169.373 83.1475 167.732C76.0293 165.549 68.8586 163.612 61.6553 161.73C49.4816 158.543 37.3379 155.248 25.207 151.901C23.1766 151.342 21.1449 150.784 19.1133 150.229C16.2458 149.444 13.3806 148.652 10.5156 147.858C9.64336 147.621 8.77075 147.384 7.87207 147.14C7.07401 146.917 6.27537 146.694 5.45312 146.465C4.75374 146.272 4.05456 146.078 3.33398 145.88C1.64193 145.265 1.64127 145.265 0 143.624C21.5512 138.834 43.2266 134.645 64.8848 130.372C69.9809 129.366 75.0771 128.358 80.1729 127.351C90.1064 125.387 100.04 123.425 109.975 121.465C109.064 120.028 108.153 118.592 107.241 117.156C106.734 116.357 106.226 115.557 105.703 114.733C103.835 111.822 101.895 108.968 99.9209 106.128C99.1386 104.996 98.3564 103.864 97.5742 102.732C97.1812 102.165 96.7887 101.597 96.3838 101.013C94.479 98.2596 92.584 95.4997 90.6885 92.7402C89.9309 91.6385 89.1727 90.5363 88.415 89.4346C86.9625 87.3219 85.5113 85.2083 84.0615 83.0938C79.1089 75.8738 74.113 68.684 69.1055 61.502C65.1829 55.8674 61.3057 50.2034 57.4492 44.5234C53.4479 38.6312 49.4086 32.7853 45.1387 27.083C47.8601 27.083 48.3197 27.3831 50.4316 28.9199C50.9852 29.3175 51.539 29.7154 52.1094 30.125C52.7036 30.5599 53.2979 30.9952 53.9102 31.4434C55.1813 32.3578 56.4534 33.2716 57.7256 34.1846C58.3684 34.6477 59.0115 35.1107 59.6738 35.5879C62.4113 37.545 65.1853 39.4462 67.9648 41.3428C72.9636 44.7638 77.933 48.2251 82.8916 51.7041C87.7999 55.1474 92.7175 58.5757 97.6641 61.9639C102.611 65.352 107.528 68.7796 112.437 72.2227C122.752 79.4558 133.113 86.6132 143.624 93.5605C143.745 92.261 143.744 92.2605 143.867 90.9346C144.486 86.0076 145.833 81.2689 147.111 76.4795C147.5 75.0026 147.501 75.0027 147.897 73.4961C148.658 70.6085 149.423 67.722 150.189 64.8359C150.73 62.7822 151.27 60.728 151.81 58.6738C152.295 56.825 152.783 54.9763 153.271 53.1279C154.441 48.6891 155.597 44.2468 156.755 39.8047C157.378 37.417 158.001 35.0292 158.624 32.6416C159.006 31.1774 159.387 29.7124 159.769 28.248C162.23 18.8062 164.786 9.3943 167.424 0ZM155.113 224.874C156.331 232.073 157.841 239.208 159.364 246.347C159.854 248.634 160.344 250.922 160.828 253.211C162.781 262.444 164.869 271.595 167.424 280.682C169.065 279.04 169.066 279.04 169.657 277.252C169.844 276.488 170.024 275.746 170.205 275.004C170.42 274.137 170.628 273.296 170.836 272.454C171.062 271.512 171.282 270.597 171.502 269.683C171.976 267.747 172.449 265.811 172.922 263.875C173.659 260.822 174.396 257.769 175.143 254.718C175.63 252.731 176.115 250.744 176.6 248.757C176.837 247.779 177.068 246.831 177.299 245.882C178.869 239.455 180.269 233.039 181.376 226.516C176.659 225.834 171.993 225.52 167.231 225.331C166.32 225.298 165.436 225.265 164.552 225.232C161.406 225.11 158.26 224.989 155.113 224.874ZM234.723 205.177C234.234 205.735 233.76 206.277 233.286 206.818C231.753 208.863 230.171 210.719 228.464 212.614C226.584 214.687 225.203 216.572 224.053 219.129C226.982 220.969 229.914 222.805 232.85 224.634C235.194 226.093 237.536 227.557 239.874 229.026C241.8 230.238 243.728 231.445 245.659 232.649C246.63 233.254 247.601 233.86 248.571 234.466C249.532 235.072 250.494 235.679 251.455 236.285C252.373 236.856 253.265 237.41 254.156 237.964C256.586 239.485 256.586 239.485 258.522 240.467C259.351 240.052 259.352 240.053 260.164 239.646C256.239 233.706 252.247 227.817 248.213 221.95C245.212 217.598 242.292 213.232 239.544 208.716C238.307 206.603 238.307 206.603 237.185 205.177H234.723ZM105.051 194.508C100.512 200.646 96.1462 206.889 91.8359 213.188C89.7651 216.218 87.6871 219.243 85.6074 222.267C84.7982 223.443 83.9895 224.619 83.1807 225.796C82.8089 226.337 82.4478 226.862 82.0869 227.387C81.25 228.604 81.2499 228.605 80.4297 229.798C82.8914 229.798 82.8918 229.798 84.6904 228.792C88.4856 226.259 92.31 223.79 96.2236 221.444C97.2201 220.849 98.2159 220.253 99.2109 219.655C100.729 218.743 102.249 217.832 103.769 216.923C105.315 216.003 106.86 215.082 108.402 214.154C109.143 213.708 109.143 213.709 109.869 213.271C113.048 211.372 115.671 209.549 118.182 206.818C113.957 202.507 109.697 198.363 105.051 194.508ZM208.46 96.8438C204.839 96.7615 201.7 97.566 198.152 97.8066C197.349 97.8269 196.57 97.8466 195.79 97.8662C193.995 97.9218 192.2 97.9742 190.404 98.0234C180.284 98.2725 170.514 99.4079 160.858 102.589C157.977 103.827 155.149 105.038 152.177 106.044C139.858 109.949 131.022 113.756 123.639 124.783C122.591 126.376 121.546 127.927 120.369 129.427C113.021 138.722 113.022 138.722 113.604 164.623C113.622 165.294 113.64 165.945 113.658 166.597C113.687 167.814 113.725 169.031 113.774 170.248C114.643 178.601 124.319 188.003 130.544 193.328C132.14 194.677 133.625 195.975 134.997 197.553C135.766 198.511 136.546 199.461 137.334 200.403C145.556 209.378 156.586 215.104 168.738 215.752C169.408 215.784 170.057 215.815 170.707 215.846C176.06 216.171 181.395 216.38 186.759 216.272C195.329 215.822 204.087 213.145 210.101 206.818C203.511 206.675 196.921 206.521 190.332 206.354C186.965 206.268 183.598 206.181 180.23 206.106C176.94 206.036 173.649 205.963 170.358 205.876C169.099 205.842 167.84 205.809 166.581 205.776C158.046 205.613 149.04 206.079 142.357 199.894C134.101 191.04 125.952 179.847 126.059 167.347C126.084 166.571 126.108 165.817 126.133 165.064C126.239 158.774 126.2 152.31 127.21 146.086C128.064 145.232 128.064 145.231 130.287 140.905C131.625 138.268 132.687 136.47 134.93 134.525C137.058 132.955 137.058 132.954 138.994 131.22C142.351 128.132 145.716 125.174 149.369 122.439C151.164 121.141 151.164 121.141 152.651 119.823C153.17 118.715 153.714 117.618 154.293 116.54C154.831 116.384 155.354 116.233 155.877 116.082C157.576 115.72 157.576 115.719 158.813 114.613C168.895 103.924 184.036 101.928 197.893 101.306C198.686 101.278 199.457 101.253 200.227 101.227C200.97 101.2 201.692 101.175 202.413 101.149C204.532 101.085 205.737 101.077 207.639 100.126C208.152 98.4336 208.152 98.4336 208.46 96.8438ZM191.789 135.775C185.36 135.616 181.219 135.689 178.062 142.062C177.571 143.707 177.081 145.309 176.452 146.906C171.235 153.734 171.17 161.559 171.527 169.887C174.699 171.283 176.357 171.672 179.734 170.707C180.904 166.184 181.52 161.939 181.786 157.268C181.937 153.806 181.896 152.282 183.838 149.369C187.492 147.416 190.299 146.606 194.516 146.61C195.088 146.624 195.644 146.637 196.2 146.65C200.297 146.631 203.786 147.039 207.639 148.548C207.639 150.189 207.639 150.189 208.421 151.497C212.601 157.641 215.376 163.652 215.46 171.167C215.45 171.905 215.442 172.622 215.433 173.339C215.435 174.902 215.435 176.465 215.434 178.027C215.407 180.457 215.385 182.886 215.392 185.316C215.399 186.919 215.4 188.521 215.395 190.123C215.39 190.904 215.385 191.663 215.381 192.421C215.394 196.276 215.499 199.292 213.771 202.794C213.361 203.325 212.962 203.841 212.563 204.356L214.204 205.177C214.795 204.625 215.369 204.09 215.942 203.555C216.712 202.816 217.458 202.098 218.205 201.381C220.456 199.246 220.456 199.246 222.411 196.97C228.107 184.617 228.108 184.617 217.765 155.445C217.392 154.408 217.029 153.402 216.667 152.396C216.131 150.888 216.13 150.887 215.604 149.41C215.251 148.458 214.907 147.533 214.563 146.608C213.637 144.088 213.637 144.087 212.563 141.982C207.513 137.339 200.814 135.817 194.134 135.748C193.337 135.757 192.563 135.766 191.789 135.775ZM242.93 167.424C248.236 167.424 248.236 167.424 259.805 163.937C265.893 162.091 272.036 160.552 278.22 159.063C279.124 158.852 280.001 158.647 280.879 158.442C281.718 158.241 282.534 158.045 283.349 157.849C284.103 157.672 284.835 157.5 285.567 157.328C287.247 156.755 287.248 156.755 288.068 155.113C279.883 152.896 271.75 150.557 263.652 148.035C256.779 145.849 250.038 144.326 242.93 142.803V167.424ZM100.126 134.596C96.8435 134.596 96.8434 134.596 94.6016 134.959C93.7181 135.134 92.8604 135.304 92.0029 135.474C90.9984 135.671 90.0229 135.864 89.0479 136.056C87.4461 136.376 85.8444 136.697 84.2422 137.016C81.9888 137.463 79.735 137.912 77.4824 138.363C74.558 138.95 71.6333 139.535 68.707 140.113C66.4217 140.564 64.1368 141.018 61.8525 141.475C60.7612 141.693 59.6696 141.912 58.5781 142.13C57.4964 142.343 56.4464 142.55 55.3965 142.757C54.392 142.96 53.4173 143.157 52.4424 143.354C49.4646 143.949 46.9717 144.595 44.3184 146.086C49.9096 147.886 55.4852 149.525 61.1943 150.907C65.5694 151.964 69.8801 153.155 74.1846 154.471C82.2216 156.943 90.2729 159.05 98.4844 160.858C99.4549 152.089 100.449 143.432 100.126 134.596ZM86.1738 67.2979C89.5119 72.6347 92.9462 77.8827 96.5527 83.042C99.9477 87.874 103.353 92.6994 106.668 97.5869C107.451 98.751 107.451 98.7514 108.218 99.8926C109.18 101.321 110.143 102.749 111.104 104.179C111.561 104.869 112.004 105.539 112.448 106.209C112.869 106.834 113.279 107.441 113.688 108.048C114.763 109.663 114.762 109.664 115.72 110.796C117.361 110.796 117.361 110.795 118.813 109.388C120.846 107.305 123.028 105.57 125.312 103.769C127.925 101.716 129.435 100.836 130.492 97.6641C125.56 94.0169 120.576 90.4598 115.515 86.9951C112.319 84.8114 109.126 82.6232 105.951 80.4092C104.668 79.5111 104.667 79.5113 103.409 78.6309C101.699 77.4354 99.9889 76.2391 98.2793 75.043C97.4334 74.4485 96.6121 73.8719 95.791 73.2949C94.6063 72.4668 94.6065 72.466 93.4453 71.6543C91.083 69.9971 88.7894 68.5209 86.1738 67.2979ZM262.626 61.5527C258.29 64.3842 258.29 64.3849 253.9 67.1338C252.608 67.9421 252.608 67.9421 251.342 68.7344C246.819 71.5715 242.296 74.4062 237.719 77.1553C236.802 77.7004 235.913 78.2297 235.023 78.7588C233.316 79.7784 231.609 80.7973 229.9 81.8145C228.663 82.5368 228.663 82.5371 227.449 83.2451C226.307 83.9263 226.307 83.9261 225.188 84.5938C222.463 86.1938 221.132 87.3182 219.949 90.2773C220.962 91.6148 221.976 92.9518 222.998 94.2822C223.426 94.8391 223.842 95.3794 224.258 95.9199C224.673 96.4703 225.076 97.0048 225.479 97.5391C225.888 98.0676 226.285 98.5807 226.682 99.0938C228.329 101.251 229.766 102.321 232.26 103.409C236.219 98.335 240.152 93.24 244.074 88.1367C245.474 86.3155 246.873 84.4943 248.273 82.6738C248.954 81.7891 249.635 80.9035 250.315 80.0186C252.058 77.7433 253.8 75.4678 255.577 73.2188C256.174 72.4663 256.175 72.466 256.76 71.7285C257.518 70.7645 258.277 69.8006 259.036 68.8369C261.012 66.3818 262.626 64.8471 262.626 61.5527ZM168.245 38.5732C166.612 43.2328 165.216 47.916 163.981 52.6963C163.565 54.3291 163.148 55.9618 162.729 57.5938C162.509 58.446 162.296 59.2734 162.083 60.1006C161.508 62.3367 160.93 64.5711 160.327 66.7998C160.161 67.4018 160 67.986 159.839 68.5703C159.547 69.6338 159.255 70.6977 158.961 71.7607C157.842 75.7591 157.207 79.5952 156.755 83.7119C164.998 83.7888 173.18 83.923 181.376 82.8916C181.539 78.2815 181.539 78.2811 178.16 68.3691C176.085 62.2908 174.325 56.1617 172.656 49.9609C172.403 49.0128 172.158 48.0922 171.912 47.1719C171.666 46.2694 171.427 45.3926 171.188 44.5166C170.47 41.8393 170.216 40.5443 168.245 38.5732Z" fill="white"/>
<path d="M686.295 112.8C688.707 112.891 691.119 112.981 693.531 113.07C697.009 113.199 700.487 113.331 703.965 113.465C705.034 113.503 706.103 113.542 707.204 113.582C713.182 113.816 719.063 114.261 725 115C725.76 119.148 726.188 123.179 726.373 127.391C726.43 128.641 726.486 129.891 726.545 131.179C726.603 132.536 726.661 133.893 726.719 135.25C726.782 136.668 726.845 138.087 726.909 139.506C727.076 143.245 727.239 146.985 727.401 150.725C727.563 154.449 727.729 158.174 727.894 161.898C728.149 167.63 728.401 173.362 728.652 179.094C729.089 189.063 729.542 199.032 730 209C723.25 211 723.25 211 721 211L711 182C701.988 182.601 692.995 183.213 684 184L683.703 185.914C682.386 193.794 680.299 201.354 678 209H671C669.281 186.468 667.699 163.93 666.312 141.375C666.246 140.306 666.18 139.236 666.111 138.135C665.922 135.077 665.736 132.019 665.551 128.961C665.495 128.055 665.439 127.15 665.381 126.217C665.099 121.467 664.943 116.758 665 112C672.098 112.262 679.197 112.529 686.295 112.8ZM691 133C690.424 135.306 689.861 137.615 689.336 139.933C688.959 141.632 688.959 141.632 688.59 143.297L687.779 146.949L686.937 150.75C685.958 155.167 684.978 159.583 684 164C687 166 687 166 689.268 166.228C690.159 166.217 691.023 166.206 691.887 166.195L694.728 166.176L697.687 166.125C701.125 166.094 704.563 166.058 708 166C708 162 708 162 707.357 158.884L706.469 155.266C705.985 153.279 705.5 151.293 705.009 149.309C704.668 147.93 704.328 146.55 703.99 145.171C702.999 141.113 702.003 137.055 701 133H691Z" fill="white"/>
<path d="M526 112C530.167 112.118 534.333 112.245 538.5 112.375L541.879 112.469C556.936 112.952 571.968 114.024 587 115C587.526 125.189 588.047 135.377 588.564 145.566C588.805 150.299 589.046 155.032 589.291 159.765C589.528 164.342 589.761 168.919 589.991 173.497C590.079 175.233 590.168 176.969 590.259 178.704C590.786 188.816 591.13 198.871 591 209L582 211C580.714 207.193 579.433 203.384 578.155 199.574C577.72 198.278 577.283 196.982 576.846 195.687C576.217 193.826 575.593 191.964 574.969 190.102C574.592 188.981 574.215 187.861 573.826 186.706C573 184 573 184 573 182L545 184L543 195C542.506 197.194 541.992 199.383 541.438 201.562L540.684 204.566C540 207 540 207 539 209C537 209.043 535 209.041 533 209C531.075 207.075 531.598 203.539 531.443 200.904C531.396 200.161 531.349 199.417 531.3 198.651C531.143 196.174 530.994 193.696 530.844 191.219C530.736 189.49 530.627 187.76 530.519 186.031C530.232 181.455 529.952 176.878 529.672 172.301C529.39 167.709 529.103 163.118 528.816 158.527C527.851 143.02 526.905 127.511 526 112ZM552 133C551.42 135.443 550.842 137.887 550.271 140.332L549.562 143.375C547.845 150.58 546.535 157.605 546 165C553.255 166.185 553.255 166.185 569 166C568.586 159.435 567.47 153.3 565.779 146.945L564.938 143.875C563.966 140.248 562.989 136.623 562 133H552Z" fill="white"/>
<path d="M703 86C707.01 87.604 710.899 89.3066 714.812 91.125C715.974 91.6638 717.135 92.2027 718.332 92.7578C719.212 93.1677 720.093 93.5777 721 94C721 94.66 721 95.32 721 96C717.379 97.6233 713.75 99.2257 710.111 100.81C708.875 101.351 707.641 101.898 706.41 102.451C704.639 103.245 702.859 104.017 701.078 104.789C699.476 105.496 699.476 105.496 697.841 106.217C695 107 695 107 692.808 106.388C691 105 691 105 688 101C692.95 96.05 697.9 91.1 703 86Z" fill="white"/>
</svg>
