<svg width="34" height="34" viewBox="0 0 34 34" fill="none" xmlns="http://www.w3.org/2000/svg">
<path d="M29.1281 2.07739H5.02977C3.71299 2.07739 2.5625 3.02485 2.5625 4.32616V28.478C2.5625 29.7864 3.71299 30.9524 5.02977 30.9524H29.1211C30.4449 30.9524 31.4375 29.7787 31.4375 28.478V4.32616C31.4452 3.02485 30.4449 2.07739 29.1281 2.07739ZM11.5131 26.1461H7.3765V13.2845H11.5131V26.1461ZM9.58789 11.329H9.55824C8.23437 11.329 7.37715 10.3435 7.37715 9.10987C7.37715 7.85368 8.25693 6.8914 9.61045 6.8914C10.964 6.8914 11.7922 7.84659 11.8218 9.10987C11.8212 10.3435 10.964 11.329 9.58789 11.329ZM26.6312 26.1461H22.4946V19.1136C22.4946 17.4288 21.8926 16.2777 20.396 16.2777C19.2526 16.2777 18.5759 17.0511 18.2749 17.8046C18.1621 18.0753 18.1318 18.444 18.1318 18.8204V26.1461H13.9952V13.2845H18.1318V15.0744C18.7338 14.2171 19.6742 12.9835 21.8623 12.9835C24.5778 12.9835 26.6319 14.7734 26.6319 18.6322L26.6312 26.1461Z" fill="#6D99F5"/>
</svg>
