<svg width="104" height="44" viewBox="0 0 104 44" fill="none" xmlns="http://www.w3.org/2000/svg">
<path d="M65.8921 24.157L62.5225 32.2781L59.1993 24.157H56.4691L61.1806 35.5266H63.6768L68.404 24.157H65.8921ZM76.7407 31.1899C76.7407 28.38 74.8375 26.6583 72.3726 26.6583C69.8144 26.6583 67.8956 28.5424 67.8956 31.1574C67.8956 33.7562 69.7831 35.6565 72.6847 35.6565C74.1981 35.6565 75.368 35.1693 76.1482 34.2434L74.8531 32.7817C74.2763 33.3501 73.6363 33.6263 72.7473 33.6263C71.4679 33.6263 70.5789 32.9603 70.3449 31.8721H76.6943C76.7099 31.6609 76.7407 31.3848 76.7407 31.1899ZM72.3882 28.5749C73.4805 28.5749 74.2763 29.2896 74.4477 30.3941H70.3136C70.485 29.2733 71.2808 28.5749 72.3882 28.5749ZM80.781 33.5775L85.0558 28.315V26.7883H77.8168V28.7374H81.9822L77.7079 33.9998V35.5266H85.196V33.5775H80.781Z" fill="#2F396F"/>
<path d="M68.2096 7.68216L63.5143 16.1119L58.7715 7.68216H57.8199V19.0517H58.9273V10.0048L63.2177 17.6062H63.7639L68.0538 9.95607V19.0517H69.1617V7.68216H68.2096ZM73.0473 8.64048C73.5153 8.64048 73.8587 8.26687 73.8587 7.79588C73.8587 7.35733 73.4996 7 73.0473 7C72.595 7 72.2359 7.37355 72.2359 7.8121C72.2359 8.26687 72.595 8.64048 73.0473 8.64048ZM72.4855 19.0517H73.5935V10.5083H72.4855V19.0517ZM80.8562 10.4433C79.4366 10.4433 78.3293 11.0443 77.7362 12.0838V10.5083H76.6752V19.0517H77.7831V14.5689C77.7831 12.6198 78.8905 11.4828 80.6535 11.4828C82.2137 11.4828 83.1184 12.4086 83.1184 14.2116V19.0517H84.2264V14.0978C84.2264 11.6453 82.8532 10.4433 80.8562 10.4433ZM91.4142 10.4433C90.0259 10.4433 88.9492 11.0118 88.3411 12.0026V7H87.2331V19.0517H88.3411V14.5689C88.3411 12.6198 89.4485 11.4828 91.2114 11.4828C92.7717 11.4828 93.6764 12.4086 93.6764 14.2116V19.0517H94.7838V14.0978C94.7838 11.6453 93.4111 10.4433 91.4142 10.4433ZM100.662 10.4433C99.367 10.4433 98.1502 10.8657 97.3231 11.5965L97.8224 12.4574C98.493 11.8402 99.4915 11.4504 100.553 11.4504C102.082 11.4504 102.877 12.2462 102.877 13.708V14.2278H100.272C97.9162 14.2278 97.1048 15.3323 97.1048 16.6479C97.1048 18.1259 98.2434 19.1329 100.1 19.1329C101.457 19.1329 102.424 18.5969 102.924 17.7198V19.0517H103.985V13.7567C103.985 11.5478 102.784 10.4433 100.662 10.4433ZM100.272 18.2234C98.961 18.2234 98.1971 17.6062 98.1971 16.6154C98.1971 15.7383 98.7114 15.0886 100.303 15.0886H102.877V16.4855C102.44 17.6062 101.52 18.2234 100.272 18.2234Z" fill="#2F396F"/>
<path d="M50.6763 20.6151C51.1779 21.4782 51.1779 22.5216 50.6763 23.3847L39.5701 42.4948C39.0308 43.4226 37.9954 44 36.8701 44H14.9491C13.8239 44 12.7885 43.4226 12.2492 42.4948L1.14298 23.3847C0.641385 22.5216 0.641388 21.4782 1.14298 20.6151L12.2492 1.505C12.7885 0.577187 13.8239 -4.62005e-08 14.9491 0L36.8701 9.00051e-07C37.9954 9.46252e-07 39.0308 0.577187 39.5701 1.505L50.6763 20.6151Z" fill="url(#paint0_linear_5247_1425)"/>
<path fill-rule="evenodd" clip-rule="evenodd" d="M31.0571 20.1275C30.2068 21.1376 29.1203 21.6942 27.9966 21.6942C26.8724 21.6942 25.7865 21.1376 24.9383 20.1268C24.1131 19.1428 23.6086 17.8294 23.5174 16.4282C23.4223 14.9481 23.8338 13.5779 24.6793 12.5701C25.5166 11.5721 26.6943 11.0228 27.9966 11.0228C29.3083 11.0228 30.4827 11.5624 31.3227 12.5628C32.1627 13.5633 32.5732 14.936 32.4781 16.4288C32.389 17.8282 31.884 19.1421 31.0571 20.1275ZM23.3994 32.3657H35.2008C35.4325 32.3671 35.6613 32.3095 35.8698 32.1973C36.0782 32.0851 36.2607 31.9214 36.4031 31.7187C36.5543 31.499 36.6586 31.2442 36.7084 30.9734C36.7582 30.7026 36.7521 30.4228 36.6906 30.155C36.2305 28.105 35.0904 26.4048 33.394 25.2389C31.8884 24.2045 29.9717 23.6345 27.9966 23.6345C27.2043 23.6345 26.4349 23.7189 25.7007 23.8844C26.0707 24.742 26.2766 25.6931 26.2766 26.6941C26.2766 29.0502 25.1365 31.1292 23.3994 32.3657Z" fill="white"/>
<path d="M19.71 21.0227C16.6867 21.0227 14.2356 23.5746 14.2356 26.7222C14.2356 29.8698 16.6867 32.4218 19.71 32.4218C22.7334 32.4218 25.1845 29.8698 25.1845 26.7222C25.1845 23.5746 22.7334 21.0227 19.71 21.0227ZM22.2367 27.599H19.71C19.5984 27.599 19.4913 27.5528 19.4123 27.4707C19.3333 27.3884 19.289 27.2769 19.289 27.1606V23.2148C19.289 23.0985 19.3333 22.987 19.4123 22.9048C19.4913 22.8226 19.5984 22.7764 19.71 22.7764C19.8217 22.7764 19.9289 22.8226 20.0078 22.9048C20.0868 22.987 20.1312 23.0985 20.1312 23.2148V26.7222H22.2367C22.3484 26.7222 22.4555 26.7684 22.5345 26.8506C22.6135 26.9328 22.6579 27.0443 22.6579 27.1606C22.6579 27.2769 22.6135 27.3884 22.5345 27.4707C22.4555 27.5528 22.3484 27.599 22.2367 27.599Z" fill="white"/>
<defs>
<linearGradient id="paint0_linear_5247_1425" x1="38.2486" y1="-0.643798" x2="15.4274" y2="44.8877" gradientUnits="userSpaceOnUse">
<stop offset="0.588542" stop-color="#6174D1"/>
<stop offset="1" stop-color="#5464B6"/>
</linearGradient>
</defs>
</svg>
