<svg width="208" height="134" viewBox="0 0 208 134" fill="none" xmlns="http://www.w3.org/2000/svg">
<rect opacity="0.75" x="0.5" y="0.5" width="207" height="97" rx="23.5" fill="#FDFDFD" stroke="#E1D8ED"/>
<rect x="24" y="98" width="160" height="36" rx="16" fill="white"/>
<rect x="24" y="98" width="160" height="36" rx="16" fill="url(#paint0_linear_23_30)"/>
<path d="M79.76 121C79.6427 121 79.552 120.968 79.488 120.904C79.424 120.829 79.392 120.739 79.392 120.632V110.184C79.392 110.067 79.424 109.976 79.488 109.912C79.552 109.837 79.6427 109.8 79.76 109.8H86.288C86.4053 109.8 86.496 109.837 86.56 109.912C86.624 109.976 86.656 110.067 86.656 110.184V110.824C86.656 110.941 86.624 111.032 86.56 111.096C86.496 111.16 86.4053 111.192 86.288 111.192H80.944V114.92H85.968C86.0853 114.92 86.176 114.957 86.24 115.032C86.304 115.096 86.336 115.187 86.336 115.304V115.944C86.336 116.051 86.304 116.141 86.24 116.216C86.176 116.28 86.0853 116.312 85.968 116.312H80.944V120.632C80.944 120.739 80.9067 120.829 80.832 120.904C80.768 120.968 80.6773 121 80.56 121H79.76ZM88.9118 121C88.8051 121 88.7144 120.968 88.6398 120.904C88.5758 120.829 88.5438 120.739 88.5438 120.632V110.008C88.5438 109.901 88.5758 109.816 88.6398 109.752C88.7144 109.677 88.8051 109.64 88.9118 109.64H89.6638C89.7811 109.64 89.8718 109.677 89.9358 109.752C89.9998 109.816 90.0318 109.901 90.0318 110.008V120.632C90.0318 120.739 89.9998 120.829 89.9358 120.904C89.8718 120.968 89.7811 121 89.6638 121H88.9118ZM95.5224 121.16C94.8397 121.16 94.2584 121.011 93.7784 120.712C93.309 120.403 92.9517 119.976 92.7064 119.432C92.461 118.888 92.3384 118.264 92.3384 117.56V113.048C92.3384 112.941 92.3704 112.856 92.4344 112.792C92.509 112.717 92.5997 112.68 92.7064 112.68H93.5064C93.613 112.68 93.6984 112.717 93.7624 112.792C93.837 112.856 93.8744 112.941 93.8744 113.048V117.48C93.8744 119.069 94.5677 119.864 95.9544 119.864C96.6157 119.864 97.1437 119.656 97.5384 119.24C97.9437 118.813 98.1464 118.227 98.1464 117.48V113.048C98.1464 112.941 98.1784 112.856 98.2424 112.792C98.317 112.717 98.4077 112.68 98.5144 112.68H99.2984C99.4157 112.68 99.5064 112.717 99.5704 112.792C99.6344 112.856 99.6664 112.941 99.6664 113.048V120.632C99.6664 120.739 99.6344 120.829 99.5704 120.904C99.5064 120.968 99.4157 121 99.2984 121H98.5624C98.4557 121 98.365 120.968 98.2904 120.904C98.2264 120.829 98.1944 120.739 98.1944 120.632V119.928C97.9064 120.301 97.5544 120.6 97.1384 120.824C96.733 121.048 96.1944 121.16 95.5224 121.16ZM105.291 121C104.694 121 104.209 120.888 103.835 120.664C103.462 120.429 103.19 120.104 103.019 119.688C102.849 119.261 102.763 118.76 102.763 118.184V113.96H101.515C101.409 113.96 101.318 113.928 101.243 113.864C101.179 113.789 101.147 113.699 101.147 113.592V113.048C101.147 112.941 101.179 112.856 101.243 112.792C101.318 112.717 101.409 112.68 101.515 112.68H102.763V110.008C102.763 109.901 102.795 109.816 102.859 109.752C102.934 109.677 103.025 109.64 103.131 109.64H103.883C103.99 109.64 104.075 109.677 104.139 109.752C104.214 109.816 104.251 109.901 104.251 110.008V112.68H106.235C106.342 112.68 106.427 112.717 106.491 112.792C106.566 112.856 106.603 112.941 106.603 113.048V113.592C106.603 113.699 106.566 113.789 106.491 113.864C106.427 113.928 106.342 113.96 106.235 113.96H104.251V118.072C104.251 118.573 104.337 118.968 104.507 119.256C104.678 119.544 104.982 119.688 105.419 119.688H106.395C106.502 119.688 106.587 119.725 106.651 119.8C106.726 119.864 106.763 119.949 106.763 120.056V120.632C106.763 120.739 106.726 120.829 106.651 120.904C106.587 120.968 106.502 121 106.395 121H105.291ZM111.541 121C110.944 121 110.459 120.888 110.085 120.664C109.712 120.429 109.44 120.104 109.269 119.688C109.099 119.261 109.013 118.76 109.013 118.184V113.96H107.765C107.659 113.96 107.568 113.928 107.493 113.864C107.429 113.789 107.397 113.699 107.397 113.592V113.048C107.397 112.941 107.429 112.856 107.493 112.792C107.568 112.717 107.659 112.68 107.765 112.68H109.013V110.008C109.013 109.901 109.045 109.816 109.109 109.752C109.184 109.677 109.275 109.64 109.381 109.64H110.133C110.24 109.64 110.325 109.677 110.389 109.752C110.464 109.816 110.501 109.901 110.501 110.008V112.68H112.485C112.592 112.68 112.677 112.717 112.741 112.792C112.816 112.856 112.853 112.941 112.853 113.048V113.592C112.853 113.699 112.816 113.789 112.741 113.864C112.677 113.928 112.592 113.96 112.485 113.96H110.501V118.072C110.501 118.573 110.587 118.968 110.757 119.256C110.928 119.544 111.232 119.688 111.669 119.688H112.645C112.752 119.688 112.837 119.725 112.901 119.8C112.976 119.864 113.013 119.949 113.013 120.056V120.632C113.013 120.739 112.976 120.829 112.901 120.904C112.837 120.968 112.752 121 112.645 121H111.541ZM117.855 121.16C116.757 121.16 115.882 120.824 115.231 120.152C114.581 119.469 114.223 118.541 114.159 117.368C114.149 117.229 114.143 117.053 114.143 116.84C114.143 116.616 114.149 116.435 114.159 116.296C114.202 115.539 114.378 114.877 114.687 114.312C114.997 113.736 115.418 113.293 115.951 112.984C116.495 112.675 117.13 112.52 117.855 112.52C118.666 112.52 119.343 112.691 119.887 113.032C120.442 113.373 120.863 113.859 121.151 114.488C121.439 115.117 121.583 115.853 121.583 116.696V116.968C121.583 117.085 121.546 117.176 121.471 117.24C121.407 117.304 121.322 117.336 121.215 117.336H115.679C115.679 117.347 115.679 117.368 115.679 117.4C115.679 117.432 115.679 117.459 115.679 117.48C115.701 117.917 115.797 118.328 115.967 118.712C116.138 119.085 116.383 119.389 116.703 119.624C117.023 119.859 117.407 119.976 117.855 119.976C118.239 119.976 118.559 119.917 118.815 119.8C119.071 119.683 119.279 119.555 119.439 119.416C119.599 119.267 119.706 119.155 119.759 119.08C119.855 118.941 119.93 118.861 119.983 118.84C120.037 118.808 120.122 118.792 120.239 118.792H121.007C121.114 118.792 121.199 118.824 121.263 118.888C121.338 118.941 121.37 119.021 121.359 119.128C121.349 119.288 121.263 119.485 121.103 119.72C120.943 119.944 120.714 120.168 120.415 120.392C120.117 120.616 119.754 120.803 119.327 120.952C118.901 121.091 118.41 121.16 117.855 121.16ZM115.679 116.232H120.063V116.184C120.063 115.704 119.973 115.277 119.791 114.904C119.621 114.531 119.37 114.237 119.039 114.024C118.709 113.8 118.314 113.688 117.855 113.688C117.397 113.688 117.002 113.8 116.671 114.024C116.351 114.237 116.106 114.531 115.935 114.904C115.765 115.277 115.679 115.704 115.679 116.184V116.232ZM123.865 121C123.758 121 123.667 120.968 123.593 120.904C123.529 120.829 123.497 120.739 123.497 120.632V113.064C123.497 112.957 123.529 112.867 123.593 112.792C123.667 112.717 123.758 112.68 123.865 112.68H124.601C124.707 112.68 124.798 112.717 124.873 112.792C124.947 112.867 124.985 112.957 124.985 113.064V113.768C125.198 113.405 125.491 113.133 125.865 112.952C126.238 112.771 126.686 112.68 127.209 112.68H127.849C127.955 112.68 128.041 112.717 128.105 112.792C128.169 112.856 128.201 112.941 128.201 113.048V113.704C128.201 113.811 128.169 113.896 128.105 113.96C128.041 114.024 127.955 114.056 127.849 114.056H126.889C126.313 114.056 125.859 114.227 125.529 114.568C125.198 114.899 125.033 115.352 125.033 115.928V120.632C125.033 120.739 124.995 120.829 124.921 120.904C124.846 120.968 124.755 121 124.649 121H123.865Z" fill="white"/>
<path d="M75.2 62C75.0667 62 74.9533 61.96 74.86 61.88C74.78 61.7867 74.74 61.6733 74.74 61.54V48.48C74.74 48.3333 74.78 48.22 74.86 48.14C74.9533 48.0467 75.0667 48 75.2 48H76.2C76.36 48 76.48 48.04 76.56 48.12C76.64 48.2 76.6867 48.2667 76.7 48.32L80.94 56.4L85.2 48.32C85.2267 48.2667 85.2733 48.2 85.34 48.12C85.42 48.04 85.54 48 85.7 48H86.68C86.8267 48 86.94 48.0467 87.02 48.14C87.1133 48.22 87.16 48.3333 87.16 48.48V61.54C87.16 61.6733 87.1133 61.7867 87.02 61.88C86.94 61.96 86.8267 62 86.68 62H85.7C85.5667 62 85.4533 61.96 85.36 61.88C85.28 61.7867 85.24 61.6733 85.24 61.54V51.7L81.9 58.22C81.8467 58.3533 81.7667 58.46 81.66 58.54C81.5533 58.6067 81.42 58.64 81.26 58.64H80.64C80.4667 58.64 80.3267 58.6067 80.22 58.54C80.1267 58.46 80.0467 58.3533 79.98 58.22L76.64 51.7V61.54C76.64 61.6733 76.5933 61.7867 76.5 61.88C76.42 61.96 76.3133 62 76.18 62H75.2ZM94.6189 62.2C93.6056 62.2 92.7589 62.0067 92.0789 61.62C91.3989 61.2333 90.8789 60.7 90.5189 60.02C90.1589 59.3267 89.9589 58.54 89.9189 57.66C89.9056 57.4333 89.8989 57.1467 89.8989 56.8C89.8989 56.44 89.9056 56.1533 89.9189 55.94C89.9589 55.0467 90.1589 54.26 90.5189 53.58C90.8922 52.9 91.4189 52.3667 92.0989 51.98C92.7789 51.5933 93.6189 51.4 94.6189 51.4C95.6189 51.4 96.4589 51.5933 97.1389 51.98C97.8189 52.3667 98.3389 52.9 98.6989 53.58C99.0722 54.26 99.2789 55.0467 99.3189 55.94C99.3322 56.1533 99.3389 56.44 99.3389 56.8C99.3389 57.1467 99.3322 57.4333 99.3189 57.66C99.2789 58.54 99.0789 59.3267 98.7189 60.02C98.3589 60.7 97.8389 61.2333 97.1589 61.62C96.4789 62.0067 95.6322 62.2 94.6189 62.2ZM94.6189 60.66C95.4456 60.66 96.1056 60.4 96.5989 59.88C97.0922 59.3467 97.3589 58.5733 97.3989 57.56C97.4122 57.36 97.4189 57.1067 97.4189 56.8C97.4189 56.4933 97.4122 56.24 97.3989 56.04C97.3589 55.0267 97.0922 54.26 96.5989 53.74C96.1056 53.2067 95.4456 52.94 94.6189 52.94C93.7922 52.94 93.1256 53.2067 92.6189 53.74C92.1256 54.26 91.8656 55.0267 91.8389 56.04C91.8256 56.24 91.8189 56.4933 91.8189 56.8C91.8189 57.1067 91.8256 57.36 91.8389 57.56C91.8656 58.5733 92.1256 59.3467 92.6189 59.88C93.1256 60.4 93.7922 60.66 94.6189 60.66ZM106.983 62.2C106.183 62.2 105.517 62.06 104.983 61.78C104.45 61.4867 104.023 61.1267 103.703 60.7V61.54C103.703 61.6733 103.657 61.7867 103.563 61.88C103.483 61.96 103.377 62 103.243 62H102.323C102.19 62 102.077 61.96 101.983 61.88C101.903 61.7867 101.863 61.6733 101.863 61.54V48.26C101.863 48.1267 101.903 48.02 101.983 47.94C102.077 47.8467 102.19 47.8 102.323 47.8H103.283C103.43 47.8 103.543 47.8467 103.623 47.94C103.703 48.02 103.743 48.1267 103.743 48.26V52.86C104.077 52.4467 104.503 52.1 105.023 51.82C105.557 51.54 106.21 51.4 106.983 51.4C107.73 51.4 108.363 51.5333 108.883 51.8C109.417 52.0533 109.85 52.4067 110.183 52.86C110.53 53.3133 110.79 53.8267 110.963 54.4C111.137 54.9733 111.23 55.5733 111.243 56.2C111.257 56.4133 111.263 56.6133 111.263 56.8C111.263 56.9867 111.257 57.1867 111.243 57.4C111.23 58.04 111.137 58.6467 110.963 59.22C110.79 59.7933 110.53 60.3067 110.183 60.76C109.85 61.2 109.417 61.5533 108.883 61.82C108.363 62.0733 107.73 62.2 106.983 62.2ZM106.563 60.58C107.257 60.58 107.797 60.4333 108.183 60.14C108.583 59.8333 108.87 59.44 109.043 58.96C109.217 58.4667 109.317 57.94 109.343 57.38C109.357 56.9933 109.357 56.6067 109.343 56.22C109.317 55.66 109.217 55.14 109.043 54.66C108.87 54.1667 108.583 53.7733 108.183 53.48C107.797 53.1733 107.257 53.02 106.563 53.02C105.937 53.02 105.417 53.1667 105.003 53.46C104.59 53.7533 104.277 54.1267 104.063 54.58C103.863 55.0333 103.757 55.4933 103.743 55.96C103.73 56.1733 103.723 56.4333 103.723 56.74C103.723 57.0333 103.73 57.2867 103.743 57.5C103.77 57.9933 103.877 58.48 104.063 58.96C104.263 59.4267 104.563 59.8133 104.963 60.12C105.377 60.4267 105.91 60.58 106.563 60.58ZM114.198 62C114.064 62 113.951 61.96 113.858 61.88C113.778 61.7867 113.738 61.6733 113.738 61.54V52.06C113.738 51.9267 113.778 51.82 113.858 51.74C113.951 51.6467 114.064 51.6 114.198 51.6H115.158C115.291 51.6 115.398 51.6467 115.478 51.74C115.558 51.82 115.598 51.9267 115.598 52.06V61.54C115.598 61.6733 115.558 61.7867 115.478 61.88C115.398 61.96 115.291 62 115.158 62H114.198ZM114.038 49.66C113.904 49.66 113.791 49.62 113.698 49.54C113.618 49.4467 113.578 49.3333 113.578 49.2V48.12C113.578 47.9867 113.618 47.88 113.698 47.8C113.791 47.7067 113.904 47.66 114.038 47.66H115.298C115.431 47.66 115.538 47.7067 115.618 47.8C115.711 47.88 115.758 47.9867 115.758 48.12V49.2C115.758 49.3333 115.711 49.4467 115.618 49.54C115.538 49.62 115.431 49.66 115.298 49.66H114.038ZM119.062 62C118.928 62 118.815 61.96 118.722 61.88C118.642 61.7867 118.602 61.6733 118.602 61.54V48.26C118.602 48.1267 118.642 48.02 118.722 47.94C118.815 47.8467 118.928 47.8 119.062 47.8H120.002C120.148 47.8 120.262 47.8467 120.342 47.94C120.422 48.02 120.462 48.1267 120.462 48.26V61.54C120.462 61.6733 120.422 61.7867 120.342 61.88C120.262 61.96 120.148 62 120.002 62H119.062ZM127.585 62.2C126.212 62.2 125.118 61.78 124.305 60.94C123.492 60.0867 123.045 58.9267 122.965 57.46C122.952 57.2867 122.945 57.0667 122.945 56.8C122.945 56.52 122.952 56.2933 122.965 56.12C123.018 55.1733 123.238 54.3467 123.625 53.64C124.012 52.92 124.538 52.3667 125.205 51.98C125.885 51.5933 126.678 51.4 127.585 51.4C128.598 51.4 129.445 51.6133 130.125 52.04C130.818 52.4667 131.345 53.0733 131.705 53.86C132.065 54.6467 132.245 55.5667 132.245 56.62V56.96C132.245 57.1067 132.198 57.22 132.105 57.3C132.025 57.38 131.918 57.42 131.785 57.42H124.865C124.865 57.4333 124.865 57.46 124.865 57.5C124.865 57.54 124.865 57.5733 124.865 57.6C124.892 58.1467 125.012 58.66 125.225 59.14C125.438 59.6067 125.745 59.9867 126.145 60.28C126.545 60.5733 127.025 60.72 127.585 60.72C128.065 60.72 128.465 60.6467 128.785 60.5C129.105 60.3533 129.365 60.1933 129.565 60.02C129.765 59.8333 129.898 59.6933 129.965 59.6C130.085 59.4267 130.178 59.3267 130.245 59.3C130.312 59.26 130.418 59.24 130.565 59.24H131.525C131.658 59.24 131.765 59.28 131.845 59.36C131.938 59.4267 131.978 59.5267 131.965 59.66C131.952 59.86 131.845 60.1067 131.645 60.4C131.445 60.68 131.158 60.96 130.785 61.24C130.412 61.52 129.958 61.7533 129.425 61.94C128.892 62.1133 128.278 62.2 127.585 62.2ZM124.865 56.04H130.345V55.98C130.345 55.38 130.232 54.8467 130.005 54.38C129.792 53.9133 129.478 53.5467 129.065 53.28C128.652 53 128.158 52.86 127.585 52.86C127.012 52.86 126.518 53 126.105 53.28C125.705 53.5467 125.398 53.9133 125.185 54.38C124.972 54.8467 124.865 55.38 124.865 55.98V56.04Z" fill="#3C3842"/>
<defs>
<linearGradient id="paint0_linear_23_30" x1="24" y1="116" x2="184" y2="116" gradientUnits="userSpaceOnUse">
<stop stop-color="#3603BC" stop-opacity="0.5"/>
<stop offset="1" stop-color="#8B5CF6"/>
</linearGradient>
</defs>
</svg>
