<svg width="353" height="82" viewBox="0 0 353 82" fill="none" xmlns="http://www.w3.org/2000/svg">
<path d="M86.372 0C80.4941 0.164904 74.9428 0.49471 70.2079 1.15432C70.2079 1.15432 82.6167 3.46297 87.3516 14.6764C95.8419 15.0062 103.353 15.6658 107.271 16.9851C110.047 17.9745 112.169 19.2937 113.802 21.2726C116.251 24.5706 117.721 32.3211 117.884 40.2365V40.7312C117.721 48.6466 116.414 56.7268 113.802 60.1898C112.169 62.0037 110.047 63.4879 107.271 64.4773C103.353 65.7965 95.3521 66.4561 86.5353 66.786C77.7185 66.4561 69.5548 65.7965 65.6362 64.4773C62.8605 63.4879 60.738 62.1687 59.2685 60.1898C56.4928 56.7268 55.1866 48.6466 55.1866 40.7312V39.412C55.3499 31.8264 56.8194 24.5706 59.2685 21.2726C60.2481 20.1182 61.5543 18.9639 63.1871 18.1394C63.1871 18.1394 58.6154 16.9851 45.3902 16.4904C44.5738 18.3043 43.9207 20.448 43.5942 22.7567C42.6145 27.7038 41.9614 33.6403 41.9614 39.5769V40.7312C41.9614 46.9975 42.4513 53.5937 43.5942 58.8706C44.5738 63.8177 46.2066 67.7754 48.4924 70.7436C50.7782 73.7119 53.8805 76.0206 57.799 77.6696C63.5136 79.9782 74.6163 81.2975 86.5353 81.4624C88.9844 81.4624 91.4335 81.2975 93.8826 81.1326L104.006 71.5682C104.659 70.9085 105.312 70.4138 106.128 69.9191C106.945 69.4244 107.761 68.9297 108.741 68.9297C109.72 68.7648 110.537 68.7648 111.19 69.2595C111.679 69.5893 112.169 69.9191 112.659 70.4138C112.986 70.7436 113.149 71.4033 113.312 71.7331L115.272 77.5047C119.19 75.8557 122.292 73.7119 124.741 70.5787C127.027 67.6105 128.66 63.6528 129.64 58.7057C130.619 53.4288 131.272 46.9975 131.272 40.5663V40.2365C131.109 33.9701 130.783 27.5389 129.64 22.4269C128.66 17.4798 126.864 13.5221 124.741 10.5538C122.456 7.58556 119.19 5.27691 115.272 3.62788C109.23 1.64904 98.291 0.329807 86.372 0ZM44.7371 0C42.288 0 39.8389 0.164903 37.3898 0.329807L27.2668 9.89422C26.6137 10.5538 25.9606 11.0485 25.1442 11.5433C24.3278 12.038 23.5115 12.5327 22.5318 12.5327C21.5522 12.6976 20.7358 12.6976 20.0827 12.3678C19.4296 12.038 19.1031 11.5433 18.6132 11.2134C18.2867 10.7187 18.1234 10.224 17.9602 9.72931L16.0009 3.95769C12.0823 5.60672 8.98007 7.75047 6.53096 10.8836C4.24513 13.8519 2.61239 17.8096 1.63274 22.7567C0.653096 27.7038 0.163274 33.6403 0 39.5769V40.7312C0 46.9975 0.489822 53.5937 1.63274 58.8706C2.61239 63.8177 4.4084 67.7754 6.53096 70.7436C8.8168 73.7119 12.0823 76.0206 16.0009 77.6696C21.7155 79.9782 32.6548 81.2975 44.5738 81.4624C50.2884 81.2975 56.003 80.9677 60.738 80.3081C60.0849 80.1432 48.1659 77.6696 43.7575 66.786C35.1039 66.4561 27.5933 65.7965 23.838 64.4773C20.8991 63.4879 18.9398 62.1687 17.3071 60.1898C14.6947 56.7268 13.2252 48.6466 13.2252 40.7312V39.412C13.5518 31.8264 14.8579 24.5706 17.3071 21.2726C18.9398 19.4586 20.8991 17.9745 23.838 16.9851C27.5933 15.8307 35.757 15.0062 44.5738 14.6764C53.3906 15.0062 61.5543 15.6658 65.3096 16.9851C68.2486 17.9745 70.2079 19.2937 71.8406 21.2726C74.453 24.5706 75.7592 32.3211 75.9225 40.2365V40.7312C75.9225 48.6466 74.453 56.7268 71.8406 60.1898C70.861 61.3441 69.5548 62.4985 67.922 63.323C67.922 63.323 72.4937 64.4773 85.7189 64.972C86.5353 63.1581 87.1884 61.0143 87.5149 58.7057C88.4946 53.4288 89.1477 46.9975 89.1477 40.5663V40.2365C89.1477 33.9701 88.6578 27.5389 87.5149 22.4269C86.5353 17.4798 84.9025 13.5221 82.6167 10.5538C80.3309 7.58556 77.0654 5.27691 73.1468 3.62788C67.5955 1.64904 56.6561 0.329807 44.7371 0Z" fill="white"/>
<path d="M151.684 53.9236C152.991 54.4184 154.46 54.9131 156.093 55.2429C157.562 55.5727 159.521 55.7376 161.644 55.7376C165.073 55.7376 167.685 55.078 169.318 53.5938C170.951 52.1097 171.93 50.2958 171.93 47.8222C171.93 46.6679 171.767 45.6785 171.44 44.689C171.114 43.8645 170.624 43.04 169.808 42.5453C169.155 41.8857 168.175 41.391 167.195 40.8963C166.052 40.4016 164.91 39.9068 163.44 39.2472L159.848 37.7631C158.705 37.2684 157.562 36.7737 156.583 36.1141C155.603 35.4544 154.787 34.7948 153.97 33.8054C153.154 32.9809 152.664 31.8266 152.174 30.6722C151.684 29.5179 151.521 28.1987 151.521 26.5497C151.521 22.7569 152.827 19.6237 155.44 17.48C158.052 15.3362 161.644 14.1819 166.379 14.1819C168.338 14.1819 170.298 14.3468 172.094 14.6766C173.89 15.0064 175.522 15.5011 176.829 15.9958C176.665 17.8098 176.175 19.4588 175.522 21.2727C174.379 20.778 173.073 20.4482 171.604 20.1184C170.134 19.7886 168.502 19.6237 166.542 19.6237C163.93 19.6237 161.807 20.1184 160.501 21.2727C159.032 22.4271 158.379 23.9112 158.379 26.0549C158.379 26.8795 158.542 27.704 158.868 28.3636C159.195 29.0232 159.685 29.6828 160.338 30.1775C160.991 30.6722 161.644 31.167 162.46 31.6617C163.277 32.1564 164.093 32.4862 164.91 32.816L168.502 34.1352C170.134 34.7948 171.604 35.4544 172.91 36.279C174.216 37.1035 175.359 37.928 176.175 38.9174C177.155 39.9068 177.808 41.0612 178.298 42.3804C178.788 43.6996 178.951 45.3487 178.951 47.1626C178.951 51.4501 177.482 54.9131 174.543 57.5515C171.604 60.0251 167.359 61.3443 161.971 61.3443C160.664 61.3443 159.521 61.3443 158.379 61.1794C157.399 61.0145 156.419 61.0145 155.44 60.8496C154.46 60.6847 153.644 60.5198 152.827 60.19C152.011 59.8602 151.194 59.6953 150.215 59.3655C150.378 58.376 150.541 57.5515 150.705 56.5621C151.031 55.9025 151.358 54.9131 151.684 53.9236ZM216.667 53.5938C217.81 54.0885 219.116 54.4184 220.423 54.7482C221.729 55.078 223.198 55.078 224.505 55.078C225.484 55.078 226.464 54.9131 227.28 54.7482C228.097 54.5833 228.913 54.2534 229.566 53.7587C230.219 53.264 230.709 52.7693 231.199 52.2746C231.525 51.615 231.852 50.9554 231.852 50.1309C231.852 49.3063 231.689 48.6467 231.362 47.9871C231.036 47.3275 230.546 46.9977 230.056 46.6679C229.566 46.3381 228.913 46.0083 228.26 45.6785C227.607 45.3487 226.79 45.1838 225.974 44.8539L223.688 44.0294C221.076 43.04 219.117 41.8857 217.81 40.5665C216.667 39.2472 216.014 37.5982 216.014 35.4544C216.014 32.6511 216.994 30.3424 219.117 28.5285C221.239 26.7146 224.178 26.0549 228.097 26.0549C229.729 26.0549 231.362 26.2198 232.832 26.5497C234.464 26.8795 235.77 27.2093 236.913 27.704C236.75 28.5285 236.75 29.353 236.424 30.1775C236.26 31.002 235.934 31.8266 235.607 32.4862C234.628 32.1564 233.648 31.8266 232.342 31.4968C231.035 31.167 229.729 31.002 228.26 31.002C226.627 31.002 225.321 31.3319 224.178 31.8266C223.035 32.3213 222.382 33.3107 222.382 34.7948C222.382 35.4544 222.545 36.1141 222.872 36.6088C223.198 37.1035 223.525 37.5982 224.015 37.928C224.505 38.2578 225.158 38.5876 225.811 38.9174C226.464 39.2472 227.117 39.4121 227.933 39.7419L230.709 40.7314C231.689 41.0612 232.668 41.391 233.648 41.8857C234.628 42.3804 235.281 42.8751 235.934 43.6996C236.587 44.3592 237.077 45.1838 237.566 46.1732C237.893 47.1626 238.22 48.3169 238.22 49.8011C238.22 51.4501 237.893 52.7693 237.24 54.0885C236.587 55.4078 235.77 56.5621 234.628 57.3866C233.485 58.376 232.015 59.0357 230.382 59.5304C228.75 60.0251 226.954 60.3549 224.994 60.3549C223.035 60.3549 221.239 60.19 219.77 59.8602C218.3 59.5304 216.831 59.2006 215.524 58.7058C215.688 57.8813 215.851 57.0568 216.014 56.0674C216.014 55.4078 216.341 54.4184 216.667 53.5938ZM241.812 26.8795C242.465 26.7146 242.955 26.7146 243.608 26.7146H247.036C247.689 26.7146 248.179 26.8795 248.669 26.8795L257.486 53.7587L266.303 26.8795C266.793 26.7146 267.282 26.7146 267.935 26.7146H271.201C271.854 26.7146 272.344 26.8795 272.997 26.8795L260.425 59.5304C259.935 59.6953 259.282 59.6953 258.792 59.6953H255.853C255.363 59.6953 254.874 59.5304 254.384 59.5304L241.812 26.8795ZM296.345 38.0929C296.345 35.6193 295.692 33.8054 294.386 32.816C293.08 31.8266 291.284 31.3319 288.835 31.3319C287.365 31.3319 286.059 31.4968 284.753 31.6617C283.446 31.8266 282.304 32.1564 280.997 32.6511C280.181 31.3319 279.854 29.5179 279.854 27.704C281.324 27.2093 282.793 26.8795 284.589 26.5497C286.385 26.2198 288.018 26.2198 289.488 26.2198C293.733 26.2198 296.835 27.2093 299.121 29.1881C301.407 31.167 302.386 34.1352 302.386 38.4227V58.8707C300.917 59.2006 299.121 59.5304 296.998 59.8602C294.876 60.19 292.753 60.3549 290.631 60.3549C288.508 60.3549 286.712 60.19 285.079 59.8602C283.446 59.5304 281.977 58.8707 280.834 58.0462C279.691 57.2217 278.712 56.0674 278.222 54.7482C277.569 53.4289 277.242 51.7799 277.242 49.966C277.242 48.152 277.569 46.503 278.385 45.1838C279.038 43.8645 280.181 42.7102 281.324 41.7208C282.63 40.7314 284.1 40.0717 285.732 39.7419C287.365 39.2472 289.161 39.0823 290.957 39.0823C292.263 39.0823 293.406 39.0823 294.223 39.2472C295.039 39.2472 295.855 39.4121 296.345 39.4121V38.0929ZM296.345 44.1943C295.692 44.0294 294.876 44.0294 293.896 43.8645C292.916 43.6996 292.1 43.6996 291.447 43.6996C288.835 43.6996 286.875 44.1943 285.569 45.1838C284.263 46.1732 283.446 47.6573 283.446 49.6362C283.446 50.9554 283.61 51.9448 284.1 52.6044C284.589 53.264 285.079 53.9236 285.896 54.2534C286.549 54.5833 287.365 54.9131 288.181 54.9131C288.998 55.078 289.814 55.078 290.631 55.078C291.61 55.078 292.59 55.078 293.569 54.9131C294.549 54.7482 295.529 54.5833 296.345 54.4184V44.1943ZM330.959 44.8539C331.123 48.4818 331.939 50.9554 333.735 52.6044C335.531 54.2534 337.98 55.078 341.409 55.078C344.348 55.078 347.287 54.5833 349.899 53.4289C350.226 54.0885 350.552 54.9131 350.715 55.7376C350.879 56.727 351.042 57.5515 351.042 58.376C349.736 59.0357 348.103 59.3655 346.47 59.6953C344.838 60.0251 343.042 60.19 340.919 60.19C337.98 60.19 335.531 59.6953 333.408 58.8707C331.286 58.0462 329.653 56.8919 328.184 55.4078C326.877 53.9236 325.898 52.1097 325.245 50.1309C324.592 48.152 324.265 45.8434 324.265 43.3698C324.265 40.8963 324.592 38.7525 325.245 36.6088C325.898 34.465 326.714 32.6511 328.02 31.167C329.326 29.6828 330.796 28.3636 332.755 27.5391C334.715 26.5497 336.837 26.2198 339.449 26.2198C341.735 26.2198 343.695 26.5497 345.327 27.3742C346.96 28.1987 348.43 29.1881 349.572 30.5073C350.715 31.8266 351.532 33.4756 352.185 35.2895C352.838 37.1035 353.001 39.0823 353.001 41.2261V43.04C353.001 43.6996 352.838 44.1943 352.838 44.689H330.959V44.8539ZM346.96 40.0717C346.96 38.9174 346.797 37.7631 346.47 36.6088C346.144 35.4544 345.654 34.6299 345.164 33.8054C344.511 32.9809 343.858 32.3213 342.878 31.8266C341.899 31.3319 340.756 31.167 339.449 31.167C336.837 31.167 334.878 31.9915 333.572 33.4756C332.265 35.1246 331.449 37.2684 331.122 40.0717H346.96ZM314.958 12.6978H312.019C311.53 12.6978 310.877 12.8627 310.55 12.8627V59.5304C311.04 59.6953 311.53 59.6953 312.019 59.6953H314.958C315.448 59.6953 316.101 59.5304 316.428 59.5304V13.0276C315.938 12.8627 315.448 12.8627 314.958 12.6978ZM196.095 75.1962C195.278 75.3611 194.299 75.3611 193.156 75.3611H191.686C191.033 75.3611 190.544 75.3611 189.89 75.1962L195.278 58.7058L180.747 26.8795C181.237 26.7146 181.89 26.7146 182.38 26.7146H185.809C186.462 26.7146 186.951 26.7146 187.441 26.8795L197.728 50.6256L204.912 26.8795C205.728 26.7146 206.708 26.7146 207.851 26.7146H209.32C209.973 26.7146 210.463 26.7146 211.116 26.8795L196.095 75.1962Z" fill="white"/>
</svg>
