<svg width="77" height="26" viewBox="0 0 77 26" fill="none" xmlns="http://www.w3.org/2000/svg">
<path d="M8.4375 25.3906C4.95833 25.3906 3.21875 23.5833 3.21875 19.9688V12.6406H1.45312C1.14062 12.6406 0.921875 12.5781 0.796875 12.4531C0.682292 12.3177 0.625 12.0938 0.625 11.7812V9.85938C0.625 9.54688 0.682292 9.32812 0.796875 9.20312C0.921875 9.06771 1.14062 9 1.45312 9H3.21875V6.48438C3.21875 6.23438 3.27083 6.04167 3.375 5.90625C3.8125 5.33333 4.45312 4.71354 5.29688 4.04688C5.44271 3.94271 5.57292 3.89062 5.6875 3.89062C5.8125 3.89062 5.9375 3.94271 6.0625 4.04688C6.51042 4.39062 6.88542 4.71354 7.1875 5.01562C7.5 5.31771 7.76562 5.61458 7.98438 5.90625C8.08854 6.04167 8.14062 6.23438 8.14062 6.48438V9H10.9062C11.2188 9 11.4323 9.06771 11.5469 9.20312C11.6719 9.32812 11.7344 9.54688 11.7344 9.85938V11.7812C11.7344 12.0938 11.6719 12.3177 11.5469 12.4531C11.4323 12.5781 11.2188 12.6406 10.9062 12.6406H8.14062V19.1094C8.14062 20.776 8.74479 21.6094 9.95312 21.6094C10.1406 21.6094 10.3125 21.5938 10.4688 21.5625C10.625 21.5208 10.7604 21.4792 10.875 21.4375C11.0938 21.3542 11.2448 21.3229 11.3281 21.3438C11.4219 21.3646 11.5052 21.4792 11.5781 21.6875L12.4844 24.1094C12.5781 24.3698 12.5156 24.5573 12.2969 24.6719C12.1406 24.7448 11.7604 24.8802 11.1562 25.0781C10.5625 25.2865 9.65625 25.3906 8.4375 25.3906Z" fill="white"/>
<path d="M14.3906 3.75C14.3906 3.61458 14.4323 3.49479 14.5156 3.39062C14.599 3.28646 14.7083 3.15104 14.8438 2.98438C15.1354 2.65104 15.474 2.30208 15.8594 1.9375C16.2448 1.5625 16.6354 1.20312 17.0312 0.859375C17.2812 0.661458 17.4688 0.5625 17.5938 0.5625C17.7188 0.5625 17.9115 0.661458 18.1719 0.859375C19.0156 1.58854 19.7344 2.29688 20.3281 2.98438C20.4635 3.14062 20.5729 3.27604 20.6562 3.39062C20.75 3.49479 20.7969 3.61458 20.7969 3.75C20.7969 3.88542 20.75 4.00521 20.6562 4.10938C20.5729 4.21354 20.4583 4.35417 20.3125 4.53125C20.0312 4.85417 19.7031 5.20312 19.3281 5.57812C18.9531 5.94271 18.5677 6.29167 18.1719 6.625C18.026 6.75 17.9115 6.83333 17.8281 6.875C17.7448 6.90625 17.6667 6.92188 17.5938 6.92188C17.5208 6.92188 17.4427 6.90625 17.3594 6.875C17.2865 6.83333 17.1667 6.75 17 6.625C16.5833 6.29167 16.1927 5.94271 15.8281 5.57812C15.4635 5.20312 15.1354 4.84375 14.8438 4.5C14.7083 4.33333 14.599 4.20312 14.5156 4.10938C14.4323 4.00521 14.3906 3.88542 14.3906 3.75ZM20.0469 24.1719C20.0469 24.4844 19.9792 24.7031 19.8438 24.8281C19.7188 24.9427 19.5 25 19.1875 25H15.9688C15.6562 25 15.4323 24.9427 15.2969 24.8281C15.1719 24.7031 15.1094 24.4844 15.1094 24.1719V9.82812C15.1094 9.51562 15.1719 9.30208 15.2969 9.1875C15.4323 9.0625 15.6562 9 15.9688 9H19.1875C19.5 9 19.7188 9.0625 19.8438 9.1875C19.9792 9.30208 20.0469 9.51562 20.0469 9.82812V24.1719Z" fill="white"/>
<path d="M28.75 25.3906C27.6354 25.3906 26.7083 25.2969 25.9688 25.1094C25.2396 24.9219 24.651 24.6979 24.2031 24.4375C23.7656 24.1667 23.4219 23.9219 23.1719 23.7031C22.9844 23.526 22.9635 23.3281 23.1094 23.1094L24.7031 20.75C24.9323 20.4167 25.1927 20.3958 25.4844 20.6875C25.7865 20.9792 26.1927 21.2656 26.7031 21.5469C27.224 21.8177 27.8698 21.9531 28.6406 21.9531C29.3281 21.9531 29.8906 21.8385 30.3281 21.6094C30.776 21.3698 31 21.026 31 20.5781C31 20.2656 30.901 20.0104 30.7031 19.8125C30.5052 19.6146 30.1562 19.4115 29.6562 19.2031C29.1562 18.9948 28.4583 18.7292 27.5625 18.4062C26.2396 17.9271 25.2396 17.349 24.5625 16.6719C23.8854 15.9948 23.5469 15.0052 23.5469 13.7031C23.5469 12.5052 23.875 11.5312 24.5312 10.7812C25.1979 10.0312 26.0469 9.48438 27.0781 9.14062C28.1198 8.78646 29.2031 8.60938 30.3281 8.60938C31.7552 8.60938 32.7552 8.74479 33.3281 9.01562C33.9115 9.27604 34.2865 9.47917 34.4531 9.625C34.6094 9.76042 34.7188 9.91667 34.7812 10.0938C34.9167 10.5 35.0208 11.0365 35.0938 11.7031C35.1354 12.0885 35.0365 12.3438 34.7969 12.4688C34.6719 12.5417 34.474 12.6198 34.2031 12.7031C33.9323 12.7865 33.6615 12.8594 33.3906 12.9219C33.1198 12.9844 32.9167 13.0156 32.7812 13.0156C32.7396 13.0156 32.6927 13.0052 32.6406 12.9844C32.599 12.9531 32.5208 12.8854 32.4062 12.7812C32.2708 12.6458 32.0365 12.4896 31.7031 12.3125C31.3802 12.1354 30.9323 12.0469 30.3594 12.0469C29.7969 12.0469 29.3229 12.1406 28.9375 12.3281C28.5625 12.5052 28.375 12.8229 28.375 13.2812C28.375 13.7812 28.6146 14.1562 29.0938 14.4062C29.5833 14.6562 30.3854 14.9792 31.5 15.375C32.375 15.6771 33.1354 16.0104 33.7812 16.375C34.4375 16.7292 34.9427 17.1979 35.2969 17.7812C35.651 18.3542 35.8281 19.1302 35.8281 20.1094C35.8281 21.3802 35.4792 22.4062 34.7812 23.1875C34.0938 23.9583 33.2083 24.5208 32.125 24.875C31.0521 25.2188 29.9271 25.3906 28.75 25.3906Z" fill="white"/>
<path d="M43.3438 25.3906C42.2292 25.3906 41.3021 25.2969 40.5625 25.1094C39.8333 24.9219 39.2448 24.6979 38.7969 24.4375C38.3594 24.1667 38.0156 23.9219 37.7656 23.7031C37.5781 23.526 37.5573 23.3281 37.7031 23.1094L39.2969 20.75C39.526 20.4167 39.7865 20.3958 40.0781 20.6875C40.3802 20.9792 40.7865 21.2656 41.2969 21.5469C41.8177 21.8177 42.4635 21.9531 43.2344 21.9531C43.9219 21.9531 44.4844 21.8385 44.9219 21.6094C45.3698 21.3698 45.5938 21.026 45.5938 20.5781C45.5938 20.2656 45.4948 20.0104 45.2969 19.8125C45.099 19.6146 44.75 19.4115 44.25 19.2031C43.75 18.9948 43.0521 18.7292 42.1562 18.4062C40.8333 17.9271 39.8333 17.349 39.1562 16.6719C38.4792 15.9948 38.1406 15.0052 38.1406 13.7031C38.1406 12.5052 38.4688 11.5312 39.125 10.7812C39.7917 10.0312 40.6406 9.48438 41.6719 9.14062C42.7135 8.78646 43.7969 8.60938 44.9219 8.60938C46.349 8.60938 47.349 8.74479 47.9219 9.01562C48.5052 9.27604 48.8802 9.47917 49.0469 9.625C49.2031 9.76042 49.3125 9.91667 49.375 10.0938C49.5104 10.5 49.6146 11.0365 49.6875 11.7031C49.7292 12.0885 49.6302 12.3438 49.3906 12.4688C49.2656 12.5417 49.0677 12.6198 48.7969 12.7031C48.526 12.7865 48.2552 12.8594 47.9844 12.9219C47.7135 12.9844 47.5104 13.0156 47.375 13.0156C47.3333 13.0156 47.2865 13.0052 47.2344 12.9844C47.1927 12.9531 47.1146 12.8854 47 12.7812C46.8646 12.6458 46.6302 12.4896 46.2969 12.3125C45.974 12.1354 45.526 12.0469 44.9531 12.0469C44.3906 12.0469 43.9167 12.1406 43.5312 12.3281C43.1562 12.5052 42.9688 12.8229 42.9688 13.2812C42.9688 13.7812 43.2083 14.1562 43.6875 14.4062C44.1771 14.6562 44.9792 14.9792 46.0938 15.375C46.9688 15.6771 47.7292 16.0104 48.375 16.375C49.0312 16.7292 49.5365 17.1979 49.8906 17.7812C50.2448 18.3542 50.4219 19.1302 50.4219 20.1094C50.4219 21.3802 50.0729 22.4062 49.375 23.1875C48.6875 23.9583 47.8021 24.5208 46.7188 24.875C45.6458 25.2188 44.5208 25.3906 43.3438 25.3906Z" fill="white"/>
<path d="M57.625 25.3906C56.0938 25.3906 54.875 24.9635 53.9688 24.1094C53.0729 23.2448 52.625 22.0573 52.625 20.5469C52.625 19.7656 52.7656 19.0417 53.0469 18.375C53.3385 17.6979 53.8385 17.1042 54.5469 16.5938C55.2656 16.0729 56.2656 15.6562 57.5469 15.3438C58.8385 15.0312 60.4844 14.849 62.4844 14.7969C62.4844 13.849 62.2448 13.1667 61.7656 12.75C61.2969 12.3333 60.5885 12.125 59.6406 12.125C58.7865 12.125 58.0885 12.2708 57.5469 12.5625C57.0052 12.8542 56.6667 13.0521 56.5312 13.1562C56.3854 13.2812 56.2083 13.3281 56 13.2969C55.7188 13.2552 55.4167 13.1823 55.0938 13.0781C54.7812 12.974 54.4427 12.8542 54.0781 12.7188C54.026 12.6979 53.9688 12.6667 53.9062 12.625C53.8438 12.5729 53.8073 12.5 53.7969 12.4062C53.7969 12.3542 53.8021 12.2917 53.8125 12.2188C53.8229 12.1354 53.849 11.9896 53.8906 11.7812C53.9323 11.5729 53.9948 11.3177 54.0781 11.0156C54.1615 10.7031 54.2396 10.4635 54.3125 10.2969C54.4062 10.1198 54.5625 9.95312 54.7812 9.79688C54.9583 9.65104 55.4948 9.41667 56.3906 9.09375C57.2865 8.77083 58.5833 8.60938 60.2812 8.60938C64.9583 8.60938 67.2969 10.8854 67.2969 15.4375V24.2812C67.2969 24.4792 67.2396 24.651 67.125 24.7969C67.0208 24.9323 66.8385 25 66.5781 25H64.2344C64.0677 25 63.9167 24.9792 63.7812 24.9375C63.6562 24.8854 63.5365 24.7917 63.4219 24.6562L62.4531 23.4062H62.3438C61.8646 24.1042 61.2188 24.6094 60.4062 24.9219C59.6042 25.2344 58.6771 25.3906 57.625 25.3906ZM59.3438 21.7656C60.3021 21.7656 61.026 21.5208 61.5156 21.0312C62.0052 20.5417 62.3177 20.0365 62.4531 19.5156V17.7812C61.0052 17.7812 59.9167 17.8958 59.1875 18.125C58.4688 18.3438 57.9896 18.6354 57.75 19C57.5104 19.3542 57.3906 19.7396 57.3906 20.1562C57.3906 20.7604 57.5781 21.1823 57.9531 21.4219C58.3281 21.651 58.7917 21.7656 59.3438 21.7656Z" fill="white"/>
<path d="M71.4391 20.5601C71.5432 20.4579 71.6653 20.4038 71.8053 20.3978C71.9527 20.3844 72.1444 20.3641 72.3804 20.3369C72.8668 20.3119 73.3972 20.3095 73.9715 20.3296C74.5606 20.3498 75.1386 20.381 75.7053 20.4231C76.0512 20.4632 76.2715 20.5315 76.3664 20.6282C76.4539 20.7174 76.5218 20.9427 76.57 21.3041C76.6547 22.4908 76.6555 23.592 76.5723 24.6077C76.5481 24.8359 76.5279 25.0235 76.5118 25.1707C76.4957 25.3178 76.4356 25.4425 76.3316 25.5447C76.2275 25.6468 76.0981 25.7008 75.9433 25.7068C75.7959 25.7201 75.6005 25.7441 75.3571 25.7786C74.8854 25.8037 74.3624 25.8062 73.788 25.7861C73.221 25.7734 72.654 25.7461 72.0872 25.7039C71.7414 25.6639 71.5174 25.5918 71.4153 25.4877C71.3277 25.3985 71.2562 25.1695 71.2007 24.8007C71.1473 24.2109 71.1232 23.6362 71.1284 23.0764C71.1411 22.5093 71.1681 21.9792 71.2095 21.4861C71.2337 21.258 71.2502 21.074 71.2589 20.9341C71.275 20.7869 71.3351 20.6623 71.4391 20.5601Z" fill="#8B5CF6"/>
</svg>
